G04 #@! TF.GenerationSoftware,KiCad,Pcbnew,(5.1.4)-1*
G04 #@! TF.CreationDate,2021-02-21T00:25:35+00:00*
G04 #@! TF.ProjectId,5v_to_bipolar15v_PSU,35765f74-6f5f-4626-9970-6f6c61723135,rev?*
G04 #@! TF.SameCoordinates,Original*
G04 #@! TF.FileFunction,Copper,L1,Top*
G04 #@! TF.FilePolarity,Positive*
%FSLAX46Y46*%
G04 Gerber Fmt 4.6, Leading zero omitted, Abs format (unit mm)*
G04 Created by KiCad (PCBNEW (5.1.4)-1) date 2021-02-21 00:25:35*
%MOMM*%
%LPD*%
G04 APERTURE LIST*
%ADD10C,0.100000*%
%ADD11R,0.600000X0.400000*%
%ADD12R,0.900000X1.200000*%
%ADD13C,2.700020*%
%ADD14R,0.500000X0.900000*%
%ADD15R,0.900000X0.500000*%
%ADD16R,0.750000X0.800000*%
%ADD17R,1.200000X0.900000*%
%ADD18R,0.800000X0.750000*%
%ADD19R,2.000000X2.600000*%
%ADD20O,2.000000X2.600000*%
%ADD21R,1.000000X1.000000*%
%ADD22C,0.600000*%
%ADD23R,1.600000X1.000000*%
%ADD24R,1.000000X1.600000*%
%ADD25R,3.800000X2.000000*%
%ADD26R,1.500000X2.000000*%
%ADD27R,2.000000X3.500000*%
%ADD28R,7.000000X7.000000*%
%ADD29R,0.650000X0.300000*%
%ADD30R,0.775000X1.240000*%
%ADD31R,0.800000X0.900000*%
%ADD32R,5.700000X1.700000*%
%ADD33R,1.700000X5.700000*%
%ADD34R,2.600000X2.000000*%
%ADD35O,2.600000X2.000000*%
%ADD36C,2.350000*%
%ADD37R,1.800000X2.500000*%
%ADD38R,2.500000X1.800000*%
%ADD39R,0.600000X0.500000*%
%ADD40C,0.800000*%
%ADD41C,0.250000*%
%ADD42C,0.203200*%
%ADD43C,1.270000*%
%ADD44C,1.016000*%
%ADD45C,0.635000*%
%ADD46C,2.540000*%
%ADD47C,0.254000*%
G04 APERTURE END LIST*
D10*
G36*
X125027500Y-86262400D02*
G01*
X126932500Y-86262400D01*
X126932500Y-92104400D01*
X125154500Y-92231400D01*
X120709500Y-95533400D01*
X119566500Y-95533400D01*
X119058500Y-95152400D01*
X118804500Y-94390400D01*
X119058500Y-93628400D01*
X121979500Y-90453400D01*
X121979500Y-84103400D01*
X122868500Y-84103400D01*
X125027500Y-86262400D01*
G37*
X125027500Y-86262400D02*
X126932500Y-86262400D01*
X126932500Y-92104400D01*
X125154500Y-92231400D01*
X120709500Y-95533400D01*
X119566500Y-95533400D01*
X119058500Y-95152400D01*
X118804500Y-94390400D01*
X119058500Y-93628400D01*
X121979500Y-90453400D01*
X121979500Y-84103400D01*
X122868500Y-84103400D01*
X125027500Y-86262400D01*
G36*
X142617500Y-107359900D02*
G01*
X149285000Y-116503900D01*
X122170500Y-116630900D01*
X122170500Y-110153900D01*
X126678500Y-110138400D01*
X131758500Y-107344400D01*
X138489500Y-107344400D01*
X142617500Y-107359900D01*
G37*
X142617500Y-107359900D02*
X149285000Y-116503900D01*
X122170500Y-116630900D01*
X122170500Y-110153900D01*
X126678500Y-110138400D01*
X131758500Y-107344400D01*
X138489500Y-107344400D01*
X142617500Y-107359900D01*
G36*
X133790500Y-83976400D02*
G01*
X132012500Y-83976400D01*
X126805500Y-92104400D01*
X125154500Y-92104400D01*
X125154500Y-86262400D01*
X126805500Y-86262400D01*
X131885500Y-80674400D01*
X133790500Y-80674400D01*
X133790500Y-83976400D01*
G37*
X133790500Y-83976400D02*
X132012500Y-83976400D01*
X126805500Y-92104400D01*
X125154500Y-92104400D01*
X125154500Y-86262400D01*
X126805500Y-86262400D01*
X131885500Y-80674400D01*
X133790500Y-80674400D01*
X133790500Y-83976400D01*
D11*
X168933000Y-106269400D03*
X168933000Y-105369400D03*
D12*
X172511000Y-89603400D03*
X169211000Y-89603400D03*
D13*
X152961000Y-110471400D03*
X142801000Y-110471400D03*
X174121000Y-82603400D03*
X163961000Y-82603400D03*
X144713000Y-90659400D03*
X144713000Y-80499400D03*
D14*
X160956500Y-90707400D03*
X159456500Y-90707400D03*
D15*
X162961000Y-94603400D03*
X162961000Y-96103400D03*
D16*
X149538500Y-96307400D03*
X149538500Y-97807400D03*
X169097000Y-85417400D03*
X169097000Y-86917400D03*
D17*
X147336500Y-95660400D03*
X145136500Y-95660400D03*
X150722500Y-93755400D03*
X148522500Y-93755400D03*
D16*
X162461000Y-100103400D03*
X162461000Y-101603400D03*
D18*
X157781500Y-90707400D03*
X156281500Y-90707400D03*
D16*
X157158500Y-100117400D03*
X157158500Y-101617400D03*
X158936500Y-100117400D03*
X158936500Y-101617400D03*
X160714500Y-100129400D03*
X160714500Y-101629400D03*
D19*
X167711000Y-111103400D03*
D20*
X165171000Y-111103400D03*
D21*
X172548000Y-110196900D03*
D10*
G36*
X173712703Y-111497622D02*
G01*
X173727264Y-111499782D01*
X173741543Y-111503359D01*
X173755403Y-111508318D01*
X173768710Y-111514612D01*
X173781336Y-111522180D01*
X173793159Y-111530948D01*
X173804066Y-111540834D01*
X173813952Y-111551741D01*
X173822720Y-111563564D01*
X173830288Y-111576190D01*
X173836582Y-111589497D01*
X173841541Y-111603357D01*
X173845118Y-111617636D01*
X173847278Y-111632197D01*
X173848000Y-111646900D01*
X173848000Y-111946900D01*
X173847278Y-111961603D01*
X173845118Y-111976164D01*
X173841541Y-111990443D01*
X173836582Y-112004303D01*
X173830288Y-112017610D01*
X173822720Y-112030236D01*
X173813952Y-112042059D01*
X173804066Y-112052966D01*
X173793159Y-112062852D01*
X173781336Y-112071620D01*
X173768710Y-112079188D01*
X173755403Y-112085482D01*
X173741543Y-112090441D01*
X173727264Y-112094018D01*
X173712703Y-112096178D01*
X173698000Y-112096900D01*
X171398000Y-112096900D01*
X171383297Y-112096178D01*
X171368736Y-112094018D01*
X171354457Y-112090441D01*
X171340597Y-112085482D01*
X171327290Y-112079188D01*
X171314664Y-112071620D01*
X171302841Y-112062852D01*
X171291934Y-112052966D01*
X171282048Y-112042059D01*
X171273280Y-112030236D01*
X171265712Y-112017610D01*
X171259418Y-112004303D01*
X171254459Y-111990443D01*
X171250882Y-111976164D01*
X171248722Y-111961603D01*
X171248000Y-111946900D01*
X171248000Y-111646900D01*
X171248722Y-111632197D01*
X171250882Y-111617636D01*
X171254459Y-111603357D01*
X171259418Y-111589497D01*
X171265712Y-111576190D01*
X171273280Y-111563564D01*
X171282048Y-111551741D01*
X171291934Y-111540834D01*
X171302841Y-111530948D01*
X171314664Y-111522180D01*
X171327290Y-111514612D01*
X171340597Y-111508318D01*
X171354457Y-111503359D01*
X171368736Y-111499782D01*
X171383297Y-111497622D01*
X171398000Y-111496900D01*
X173698000Y-111496900D01*
X173712703Y-111497622D01*
X173712703Y-111497622D01*
G37*
D22*
X172548000Y-111796900D03*
D21*
X172548000Y-113396900D03*
D23*
X153856500Y-103685400D03*
X153856500Y-106685400D03*
D24*
X149792500Y-85246400D03*
X152792500Y-85246400D03*
D25*
X171211000Y-99403400D03*
D26*
X171211000Y-93103400D03*
X168911000Y-93103400D03*
X173511000Y-93103400D03*
D12*
X169461000Y-102588400D03*
X172761000Y-102588400D03*
D27*
X138211000Y-103391400D03*
X133631000Y-103391400D03*
D28*
X135911000Y-110791400D03*
D27*
X138261000Y-82391400D03*
X133681000Y-82391400D03*
D28*
X135961000Y-89791400D03*
D29*
X150943000Y-95586400D03*
X150943000Y-96086400D03*
X150943000Y-96586400D03*
X150943000Y-97086400D03*
X150943000Y-97586400D03*
X154043000Y-97586400D03*
X154043000Y-97086400D03*
X154043000Y-96586400D03*
X154043000Y-96086400D03*
X154043000Y-95586400D03*
D30*
X152880500Y-97206400D03*
X152880500Y-95966400D03*
X152105500Y-97206400D03*
X152105500Y-95966400D03*
D11*
X171129000Y-86753400D03*
X171129000Y-85853400D03*
D17*
X145136500Y-97692400D03*
X147336500Y-97692400D03*
X145136500Y-99724400D03*
X147336500Y-99724400D03*
D31*
X172675500Y-104874400D03*
X170775500Y-104874400D03*
X171725500Y-106874400D03*
D32*
X158555500Y-108542400D03*
X158555500Y-104042400D03*
X158555500Y-93283400D03*
X158555500Y-97783400D03*
D33*
X160805500Y-85881400D03*
X156305500Y-85881400D03*
D34*
X120201500Y-99466400D03*
D35*
X120201500Y-96926400D03*
X120201500Y-94386400D03*
D36*
X179961000Y-101976400D03*
X179961000Y-106976400D03*
X179961000Y-91976400D03*
X179961000Y-86976400D03*
D37*
X125975500Y-99651400D03*
X125975500Y-103651400D03*
X125975500Y-107017400D03*
X125975500Y-111017400D03*
X125975500Y-90983400D03*
X125975500Y-94983400D03*
X125975500Y-83395400D03*
X125975500Y-87395400D03*
D38*
X150364500Y-100740400D03*
X154364500Y-100740400D03*
X149189500Y-90834400D03*
X153189500Y-90834400D03*
D24*
X119411500Y-108852400D03*
X122411500Y-108852400D03*
X119411500Y-104026400D03*
X122411500Y-104026400D03*
X122470500Y-84937400D03*
X119470500Y-84937400D03*
X122494500Y-89763400D03*
X119494500Y-89763400D03*
D23*
X151443500Y-103685400D03*
X151443500Y-106685400D03*
D24*
X119387500Y-106439400D03*
X122387500Y-106439400D03*
D23*
X148903500Y-103685400D03*
X148903500Y-106685400D03*
D24*
X149816500Y-87659400D03*
X152816500Y-87659400D03*
X122470500Y-87350400D03*
X119470500Y-87350400D03*
X163105500Y-85629000D03*
X166105500Y-85629000D03*
X163105500Y-88118200D03*
X166105500Y-88118200D03*
D39*
X146786500Y-101502400D03*
X145686500Y-101502400D03*
X145347500Y-93755400D03*
X146447500Y-93755400D03*
D24*
X149816500Y-82833400D03*
X152816500Y-82833400D03*
X163105500Y-90607400D03*
X166105500Y-90607400D03*
D40*
X129981000Y-115043400D03*
X129981000Y-112503400D03*
X132521000Y-115043400D03*
X127441000Y-115043400D03*
X124901000Y-115043400D03*
X135061000Y-115043400D03*
X137601000Y-115043400D03*
X140141000Y-115043400D03*
X140141000Y-112503400D03*
X142681000Y-115043400D03*
X145221000Y-115043400D03*
X142681000Y-112503400D03*
X152841000Y-97771400D03*
X132521000Y-92183400D03*
X135061000Y-92183400D03*
X137601000Y-92183400D03*
X137601000Y-102343400D03*
X126805500Y-95406400D03*
X126805500Y-99216400D03*
X152079000Y-95993400D03*
X152865900Y-96882400D03*
X152865900Y-95965200D03*
X152079000Y-96882400D03*
X126166500Y-96926400D03*
X174453000Y-111796900D03*
X170643000Y-111796900D03*
X117915500Y-85246400D03*
X117915500Y-87786400D03*
X117915500Y-90326400D03*
X117915500Y-109376400D03*
X117915500Y-106836400D03*
X117915500Y-104296400D03*
X173961000Y-90853400D03*
X173961000Y-89853400D03*
X137601000Y-99803400D03*
X137601000Y-97263400D03*
X137601000Y-94723400D03*
X135061000Y-94723400D03*
X135061000Y-97263400D03*
X135061000Y-99803400D03*
X132521000Y-99803400D03*
X132521000Y-97263400D03*
X132521000Y-94723400D03*
X129981000Y-92183400D03*
X129981000Y-94723400D03*
X129981000Y-97263400D03*
X129981000Y-99803400D03*
X140141000Y-99803400D03*
X140141000Y-97263400D03*
X140141000Y-94723400D03*
X140141000Y-92183400D03*
X140141000Y-89643400D03*
X140141000Y-102343400D03*
X140141000Y-104883400D03*
X142681000Y-104883400D03*
X157667000Y-113773400D03*
X163001000Y-113773400D03*
X152333000Y-115043400D03*
X149031000Y-113011400D03*
X144586000Y-107423400D03*
X146745000Y-110217400D03*
X142046000Y-87103400D03*
X144967000Y-84055400D03*
X147507000Y-79864400D03*
X150809000Y-78721400D03*
X155635000Y-78721400D03*
X160461000Y-78721400D03*
X165287000Y-78721400D03*
X168843000Y-82531400D03*
X167282000Y-85626400D03*
X167282000Y-88039400D03*
X167282000Y-90579400D03*
X166049000Y-96247400D03*
X166176000Y-101708400D03*
X169568000Y-108105400D03*
X152105500Y-95104400D03*
X152079000Y-97771400D03*
D41*
X151725500Y-97586400D02*
X152105500Y-97206400D01*
X150943000Y-97586400D02*
X151725500Y-97586400D01*
D42*
X125975500Y-99651400D02*
X125975500Y-94983400D01*
X125975500Y-94633400D02*
X129179000Y-91429900D01*
X125975500Y-94983400D02*
X125975500Y-94633400D01*
X124703700Y-96926400D02*
X120201500Y-96926400D01*
X125975500Y-99651400D02*
X125975500Y-98198200D01*
X125975500Y-98198200D02*
X124703700Y-96926400D01*
D43*
X120201500Y-96926400D02*
X126166500Y-96926400D01*
X119470500Y-89739400D02*
X119494500Y-89763400D01*
X119470500Y-84937400D02*
X119470500Y-89739400D01*
X119411500Y-108852400D02*
X119411500Y-104026400D01*
X119796500Y-97331400D02*
X120201500Y-96926400D01*
X117641500Y-97331400D02*
X119796500Y-97331400D01*
X119054500Y-96926400D02*
X117641500Y-95513400D01*
X120201500Y-96926400D02*
X119054500Y-96926400D01*
X119062500Y-96926400D02*
X117641500Y-98347400D01*
X120201500Y-96926400D02*
X119062500Y-96926400D01*
X117641500Y-97331400D02*
X117641500Y-98347400D01*
X117641500Y-101956400D02*
X117641500Y-97077400D01*
X119411500Y-103726400D02*
X117641500Y-101956400D01*
X119411500Y-104026400D02*
X119411500Y-103726400D01*
X117641500Y-95513400D02*
X117641500Y-97077400D01*
X117641500Y-97077400D02*
X117641500Y-97331400D01*
X117641500Y-95513400D02*
X117641500Y-93686400D01*
D41*
X152105500Y-97206400D02*
X152105500Y-97206400D01*
D44*
X152105500Y-97438900D02*
X151316500Y-98227900D01*
X152105500Y-97206400D02*
X152105500Y-97438900D01*
D45*
X152053100Y-95965200D02*
X152053100Y-94873000D01*
D43*
X126166500Y-96926400D02*
X126166500Y-96926400D01*
X174453000Y-111796900D02*
X172548000Y-111796900D01*
X170643000Y-111796900D02*
X172548000Y-111796900D01*
X118887500Y-109376400D02*
X119411500Y-108852400D01*
X117915500Y-109376400D02*
X118887500Y-109376400D01*
X118990500Y-106836400D02*
X119387500Y-106439400D01*
X117915500Y-106836400D02*
X118990500Y-106836400D01*
X119141500Y-104296400D02*
X119411500Y-104026400D01*
X117915500Y-104296400D02*
X119141500Y-104296400D01*
X118931500Y-90326400D02*
X119494500Y-89763400D01*
X117915500Y-90326400D02*
X118931500Y-90326400D01*
X119034500Y-87786400D02*
X119470500Y-87350400D01*
X117915500Y-87786400D02*
X119034500Y-87786400D01*
X119161500Y-85246400D02*
X119470500Y-84937400D01*
X117915500Y-85246400D02*
X119161500Y-85246400D01*
D45*
X151975100Y-94873000D02*
X152053100Y-94873000D01*
X150601999Y-97753901D02*
X151549500Y-97753901D01*
X150548500Y-97807400D02*
X150601999Y-97753901D01*
X150969000Y-98227900D02*
X151316500Y-98227900D01*
X150548500Y-97807400D02*
X150969000Y-98227900D01*
X150548500Y-97807400D02*
X151316500Y-98575400D01*
X149538500Y-97807400D02*
X150548500Y-97807400D01*
D44*
X151147501Y-93037401D02*
X151757750Y-93647650D01*
X151147501Y-89494999D02*
X151147501Y-93037401D01*
X152105500Y-93995400D02*
X152105500Y-94876900D01*
X151865500Y-93755400D02*
X152105500Y-93995400D01*
X150364500Y-99722400D02*
X150863750Y-99223150D01*
X150364500Y-100486400D02*
X150364500Y-99722400D01*
X150364500Y-103368400D02*
X151062500Y-104066400D01*
X150364500Y-101121400D02*
X150364500Y-103368400D01*
X151443500Y-103685400D02*
X148903500Y-103685400D01*
X151443500Y-103685400D02*
X153856500Y-103685400D01*
D41*
X166105500Y-85629000D02*
X166105500Y-88118200D01*
X166105500Y-88118200D02*
X166105500Y-90607400D01*
X157480501Y-89267399D02*
X157480501Y-82771399D01*
X156294500Y-90453400D02*
X157480501Y-89267399D01*
X156269500Y-90453400D02*
X156294500Y-90453400D01*
X152816500Y-82833400D02*
X152816500Y-87659400D01*
X151722902Y-89306998D02*
X150959500Y-89306998D01*
X152816500Y-88213400D02*
X151722902Y-89306998D01*
X152816500Y-87659400D02*
X152816500Y-87959400D01*
D45*
X157426502Y-82370900D02*
X154283000Y-82370900D01*
X157673001Y-89145401D02*
X157673001Y-82617399D01*
X156281500Y-90707400D02*
X156281500Y-90536902D01*
X157673001Y-82617399D02*
X157426502Y-82370900D01*
X154283000Y-82370900D02*
X153902000Y-82751900D01*
X153025000Y-82624900D02*
X152816500Y-82833400D01*
X153775000Y-82624900D02*
X153025000Y-82624900D01*
D41*
X153902000Y-82497900D02*
X153775000Y-82624900D01*
D43*
X166105500Y-85629000D02*
X166105500Y-90607400D01*
X168885400Y-85629000D02*
X169097000Y-85417400D01*
X166105500Y-85629000D02*
X167241600Y-85629000D01*
D45*
X162461000Y-101603400D02*
X162461000Y-104768402D01*
X162461000Y-104768402D02*
X161819501Y-105409901D01*
X153856500Y-104820400D02*
X153856500Y-103685400D01*
X161819501Y-105409901D02*
X155291499Y-105409901D01*
X155291499Y-105409901D02*
X154722999Y-104841401D01*
X154722999Y-104841401D02*
X153877501Y-104841401D01*
X153877501Y-104841401D02*
X153856500Y-104820400D01*
D43*
X162073501Y-105727401D02*
X155491501Y-105727401D01*
X162461000Y-101603400D02*
X162461000Y-105339902D01*
X162461000Y-105339902D02*
X162073501Y-105727401D01*
X157823501Y-82196399D02*
X157990501Y-82363399D01*
X154787499Y-82196399D02*
X157823501Y-82196399D01*
X152816500Y-82833400D02*
X152816500Y-84167398D01*
X152816500Y-84167398D02*
X154787499Y-82196399D01*
X157990501Y-82363399D02*
X157990501Y-88815401D01*
D45*
X157331009Y-89487393D02*
X158077007Y-89487393D01*
X156713001Y-90105401D02*
X157331009Y-89487393D01*
X156713001Y-90105401D02*
X157673001Y-89145401D01*
X156281500Y-90536902D02*
X156713001Y-90105401D01*
X157990501Y-89400887D02*
X158077007Y-89487393D01*
X173961000Y-90853400D02*
X173961000Y-89853400D01*
D43*
X173961000Y-92653400D02*
X173511000Y-93103400D01*
X173961000Y-89853400D02*
X173961000Y-92653400D01*
X167241600Y-85629000D02*
X168885400Y-85629000D01*
D44*
X152105500Y-94876900D02*
X152105500Y-95966400D01*
X151816250Y-98270650D02*
X152880500Y-97206400D01*
X151757750Y-93647650D02*
X151865500Y-93755400D01*
X150863750Y-99223150D02*
X151816250Y-98270650D01*
D45*
X145136500Y-97692400D02*
X145304500Y-97692400D01*
X145304500Y-97692400D02*
X147336500Y-99724400D01*
X146786500Y-100274400D02*
X147336500Y-99724400D01*
X146786500Y-101502400D02*
X146786500Y-100274400D01*
X148454001Y-98756899D02*
X148454001Y-98556401D01*
X147336500Y-99724400D02*
X147486500Y-99724400D01*
X147486500Y-99724400D02*
X148454001Y-98756899D01*
X148454001Y-98556401D02*
X148454001Y-97692400D01*
D41*
X148261501Y-97499900D02*
X148454001Y-97692400D01*
X148261501Y-97445399D02*
X148261501Y-97499900D01*
X148649500Y-97057400D02*
X148261501Y-97445399D01*
X150943000Y-97086400D02*
X150382998Y-97086400D01*
X150382998Y-97086400D02*
X150353998Y-97057400D01*
X148454001Y-97887899D02*
X148649500Y-97692400D01*
X148454001Y-98756899D02*
X148454001Y-97887899D01*
X148649500Y-97692400D02*
X148649500Y-97311400D01*
X148903500Y-97057400D02*
X149030500Y-97057400D01*
X148649500Y-97311400D02*
X148903500Y-97057400D01*
X150353998Y-97057400D02*
X149030500Y-97057400D01*
X149030500Y-97057400D02*
X148649500Y-97057400D01*
X155952500Y-88548400D02*
X156305500Y-88548400D01*
X153539500Y-90961400D02*
X155952500Y-88548400D01*
X153189500Y-90961400D02*
X153539500Y-90961400D01*
D44*
X154166490Y-91811390D02*
X153189500Y-90834400D01*
X154043000Y-95228391D02*
X154166490Y-95228391D01*
X154460000Y-93136880D02*
X154166490Y-93430390D01*
X154460000Y-89913900D02*
X154460000Y-93136880D01*
X154166490Y-93430390D02*
X154166490Y-91811390D01*
X154166490Y-95228391D02*
X154166490Y-93430390D01*
X154460000Y-89913900D02*
X155571500Y-88802400D01*
X153539500Y-90834400D02*
X154460000Y-89913900D01*
X154166490Y-92414390D02*
X154547489Y-92795389D01*
X154166490Y-91811390D02*
X154166490Y-92414390D01*
X154547489Y-93476947D02*
X154166490Y-93857946D01*
X154547489Y-92795389D02*
X154547489Y-93476947D01*
X154166490Y-94771400D02*
X154166490Y-93857946D01*
X155375098Y-89564400D02*
X155803712Y-89564400D01*
X154547489Y-93476947D02*
X154547489Y-90392009D01*
X154547489Y-90392009D02*
X155375098Y-89564400D01*
X153189500Y-90834400D02*
X153539500Y-90834400D01*
X155571500Y-88802400D02*
X155571500Y-86615400D01*
X155571500Y-86615400D02*
X156305500Y-85881400D01*
X156305500Y-89062612D02*
X156305500Y-85881400D01*
X155803712Y-89564400D02*
X156305500Y-89062612D01*
D41*
X154890820Y-97086400D02*
X155674310Y-96302910D01*
X154043000Y-97086400D02*
X154890820Y-97086400D01*
D45*
X162461000Y-96603400D02*
X162961000Y-96103400D01*
X162461000Y-100103400D02*
X162461000Y-96603400D01*
X161876000Y-96103400D02*
X161676490Y-96302910D01*
X162961000Y-96103400D02*
X161876000Y-96103400D01*
D41*
X155674310Y-96302910D02*
X156261490Y-96302910D01*
X156261490Y-96302910D02*
X162088990Y-96302910D01*
D45*
X162160510Y-96302910D02*
X162461000Y-96603400D01*
X161160510Y-96302910D02*
X162160510Y-96302910D01*
X161160510Y-96302910D02*
X156261490Y-96302910D01*
X161676490Y-96302910D02*
X161160510Y-96302910D01*
X176867500Y-110196900D02*
X179961000Y-107103400D01*
X172548000Y-110196900D02*
X176867500Y-110196900D01*
X179961000Y-107103400D02*
X179961000Y-102103400D01*
X172675500Y-102673900D02*
X172761000Y-102588400D01*
X172675500Y-104874400D02*
X172675500Y-102673900D01*
X171707999Y-105841901D02*
X172675500Y-104874400D01*
X170976497Y-105841901D02*
X171707999Y-105841901D01*
X170548998Y-106269400D02*
X170976497Y-105841901D01*
X168933000Y-106269400D02*
X170548998Y-106269400D01*
D41*
X163105500Y-85629000D02*
X163105500Y-90607400D01*
X162773700Y-87786400D02*
X163105500Y-88118200D01*
X160805500Y-88548400D02*
X162265700Y-88548400D01*
X160805500Y-90548400D02*
X160805500Y-88548400D01*
X158555500Y-92993400D02*
X158555500Y-92798400D01*
X156555500Y-93283400D02*
X158555500Y-93283400D01*
X155455500Y-94383400D02*
X156555500Y-93283400D01*
X155455500Y-95885310D02*
X155455500Y-94383400D01*
X154754410Y-96586400D02*
X155455500Y-95885310D01*
X154043000Y-96586400D02*
X154754410Y-96586400D01*
D45*
X163105500Y-90607400D02*
X163105500Y-91390400D01*
X156827736Y-93283400D02*
X155642010Y-94469126D01*
X158555500Y-93283400D02*
X156827736Y-93283400D01*
X155642010Y-94469126D02*
X155642010Y-95660400D01*
D46*
X160226502Y-93283400D02*
X158555500Y-93283400D01*
D45*
X161526499Y-93168899D02*
X160933751Y-92576151D01*
D46*
X162111500Y-91398402D02*
X160933751Y-92576151D01*
X160933751Y-92576151D02*
X160226502Y-93283400D01*
D45*
X163105500Y-90607400D02*
X163105500Y-91497900D01*
D43*
X162961000Y-92247902D02*
X162111500Y-91398402D01*
X162961000Y-93568900D02*
X162961000Y-94353400D01*
X162675500Y-93283400D02*
X162961000Y-93568900D01*
X158555500Y-93283400D02*
X162675500Y-93283400D01*
X162961000Y-94603400D02*
X162961000Y-94353400D01*
X162961000Y-94353400D02*
X162961000Y-92247902D01*
X163105500Y-85097400D02*
X162111500Y-84103400D01*
X163105500Y-92103402D02*
X163105500Y-85097400D01*
X162961000Y-92247902D02*
X163105500Y-92103402D01*
D46*
X163961000Y-82603400D02*
X161595500Y-82603400D01*
X160805500Y-83393400D02*
X160805500Y-85881400D01*
X161595500Y-82603400D02*
X160805500Y-83393400D01*
X160805500Y-88336900D02*
X162111500Y-89642900D01*
X160805500Y-85881400D02*
X160805500Y-88336900D01*
X162111500Y-91398402D02*
X162111500Y-89642900D01*
X162111500Y-89642900D02*
X162111500Y-84103400D01*
X162461000Y-84103400D02*
X162111500Y-84103400D01*
X163961000Y-82603400D02*
X162461000Y-84103400D01*
D45*
X169261000Y-86753400D02*
X169097000Y-86917400D01*
X171129000Y-86753400D02*
X169261000Y-86753400D01*
X169097000Y-89489400D02*
X169211000Y-89603400D01*
X169097000Y-86917400D02*
X169097000Y-89489400D01*
X169211000Y-92803400D02*
X168911000Y-93103400D01*
X169211000Y-89603400D02*
X169211000Y-92803400D01*
D43*
X168911000Y-89106401D02*
X171129000Y-86888401D01*
X168911000Y-93103400D02*
X168911000Y-89106401D01*
X169211000Y-87733400D02*
X169711000Y-87233400D01*
X169211000Y-89603400D02*
X169211000Y-87733400D01*
X168911000Y-87735400D02*
X168911000Y-89106401D01*
X169413000Y-87233400D02*
X168911000Y-87735400D01*
X169711000Y-87233400D02*
X169413000Y-87233400D01*
D41*
X150943000Y-96586400D02*
X150943000Y-96414900D01*
X150943000Y-96414900D02*
X150943000Y-96086400D01*
X150943000Y-96086400D02*
X150311500Y-96086400D01*
X150163500Y-96307400D02*
X150175500Y-96295400D01*
X149538500Y-96307400D02*
X150163500Y-96307400D01*
X150175500Y-96295400D02*
X150681500Y-96295400D01*
X150801000Y-96414900D02*
X150943000Y-96414900D01*
X150681500Y-96295400D02*
X150801000Y-96414900D01*
D45*
X150601991Y-96253909D02*
X150943000Y-96253909D01*
X149538500Y-96307400D02*
X150548500Y-96307400D01*
X150548500Y-96307400D02*
X150601991Y-96253909D01*
X147336500Y-97461754D02*
X147336500Y-97692400D01*
X148490854Y-96307400D02*
X147336500Y-97461754D01*
X149538500Y-96307400D02*
X148490854Y-96307400D01*
D41*
X149189500Y-88286400D02*
X149816500Y-87659400D01*
X149189500Y-90961400D02*
X149189500Y-88540400D01*
X149816500Y-87659400D02*
X149816500Y-82833400D01*
D45*
X145136500Y-93966400D02*
X145347500Y-93755400D01*
X145136500Y-95660400D02*
X145136500Y-93966400D01*
X145347500Y-92870400D02*
X145478500Y-92739400D01*
X145347500Y-93755400D02*
X145347500Y-92870400D01*
X148839500Y-90834400D02*
X149189500Y-90834400D01*
X146934500Y-92739400D02*
X148839500Y-90834400D01*
X145478500Y-92739400D02*
X146934500Y-92739400D01*
D46*
X146113702Y-89691400D02*
X147129702Y-88675400D01*
X145347500Y-90834400D02*
X146109500Y-91596400D01*
X144971499Y-92035399D02*
X145639581Y-92035399D01*
X144713000Y-90659400D02*
X144713000Y-91776900D01*
X144713000Y-91776900D02*
X144971499Y-92035399D01*
X144713000Y-90659400D02*
X149285000Y-86087400D01*
X149285000Y-86087400D02*
X149285000Y-83364900D01*
X149816500Y-88028672D02*
X149169491Y-88675681D01*
X149285000Y-83364900D02*
X149816500Y-83896400D01*
X149816500Y-83896400D02*
X149816500Y-88028672D01*
D41*
X150785000Y-95428400D02*
X150943000Y-95586400D01*
D45*
X147379500Y-94532400D02*
X147379500Y-93755400D01*
X147336500Y-94575400D02*
X147379500Y-94532400D01*
X146447500Y-93755400D02*
X147379500Y-93755400D01*
X147379500Y-93755400D02*
X148522500Y-93755400D01*
X150312999Y-95418899D02*
X150943000Y-95418899D01*
X148522500Y-93755400D02*
X148649500Y-93755400D01*
X149022990Y-95271890D02*
X149140999Y-95389899D01*
X149140999Y-95389899D02*
X150283999Y-95389899D01*
X150283999Y-95389899D02*
X150312999Y-95418899D01*
X148522500Y-94840400D02*
X148522500Y-93755400D01*
X149071999Y-95389899D02*
X148522500Y-94840400D01*
X149140999Y-95389899D02*
X149071999Y-95389899D01*
X148156500Y-94840400D02*
X147336500Y-95660400D01*
X148522500Y-94840400D02*
X148156500Y-94840400D01*
X147336500Y-95660400D02*
X147336500Y-94941400D01*
X147887500Y-94260400D02*
X147887500Y-94390400D01*
X147382500Y-93755400D02*
X147887500Y-94260400D01*
X146447500Y-93755400D02*
X147382500Y-93755400D01*
X147336500Y-94941400D02*
X147887500Y-94390400D01*
X147887500Y-94390400D02*
X148522500Y-93755400D01*
X146516500Y-93755400D02*
X146447500Y-93755400D01*
X147336500Y-95660400D02*
X147336500Y-94575400D01*
X147336500Y-94575400D02*
X146516500Y-93755400D01*
D41*
X136231500Y-109779400D02*
X135119500Y-108667400D01*
D43*
X135404500Y-110506400D02*
X135119500Y-110791400D01*
X134893500Y-111017400D02*
X135119500Y-110791400D01*
X125975500Y-111017400D02*
X129716500Y-111017400D01*
X139365500Y-110506400D02*
X136825500Y-110506400D01*
X136825500Y-110506400D02*
X135404500Y-110506400D01*
X134796500Y-111017400D02*
X134893500Y-111017400D01*
X132256500Y-111017400D02*
X134796500Y-111017400D01*
X129716500Y-111017400D02*
X132256500Y-111017400D01*
D46*
X136231000Y-110471400D02*
X135911000Y-110791400D01*
X142801000Y-110471400D02*
X136231000Y-110471400D01*
D41*
X154067999Y-96111399D02*
X154043000Y-96086400D01*
X154344499Y-96111399D02*
X154067999Y-96111399D01*
X157769500Y-90453400D02*
X159456500Y-90453400D01*
X154018001Y-96061401D02*
X154043000Y-96086400D01*
X154642999Y-96061401D02*
X154018001Y-96061401D01*
X157769500Y-90453400D02*
X157744500Y-90453400D01*
X154999500Y-95704900D02*
X154642999Y-96061401D01*
D45*
X159456500Y-90707400D02*
X157781500Y-90707400D01*
D41*
X155445499Y-92108399D02*
X155380499Y-92173399D01*
X157005501Y-92108399D02*
X155445499Y-92108399D01*
X157781500Y-90707400D02*
X157781500Y-91332400D01*
X157781500Y-91332400D02*
X157005501Y-92108399D01*
X154999500Y-94202990D02*
X154999500Y-95704900D01*
X155380499Y-93821991D02*
X154999500Y-94202990D01*
X155380499Y-92173399D02*
X155380499Y-93821991D01*
D43*
X127835500Y-87395400D02*
X132839500Y-82391400D01*
X125975500Y-87395400D02*
X127835500Y-87395400D01*
X125975500Y-87395400D02*
X125975500Y-90983400D01*
X122470500Y-89739400D02*
X122494500Y-89763400D01*
X122470500Y-84937400D02*
X122470500Y-89739400D01*
D42*
X122515500Y-87395400D02*
X122470500Y-87350400D01*
X125975500Y-87395400D02*
X122515500Y-87395400D01*
X120501500Y-94386400D02*
X120201500Y-94386400D01*
X122494500Y-92393400D02*
X120501500Y-94386400D01*
X122494500Y-89763400D02*
X122494500Y-92393400D01*
D46*
X131775502Y-82391400D02*
X133410991Y-82391400D01*
X125975500Y-87395400D02*
X126771502Y-87395400D01*
X126771502Y-87395400D02*
X131775502Y-82391400D01*
X124928500Y-87395400D02*
X122470500Y-84937400D01*
X125975500Y-87395400D02*
X124928500Y-87395400D01*
X122470500Y-92117400D02*
X120201500Y-94386400D01*
X122470500Y-84937400D02*
X122470500Y-92117400D01*
X123604500Y-90983400D02*
X125975500Y-90983400D01*
X120201500Y-94386400D02*
X123604500Y-90983400D01*
D43*
X125975500Y-107017400D02*
X125975500Y-103651400D01*
X125975500Y-103651400D02*
X132579500Y-103651400D01*
D42*
X125600500Y-104026400D02*
X125975500Y-103651400D01*
X122411500Y-104026400D02*
X125600500Y-104026400D01*
D43*
X122411500Y-108852400D02*
X122411500Y-104026400D01*
X122411500Y-101676400D02*
X120201500Y-99466400D01*
X122411500Y-103994900D02*
X122411500Y-101644900D01*
D45*
X172760500Y-106874400D02*
X176461000Y-103173900D01*
X171725500Y-106874400D02*
X172760500Y-106874400D01*
X176461000Y-95603400D02*
X179961000Y-92103400D01*
X176461000Y-103173900D02*
X176461000Y-95603400D01*
X179961000Y-87103400D02*
X179961000Y-92103400D01*
X170004500Y-113396900D02*
X167711000Y-111103400D01*
X172548000Y-113396900D02*
X170004500Y-113396900D01*
D41*
X158555500Y-107442400D02*
X158555500Y-108542400D01*
D45*
X145136500Y-100952400D02*
X145686500Y-101502400D01*
X145136500Y-99724400D02*
X145136500Y-100952400D01*
X145686500Y-102387400D02*
X145686500Y-101502400D01*
X145686500Y-103768400D02*
X145686500Y-102387400D01*
X148603500Y-106685400D02*
X145686500Y-103768400D01*
X148903500Y-106685400D02*
X148603500Y-106685400D01*
D46*
X154944500Y-108542400D02*
X152840500Y-110646400D01*
X158555500Y-108542400D02*
X154944500Y-108542400D01*
X152840500Y-108737198D02*
X151828702Y-107725400D01*
X152840500Y-110646400D02*
X152840500Y-108737198D01*
X149175000Y-106685400D02*
X152961000Y-110471400D01*
X148903500Y-106685400D02*
X149175000Y-106685400D01*
D43*
X134744500Y-78966400D02*
X137419500Y-81641400D01*
X127884500Y-78966400D02*
X134744500Y-78966400D01*
D46*
X127884500Y-78966400D02*
X125975500Y-80875400D01*
X125975500Y-80875400D02*
X125975500Y-83395400D01*
X136006500Y-78966400D02*
X136006500Y-79461400D01*
X140972500Y-78966400D02*
X136006500Y-78966400D01*
X136006500Y-79461400D02*
X137219500Y-80674400D01*
X139737500Y-83617400D02*
X138645500Y-83617400D01*
X141155491Y-79149391D02*
X140972500Y-78966400D01*
X143362991Y-79149391D02*
X141155491Y-79149391D01*
X144713000Y-80499400D02*
X143362991Y-79149391D01*
X141595000Y-83617400D02*
X139737500Y-83617400D01*
X135652002Y-78966400D02*
X133274000Y-78966400D01*
X138261000Y-81575398D02*
X135652002Y-78966400D01*
X138261000Y-82391400D02*
X138261000Y-81575398D01*
X136006500Y-78966400D02*
X133274000Y-78966400D01*
X135652002Y-78966400D02*
X137401500Y-78966400D01*
X137401500Y-78966400D02*
X139696500Y-81261400D01*
X139696500Y-81261400D02*
X143951000Y-81261400D01*
X144713000Y-80499400D02*
X143951000Y-81261400D01*
X143951000Y-81261400D02*
X141595000Y-83617400D01*
D45*
X133937502Y-78966400D02*
X136775500Y-81804398D01*
X131641000Y-78966400D02*
X133937502Y-78966400D01*
D46*
X133274000Y-78966400D02*
X131641000Y-78966400D01*
D45*
X136775500Y-81804398D02*
X136775500Y-83610900D01*
X136775500Y-83610900D02*
X136782000Y-83617400D01*
X138261000Y-82391400D02*
X137868000Y-82391400D01*
X137290000Y-82969400D02*
X137290000Y-83617400D01*
X137868000Y-82391400D02*
X137290000Y-82969400D01*
X136782000Y-83617400D02*
X137290000Y-83617400D01*
X137290000Y-83617400D02*
X138645500Y-83617400D01*
X136782000Y-83617400D02*
X136782000Y-83807900D01*
X138664500Y-84690400D02*
X139737500Y-83617400D01*
X137664500Y-84690400D02*
X138664500Y-84690400D01*
D46*
X136006500Y-79320898D02*
X136151001Y-79465399D01*
X136006500Y-78966400D02*
X136006500Y-79320898D01*
X136151001Y-83176901D02*
X137442250Y-84468150D01*
X136151001Y-79465399D02*
X136151001Y-83176901D01*
D45*
X136782000Y-83807900D02*
X137442250Y-84468150D01*
X137442250Y-84468150D02*
X137664500Y-84690400D01*
D46*
X140744250Y-84468150D02*
X141595000Y-83617400D01*
X137442250Y-84468150D02*
X140744250Y-84468150D01*
X130054500Y-78966400D02*
X131323500Y-78966400D01*
X125975500Y-83045400D02*
X130054500Y-78966400D01*
X125975500Y-83395400D02*
X125975500Y-83045400D01*
X131641000Y-78966400D02*
X131323500Y-78966400D01*
X131323500Y-78966400D02*
X127884500Y-78966400D01*
D45*
X170775500Y-103902900D02*
X169461000Y-102588400D01*
X170775500Y-104874400D02*
X170775500Y-103902900D01*
X169461000Y-101153400D02*
X171211000Y-99403400D01*
X169461000Y-102588400D02*
X169461000Y-101153400D01*
X171211000Y-99403400D02*
X171211000Y-93103400D01*
X171211000Y-90903400D02*
X172511000Y-89603400D01*
X171211000Y-93103400D02*
X171211000Y-90903400D01*
X172511000Y-84213400D02*
X174121000Y-82603400D01*
X172511000Y-89603400D02*
X172511000Y-84213400D01*
D44*
X158936500Y-97874400D02*
X158555500Y-97493400D01*
X158936500Y-99736400D02*
X158936500Y-97874400D01*
X158555500Y-97493400D02*
X157994488Y-98054412D01*
D45*
X154269502Y-97783400D02*
X158555500Y-97783400D01*
X154108501Y-97944401D02*
X154269502Y-97783400D01*
D44*
X154364500Y-100486400D02*
X155126500Y-101248400D01*
X158555500Y-101998400D02*
X158936500Y-101617400D01*
X158555500Y-103443400D02*
X158555500Y-101617400D01*
D41*
X160089500Y-101629400D02*
X160714500Y-101629400D01*
X155603500Y-101629400D02*
X160089500Y-101629400D01*
X154714500Y-100740400D02*
X155603500Y-101629400D01*
X154364500Y-100740400D02*
X154714500Y-100740400D01*
D45*
X160702500Y-101617400D02*
X160714500Y-101629400D01*
X157158500Y-101617400D02*
X160702500Y-101617400D01*
X155241500Y-101617400D02*
X157158500Y-101617400D01*
X154364500Y-100740400D02*
X155241500Y-101617400D01*
D47*
G36*
X123648598Y-102329741D02*
G01*
X123663438Y-102349731D01*
X123681893Y-102366442D01*
X123703253Y-102379232D01*
X123726698Y-102387608D01*
X123746002Y-102390878D01*
X125143002Y-102517878D01*
X125154500Y-102518400D01*
X126805500Y-102518400D01*
X126821252Y-102517419D01*
X131894635Y-101883246D01*
X134616264Y-101830152D01*
X134616737Y-106280400D01*
X131568500Y-106280400D01*
X131543724Y-106282840D01*
X131519899Y-106290067D01*
X131505490Y-106297133D01*
X127085285Y-108822964D01*
X125462760Y-108947774D01*
X125445981Y-108950200D01*
X123030542Y-109465939D01*
X122168145Y-109468904D01*
X122105161Y-109475298D01*
X122042144Y-109481033D01*
X122038706Y-109482045D01*
X122035139Y-109482407D01*
X121974602Y-109500912D01*
X121966148Y-109503400D01*
X120963500Y-109503400D01*
X120963500Y-102899400D01*
X120961060Y-102874624D01*
X120953833Y-102850799D01*
X120942097Y-102828843D01*
X120933644Y-102817595D01*
X118931500Y-100440049D01*
X118931500Y-98853450D01*
X119183550Y-98601400D01*
X119734127Y-98601400D01*
X119796500Y-98607543D01*
X119858873Y-98601400D01*
X119858880Y-98601400D01*
X120045463Y-98583023D01*
X120050813Y-98581400D01*
X121399593Y-98581400D01*
X123648598Y-102329741D01*
X123648598Y-102329741D01*
G37*
X123648598Y-102329741D02*
X123663438Y-102349731D01*
X123681893Y-102366442D01*
X123703253Y-102379232D01*
X123726698Y-102387608D01*
X123746002Y-102390878D01*
X125143002Y-102517878D01*
X125154500Y-102518400D01*
X126805500Y-102518400D01*
X126821252Y-102517419D01*
X131894635Y-101883246D01*
X134616264Y-101830152D01*
X134616737Y-106280400D01*
X131568500Y-106280400D01*
X131543724Y-106282840D01*
X131519899Y-106290067D01*
X131505490Y-106297133D01*
X127085285Y-108822964D01*
X125462760Y-108947774D01*
X125445981Y-108950200D01*
X123030542Y-109465939D01*
X122168145Y-109468904D01*
X122105161Y-109475298D01*
X122042144Y-109481033D01*
X122038706Y-109482045D01*
X122035139Y-109482407D01*
X121974602Y-109500912D01*
X121966148Y-109503400D01*
X120963500Y-109503400D01*
X120963500Y-102899400D01*
X120961060Y-102874624D01*
X120953833Y-102850799D01*
X120942097Y-102828843D01*
X120933644Y-102817595D01*
X118931500Y-100440049D01*
X118931500Y-98853450D01*
X119183550Y-98601400D01*
X119734127Y-98601400D01*
X119796500Y-98607543D01*
X119858873Y-98601400D01*
X119858880Y-98601400D01*
X120045463Y-98583023D01*
X120050813Y-98581400D01*
X121399593Y-98581400D01*
X123648598Y-102329741D01*
G36*
X119947500Y-91650363D02*
G01*
X118554387Y-93164616D01*
X118550848Y-93169309D01*
X118546536Y-93173298D01*
X118510638Y-93222644D01*
X118473905Y-93271366D01*
X118471347Y-93276654D01*
X118467890Y-93281406D01*
X118442268Y-93336769D01*
X118415690Y-93391713D01*
X118414207Y-93397402D01*
X118411740Y-93402732D01*
X118408652Y-93411784D01*
X118262126Y-93851363D01*
X118198465Y-93928665D01*
X118184598Y-93949342D01*
X118175031Y-93972327D01*
X118170133Y-93996737D01*
X118169500Y-94009400D01*
X118169500Y-94129240D01*
X118154652Y-94173784D01*
X118151362Y-94188223D01*
X118145921Y-94201991D01*
X118136538Y-94253290D01*
X118124954Y-94304133D01*
X118124532Y-94318929D01*
X118121867Y-94333497D01*
X118122627Y-94385651D01*
X118121140Y-94437766D01*
X118123600Y-94452366D01*
X118123816Y-94467171D01*
X118134688Y-94518168D01*
X118143354Y-94569596D01*
X118148604Y-94583442D01*
X118151691Y-94597922D01*
X118154652Y-94607016D01*
X118169500Y-94651560D01*
X118169500Y-95279400D01*
X118171940Y-95304176D01*
X118179167Y-95328001D01*
X118190903Y-95349957D01*
X118206697Y-95369203D01*
X119058500Y-96221006D01*
X119058500Y-97639794D01*
X118878894Y-97819400D01*
X118804500Y-97819400D01*
X118680618Y-97831601D01*
X118561496Y-97867736D01*
X118451713Y-97926417D01*
X118355487Y-98005387D01*
X118276517Y-98101613D01*
X118217836Y-98211396D01*
X118181701Y-98330518D01*
X118169500Y-98454400D01*
X118169500Y-100867400D01*
X118171940Y-100892176D01*
X118179167Y-100916001D01*
X118196252Y-100945370D01*
X119947500Y-103196975D01*
X119947500Y-109884400D01*
X116645500Y-109884400D01*
X116645500Y-84230400D01*
X119947500Y-84230400D01*
X119947500Y-91650363D01*
X119947500Y-91650363D01*
G37*
X119947500Y-91650363D02*
X118554387Y-93164616D01*
X118550848Y-93169309D01*
X118546536Y-93173298D01*
X118510638Y-93222644D01*
X118473905Y-93271366D01*
X118471347Y-93276654D01*
X118467890Y-93281406D01*
X118442268Y-93336769D01*
X118415690Y-93391713D01*
X118414207Y-93397402D01*
X118411740Y-93402732D01*
X118408652Y-93411784D01*
X118262126Y-93851363D01*
X118198465Y-93928665D01*
X118184598Y-93949342D01*
X118175031Y-93972327D01*
X118170133Y-93996737D01*
X118169500Y-94009400D01*
X118169500Y-94129240D01*
X118154652Y-94173784D01*
X118151362Y-94188223D01*
X118145921Y-94201991D01*
X118136538Y-94253290D01*
X118124954Y-94304133D01*
X118124532Y-94318929D01*
X118121867Y-94333497D01*
X118122627Y-94385651D01*
X118121140Y-94437766D01*
X118123600Y-94452366D01*
X118123816Y-94467171D01*
X118134688Y-94518168D01*
X118143354Y-94569596D01*
X118148604Y-94583442D01*
X118151691Y-94597922D01*
X118154652Y-94607016D01*
X118169500Y-94651560D01*
X118169500Y-95279400D01*
X118171940Y-95304176D01*
X118179167Y-95328001D01*
X118190903Y-95349957D01*
X118206697Y-95369203D01*
X119058500Y-96221006D01*
X119058500Y-97639794D01*
X118878894Y-97819400D01*
X118804500Y-97819400D01*
X118680618Y-97831601D01*
X118561496Y-97867736D01*
X118451713Y-97926417D01*
X118355487Y-98005387D01*
X118276517Y-98101613D01*
X118217836Y-98211396D01*
X118181701Y-98330518D01*
X118169500Y-98454400D01*
X118169500Y-100867400D01*
X118171940Y-100892176D01*
X118179167Y-100916001D01*
X118196252Y-100945370D01*
X119947500Y-103196975D01*
X119947500Y-109884400D01*
X116645500Y-109884400D01*
X116645500Y-84230400D01*
X119947500Y-84230400D01*
X119947500Y-91650363D01*
G36*
X155221369Y-82198005D02*
G01*
X155592482Y-82393328D01*
X155455500Y-82393328D01*
X155331018Y-82405588D01*
X155211320Y-82441898D01*
X155101006Y-82500863D01*
X155004315Y-82580215D01*
X154924963Y-82676906D01*
X154865998Y-82787220D01*
X154829688Y-82906918D01*
X154817428Y-83031400D01*
X154817428Y-85753027D01*
X154802978Y-85767477D01*
X154759368Y-85803267D01*
X154616533Y-85977311D01*
X154557689Y-86087401D01*
X154510398Y-86175877D01*
X154445039Y-86391333D01*
X154422971Y-86615400D01*
X154428501Y-86671548D01*
X154428500Y-88328953D01*
X153691482Y-89065973D01*
X153647867Y-89101767D01*
X153612078Y-89145376D01*
X153461126Y-89296328D01*
X151939500Y-89296328D01*
X151815018Y-89308588D01*
X151695320Y-89344898D01*
X151585006Y-89403863D01*
X151488315Y-89483215D01*
X151408963Y-89579906D01*
X151349998Y-89690220D01*
X151313688Y-89809918D01*
X151301428Y-89934400D01*
X151301428Y-91734400D01*
X151313688Y-91858882D01*
X151349998Y-91978580D01*
X151408963Y-92088894D01*
X151488315Y-92185585D01*
X151585006Y-92264937D01*
X151695320Y-92323902D01*
X151815018Y-92360212D01*
X151939500Y-92372472D01*
X153022089Y-92372472D01*
X153017961Y-92414390D01*
X153023490Y-92470529D01*
X153023490Y-93374251D01*
X153017961Y-93430390D01*
X153023490Y-93486529D01*
X153023490Y-93801807D01*
X153017961Y-93857946D01*
X153023490Y-93914085D01*
X153023490Y-94711052D01*
X152981897Y-94788868D01*
X152916539Y-95004324D01*
X152894470Y-95228391D01*
X152899494Y-95279400D01*
X151886368Y-95279400D01*
X151881717Y-95232176D01*
X151827252Y-95052630D01*
X151738806Y-94887158D01*
X151619778Y-94742121D01*
X151474741Y-94623093D01*
X151309269Y-94534647D01*
X151129723Y-94480182D01*
X150989785Y-94466399D01*
X150520885Y-94466399D01*
X150470722Y-94451182D01*
X150330784Y-94437399D01*
X150283999Y-94432791D01*
X150250151Y-94436125D01*
X149759011Y-94221251D01*
X149760572Y-94205400D01*
X149760572Y-93305400D01*
X149748312Y-93180918D01*
X149712002Y-93061220D01*
X149653037Y-92950906D01*
X149580540Y-92862568D01*
X149550734Y-92372472D01*
X150439500Y-92372472D01*
X150563982Y-92360212D01*
X150683680Y-92323902D01*
X150708940Y-92310400D01*
X150809000Y-92310400D01*
X150833776Y-92307960D01*
X150857601Y-92300733D01*
X150879557Y-92288997D01*
X150898803Y-92273203D01*
X150914597Y-92253957D01*
X150926333Y-92232001D01*
X150933560Y-92208176D01*
X150935753Y-92191322D01*
X150939856Y-92125669D01*
X150970037Y-92088894D01*
X151029002Y-91978580D01*
X151065312Y-91858882D01*
X151077572Y-91734400D01*
X151077572Y-89934400D01*
X151077106Y-89929670D01*
X151108146Y-89433036D01*
X151170056Y-89382228D01*
X151408113Y-89092154D01*
X151585006Y-88761211D01*
X151693936Y-88402117D01*
X151721500Y-88122254D01*
X151721500Y-88122252D01*
X151730717Y-88028672D01*
X151721500Y-87935092D01*
X151721500Y-83989982D01*
X151730717Y-83896400D01*
X151693936Y-83522955D01*
X151585006Y-83163861D01*
X151508872Y-83021424D01*
X151563216Y-82151912D01*
X155221369Y-82198005D01*
X155221369Y-82198005D01*
G37*
X155221369Y-82198005D02*
X155592482Y-82393328D01*
X155455500Y-82393328D01*
X155331018Y-82405588D01*
X155211320Y-82441898D01*
X155101006Y-82500863D01*
X155004315Y-82580215D01*
X154924963Y-82676906D01*
X154865998Y-82787220D01*
X154829688Y-82906918D01*
X154817428Y-83031400D01*
X154817428Y-85753027D01*
X154802978Y-85767477D01*
X154759368Y-85803267D01*
X154616533Y-85977311D01*
X154557689Y-86087401D01*
X154510398Y-86175877D01*
X154445039Y-86391333D01*
X154422971Y-86615400D01*
X154428501Y-86671548D01*
X154428500Y-88328953D01*
X153691482Y-89065973D01*
X153647867Y-89101767D01*
X153612078Y-89145376D01*
X153461126Y-89296328D01*
X151939500Y-89296328D01*
X151815018Y-89308588D01*
X151695320Y-89344898D01*
X151585006Y-89403863D01*
X151488315Y-89483215D01*
X151408963Y-89579906D01*
X151349998Y-89690220D01*
X151313688Y-89809918D01*
X151301428Y-89934400D01*
X151301428Y-91734400D01*
X151313688Y-91858882D01*
X151349998Y-91978580D01*
X151408963Y-92088894D01*
X151488315Y-92185585D01*
X151585006Y-92264937D01*
X151695320Y-92323902D01*
X151815018Y-92360212D01*
X151939500Y-92372472D01*
X153022089Y-92372472D01*
X153017961Y-92414390D01*
X153023490Y-92470529D01*
X153023490Y-93374251D01*
X153017961Y-93430390D01*
X153023490Y-93486529D01*
X153023490Y-93801807D01*
X153017961Y-93857946D01*
X153023490Y-93914085D01*
X153023490Y-94711052D01*
X152981897Y-94788868D01*
X152916539Y-95004324D01*
X152894470Y-95228391D01*
X152899494Y-95279400D01*
X151886368Y-95279400D01*
X151881717Y-95232176D01*
X151827252Y-95052630D01*
X151738806Y-94887158D01*
X151619778Y-94742121D01*
X151474741Y-94623093D01*
X151309269Y-94534647D01*
X151129723Y-94480182D01*
X150989785Y-94466399D01*
X150520885Y-94466399D01*
X150470722Y-94451182D01*
X150330784Y-94437399D01*
X150283999Y-94432791D01*
X150250151Y-94436125D01*
X149759011Y-94221251D01*
X149760572Y-94205400D01*
X149760572Y-93305400D01*
X149748312Y-93180918D01*
X149712002Y-93061220D01*
X149653037Y-92950906D01*
X149580540Y-92862568D01*
X149550734Y-92372472D01*
X150439500Y-92372472D01*
X150563982Y-92360212D01*
X150683680Y-92323902D01*
X150708940Y-92310400D01*
X150809000Y-92310400D01*
X150833776Y-92307960D01*
X150857601Y-92300733D01*
X150879557Y-92288997D01*
X150898803Y-92273203D01*
X150914597Y-92253957D01*
X150926333Y-92232001D01*
X150933560Y-92208176D01*
X150935753Y-92191322D01*
X150939856Y-92125669D01*
X150970037Y-92088894D01*
X151029002Y-91978580D01*
X151065312Y-91858882D01*
X151077572Y-91734400D01*
X151077572Y-89934400D01*
X151077106Y-89929670D01*
X151108146Y-89433036D01*
X151170056Y-89382228D01*
X151408113Y-89092154D01*
X151585006Y-88761211D01*
X151693936Y-88402117D01*
X151721500Y-88122254D01*
X151721500Y-88122252D01*
X151730717Y-88028672D01*
X151721500Y-87935092D01*
X151721500Y-83989982D01*
X151730717Y-83896400D01*
X151693936Y-83522955D01*
X151585006Y-83163861D01*
X151508872Y-83021424D01*
X151563216Y-82151912D01*
X155221369Y-82198005D01*
G36*
X153079928Y-97561168D02*
G01*
X153079928Y-97736400D01*
X153086594Y-97804087D01*
X152220028Y-99491380D01*
X152210880Y-99514534D01*
X152206000Y-99549400D01*
X152206000Y-102343400D01*
X152208440Y-102368176D01*
X152215667Y-102392001D01*
X152227403Y-102413957D01*
X152243197Y-102433203D01*
X152262443Y-102448997D01*
X152284399Y-102460733D01*
X152308224Y-102467960D01*
X152333000Y-102470400D01*
X154745965Y-102470400D01*
X154745500Y-104169365D01*
X154745500Y-105556093D01*
X154656500Y-105547328D01*
X153056500Y-105547328D01*
X152932018Y-105559588D01*
X152812320Y-105595898D01*
X152702006Y-105654863D01*
X152655048Y-105693400D01*
X152644952Y-105693400D01*
X152597994Y-105654863D01*
X152487680Y-105595898D01*
X152367982Y-105559588D01*
X152243500Y-105547328D01*
X150731003Y-105547328D01*
X150588220Y-105404545D01*
X150528556Y-105331844D01*
X150238482Y-105093787D01*
X149907539Y-104916894D01*
X149548445Y-104807964D01*
X149268582Y-104780400D01*
X149268580Y-104780400D01*
X149175000Y-104771183D01*
X149081420Y-104780400D01*
X148809918Y-104780400D01*
X148530055Y-104807964D01*
X148179456Y-104914317D01*
X148014500Y-104749361D01*
X148014500Y-100804790D01*
X148060982Y-100800212D01*
X148180680Y-100763902D01*
X148290994Y-100704937D01*
X148387685Y-100625585D01*
X148467037Y-100528894D01*
X148526002Y-100418580D01*
X148562312Y-100298882D01*
X148574572Y-100174400D01*
X148574572Y-99983366D01*
X149094437Y-99463502D01*
X149130779Y-99433677D01*
X149249807Y-99288640D01*
X149338253Y-99123168D01*
X149392718Y-98943622D01*
X149406501Y-98803684D01*
X149406501Y-98803683D01*
X149411109Y-98756900D01*
X149406501Y-98710115D01*
X149406501Y-97817400D01*
X150174663Y-97817400D01*
X150234012Y-97835403D01*
X150345665Y-97846400D01*
X150345675Y-97846400D01*
X150382997Y-97850076D01*
X150420320Y-97846400D01*
X150441393Y-97846400D01*
X150493518Y-97862212D01*
X150618000Y-97874472D01*
X151268000Y-97874472D01*
X151392482Y-97862212D01*
X151512180Y-97825902D01*
X151622494Y-97766937D01*
X151719185Y-97687585D01*
X151798537Y-97590894D01*
X151834597Y-97523431D01*
X153079928Y-97561168D01*
X153079928Y-97561168D01*
G37*
X153079928Y-97561168D02*
X153079928Y-97736400D01*
X153086594Y-97804087D01*
X152220028Y-99491380D01*
X152210880Y-99514534D01*
X152206000Y-99549400D01*
X152206000Y-102343400D01*
X152208440Y-102368176D01*
X152215667Y-102392001D01*
X152227403Y-102413957D01*
X152243197Y-102433203D01*
X152262443Y-102448997D01*
X152284399Y-102460733D01*
X152308224Y-102467960D01*
X152333000Y-102470400D01*
X154745965Y-102470400D01*
X154745500Y-104169365D01*
X154745500Y-105556093D01*
X154656500Y-105547328D01*
X153056500Y-105547328D01*
X152932018Y-105559588D01*
X152812320Y-105595898D01*
X152702006Y-105654863D01*
X152655048Y-105693400D01*
X152644952Y-105693400D01*
X152597994Y-105654863D01*
X152487680Y-105595898D01*
X152367982Y-105559588D01*
X152243500Y-105547328D01*
X150731003Y-105547328D01*
X150588220Y-105404545D01*
X150528556Y-105331844D01*
X150238482Y-105093787D01*
X149907539Y-104916894D01*
X149548445Y-104807964D01*
X149268582Y-104780400D01*
X149268580Y-104780400D01*
X149175000Y-104771183D01*
X149081420Y-104780400D01*
X148809918Y-104780400D01*
X148530055Y-104807964D01*
X148179456Y-104914317D01*
X148014500Y-104749361D01*
X148014500Y-100804790D01*
X148060982Y-100800212D01*
X148180680Y-100763902D01*
X148290994Y-100704937D01*
X148387685Y-100625585D01*
X148467037Y-100528894D01*
X148526002Y-100418580D01*
X148562312Y-100298882D01*
X148574572Y-100174400D01*
X148574572Y-99983366D01*
X149094437Y-99463502D01*
X149130779Y-99433677D01*
X149249807Y-99288640D01*
X149338253Y-99123168D01*
X149392718Y-98943622D01*
X149406501Y-98803684D01*
X149406501Y-98803683D01*
X149411109Y-98756900D01*
X149406501Y-98710115D01*
X149406501Y-97817400D01*
X150174663Y-97817400D01*
X150234012Y-97835403D01*
X150345665Y-97846400D01*
X150345675Y-97846400D01*
X150382997Y-97850076D01*
X150420320Y-97846400D01*
X150441393Y-97846400D01*
X150493518Y-97862212D01*
X150618000Y-97874472D01*
X151268000Y-97874472D01*
X151392482Y-97862212D01*
X151512180Y-97825902D01*
X151622494Y-97766937D01*
X151719185Y-97687585D01*
X151798537Y-97590894D01*
X151834597Y-97523431D01*
X153079928Y-97561168D01*
G36*
X155895221Y-97187162D02*
G01*
X156074767Y-97241627D01*
X156214705Y-97255410D01*
X161032500Y-97255410D01*
X161032500Y-98706279D01*
X160972695Y-100486400D01*
X159114480Y-100486400D01*
X158936499Y-100468871D01*
X158758519Y-100486400D01*
X158733481Y-100486400D01*
X158555500Y-100468870D01*
X158377518Y-100486400D01*
X157447899Y-100486400D01*
X157020558Y-100232350D01*
X156775765Y-98766481D01*
X156769277Y-98742445D01*
X156758225Y-98720137D01*
X156743033Y-98700413D01*
X156724284Y-98684032D01*
X156702700Y-98671624D01*
X156682558Y-98664513D01*
X153895144Y-97937361D01*
X153901337Y-97874472D01*
X154368000Y-97874472D01*
X154492482Y-97862212D01*
X154544607Y-97846400D01*
X154853498Y-97846400D01*
X154890820Y-97850076D01*
X154928142Y-97846400D01*
X154928153Y-97846400D01*
X155039806Y-97835403D01*
X155183067Y-97791946D01*
X155315096Y-97721374D01*
X155430821Y-97626401D01*
X155454623Y-97597398D01*
X155875435Y-97176586D01*
X155895221Y-97187162D01*
X155895221Y-97187162D01*
G37*
X155895221Y-97187162D02*
X156074767Y-97241627D01*
X156214705Y-97255410D01*
X161032500Y-97255410D01*
X161032500Y-98706279D01*
X160972695Y-100486400D01*
X159114480Y-100486400D01*
X158936499Y-100468871D01*
X158758519Y-100486400D01*
X158733481Y-100486400D01*
X158555500Y-100468870D01*
X158377518Y-100486400D01*
X157447899Y-100486400D01*
X157020558Y-100232350D01*
X156775765Y-98766481D01*
X156769277Y-98742445D01*
X156758225Y-98720137D01*
X156743033Y-98700413D01*
X156724284Y-98684032D01*
X156702700Y-98671624D01*
X156682558Y-98664513D01*
X153895144Y-97937361D01*
X153901337Y-97874472D01*
X154368000Y-97874472D01*
X154492482Y-97862212D01*
X154544607Y-97846400D01*
X154853498Y-97846400D01*
X154890820Y-97850076D01*
X154928142Y-97846400D01*
X154928153Y-97846400D01*
X155039806Y-97835403D01*
X155183067Y-97791946D01*
X155315096Y-97721374D01*
X155430821Y-97626401D01*
X155454623Y-97597398D01*
X155875435Y-97176586D01*
X155895221Y-97187162D01*
G36*
X156181564Y-100720591D02*
G01*
X156193998Y-100761580D01*
X156252963Y-100871894D01*
X156332315Y-100968585D01*
X156429006Y-101047937D01*
X156465239Y-101067304D01*
X156679207Y-101328821D01*
X156696785Y-101346452D01*
X156717465Y-101360314D01*
X156740452Y-101369876D01*
X156775070Y-101375377D01*
X160778500Y-101451993D01*
X160778500Y-103105400D01*
X160782626Y-103137511D01*
X161127554Y-104457401D01*
X156450850Y-104457401D01*
X156396967Y-102086514D01*
X156393965Y-102061800D01*
X156386198Y-102038146D01*
X156373966Y-102016461D01*
X156357739Y-101997580D01*
X156333010Y-101979133D01*
X155444010Y-101471133D01*
X155421287Y-101460959D01*
X155397016Y-101455414D01*
X155378335Y-101454428D01*
X153221500Y-101499706D01*
X153221500Y-99978400D01*
X155574317Y-99978400D01*
X156181564Y-100720591D01*
X156181564Y-100720591D01*
G37*
X156181564Y-100720591D02*
X156193998Y-100761580D01*
X156252963Y-100871894D01*
X156332315Y-100968585D01*
X156429006Y-101047937D01*
X156465239Y-101067304D01*
X156679207Y-101328821D01*
X156696785Y-101346452D01*
X156717465Y-101360314D01*
X156740452Y-101369876D01*
X156775070Y-101375377D01*
X160778500Y-101451993D01*
X160778500Y-103105400D01*
X160782626Y-103137511D01*
X161127554Y-104457401D01*
X156450850Y-104457401D01*
X156396967Y-102086514D01*
X156393965Y-102061800D01*
X156386198Y-102038146D01*
X156373966Y-102016461D01*
X156357739Y-101997580D01*
X156333010Y-101979133D01*
X155444010Y-101471133D01*
X155421287Y-101460959D01*
X155397016Y-101455414D01*
X155378335Y-101454428D01*
X153221500Y-101499706D01*
X153221500Y-99978400D01*
X155574317Y-99978400D01*
X156181564Y-100720591D01*
G36*
X163508500Y-85795099D02*
G01*
X163508500Y-89691400D01*
X162619500Y-89691400D01*
X162594724Y-89693840D01*
X162570899Y-89701067D01*
X162548943Y-89712803D01*
X162529697Y-89728597D01*
X162513903Y-89747843D01*
X162502167Y-89769799D01*
X162497661Y-89782565D01*
X161245495Y-94039930D01*
X157776578Y-95350410D01*
X156214705Y-95350410D01*
X156074767Y-95364193D01*
X155895221Y-95418658D01*
X155759500Y-95491202D01*
X155759500Y-94517791D01*
X155891496Y-94385795D01*
X155920500Y-94361992D01*
X156015473Y-94246267D01*
X156086045Y-94114238D01*
X156129502Y-93970977D01*
X156140499Y-93859324D01*
X156140499Y-93859314D01*
X156144175Y-93821991D01*
X156140499Y-93784668D01*
X156140499Y-92868399D01*
X156968179Y-92868399D01*
X157005501Y-92872075D01*
X157042823Y-92868399D01*
X157042834Y-92868399D01*
X157154487Y-92857402D01*
X157297748Y-92813945D01*
X157429777Y-92743373D01*
X157545502Y-92648400D01*
X157569304Y-92619397D01*
X158292502Y-91896199D01*
X158321501Y-91872401D01*
X158416474Y-91756676D01*
X158468203Y-91659900D01*
X158817843Y-91659900D01*
X158852006Y-91687937D01*
X158962320Y-91746902D01*
X159082018Y-91783212D01*
X159206500Y-91795472D01*
X159706500Y-91795472D01*
X159830982Y-91783212D01*
X159950680Y-91746902D01*
X160060994Y-91687937D01*
X160157685Y-91608585D01*
X160237037Y-91511894D01*
X160296002Y-91401580D01*
X160332312Y-91281882D01*
X160344572Y-91157400D01*
X160344572Y-91061076D01*
X160395217Y-90894123D01*
X160413608Y-90707400D01*
X160395217Y-90520677D01*
X160344572Y-90353724D01*
X160344572Y-90257400D01*
X160332312Y-90132918D01*
X160296002Y-90013220D01*
X160237037Y-89902906D01*
X160157685Y-89806215D01*
X160079500Y-89742050D01*
X160079500Y-83214400D01*
X161665144Y-83214400D01*
X163508500Y-85795099D01*
X163508500Y-85795099D01*
G37*
X163508500Y-85795099D02*
X163508500Y-89691400D01*
X162619500Y-89691400D01*
X162594724Y-89693840D01*
X162570899Y-89701067D01*
X162548943Y-89712803D01*
X162529697Y-89728597D01*
X162513903Y-89747843D01*
X162502167Y-89769799D01*
X162497661Y-89782565D01*
X161245495Y-94039930D01*
X157776578Y-95350410D01*
X156214705Y-95350410D01*
X156074767Y-95364193D01*
X155895221Y-95418658D01*
X155759500Y-95491202D01*
X155759500Y-94517791D01*
X155891496Y-94385795D01*
X155920500Y-94361992D01*
X156015473Y-94246267D01*
X156086045Y-94114238D01*
X156129502Y-93970977D01*
X156140499Y-93859324D01*
X156140499Y-93859314D01*
X156144175Y-93821991D01*
X156140499Y-93784668D01*
X156140499Y-92868399D01*
X156968179Y-92868399D01*
X157005501Y-92872075D01*
X157042823Y-92868399D01*
X157042834Y-92868399D01*
X157154487Y-92857402D01*
X157297748Y-92813945D01*
X157429777Y-92743373D01*
X157545502Y-92648400D01*
X157569304Y-92619397D01*
X158292502Y-91896199D01*
X158321501Y-91872401D01*
X158416474Y-91756676D01*
X158468203Y-91659900D01*
X158817843Y-91659900D01*
X158852006Y-91687937D01*
X158962320Y-91746902D01*
X159082018Y-91783212D01*
X159206500Y-91795472D01*
X159706500Y-91795472D01*
X159830982Y-91783212D01*
X159950680Y-91746902D01*
X160060994Y-91687937D01*
X160157685Y-91608585D01*
X160237037Y-91511894D01*
X160296002Y-91401580D01*
X160332312Y-91281882D01*
X160344572Y-91157400D01*
X160344572Y-91061076D01*
X160395217Y-90894123D01*
X160413608Y-90707400D01*
X160395217Y-90520677D01*
X160344572Y-90353724D01*
X160344572Y-90257400D01*
X160332312Y-90132918D01*
X160296002Y-90013220D01*
X160237037Y-89902906D01*
X160157685Y-89806215D01*
X160079500Y-89742050D01*
X160079500Y-83214400D01*
X161665144Y-83214400D01*
X163508500Y-85795099D01*
G36*
X154428747Y-107431322D02*
G01*
X154432728Y-107455898D01*
X154441427Y-107479225D01*
X154454510Y-107500407D01*
X154471474Y-107518629D01*
X154491667Y-107533192D01*
X154514313Y-107543536D01*
X154538542Y-107549263D01*
X154554635Y-107550397D01*
X161476500Y-107597538D01*
X161476500Y-109376400D01*
X155658689Y-109376400D01*
X149787252Y-107055666D01*
X148961914Y-106534400D01*
X154372689Y-106534400D01*
X154428747Y-107431322D01*
X154428747Y-107431322D01*
G37*
X154428747Y-107431322D02*
X154432728Y-107455898D01*
X154441427Y-107479225D01*
X154454510Y-107500407D01*
X154471474Y-107518629D01*
X154491667Y-107533192D01*
X154514313Y-107543536D01*
X154538542Y-107549263D01*
X154554635Y-107550397D01*
X161476500Y-107597538D01*
X161476500Y-109376400D01*
X155658689Y-109376400D01*
X149787252Y-107055666D01*
X148961914Y-106534400D01*
X154372689Y-106534400D01*
X154428747Y-107431322D01*
G36*
X150173500Y-88421420D02*
G01*
X150173575Y-88892379D01*
X150086398Y-89055477D01*
X150021040Y-89270933D01*
X150004501Y-89438854D01*
X150004502Y-91421400D01*
X148396000Y-91421400D01*
X148371224Y-91423840D01*
X148347399Y-91431067D01*
X148325443Y-91442803D01*
X148304831Y-91459985D01*
X147002494Y-92802900D01*
X146563285Y-92802900D01*
X146516500Y-92798292D01*
X146469715Y-92802900D01*
X146400715Y-92802900D01*
X146260777Y-92816683D01*
X146081231Y-92871148D01*
X146075023Y-92874466D01*
X146023018Y-92879588D01*
X145903320Y-92915898D01*
X145793006Y-92974863D01*
X145770419Y-92993400D01*
X145037307Y-92993400D01*
X149331620Y-83611962D01*
X150173500Y-82460326D01*
X150173500Y-88421420D01*
X150173500Y-88421420D01*
G37*
X150173500Y-88421420D02*
X150173575Y-88892379D01*
X150086398Y-89055477D01*
X150021040Y-89270933D01*
X150004501Y-89438854D01*
X150004502Y-91421400D01*
X148396000Y-91421400D01*
X148371224Y-91423840D01*
X148347399Y-91431067D01*
X148325443Y-91442803D01*
X148304831Y-91459985D01*
X147002494Y-92802900D01*
X146563285Y-92802900D01*
X146516500Y-92798292D01*
X146469715Y-92802900D01*
X146400715Y-92802900D01*
X146260777Y-92816683D01*
X146081231Y-92871148D01*
X146075023Y-92874466D01*
X146023018Y-92879588D01*
X145903320Y-92915898D01*
X145793006Y-92974863D01*
X145770419Y-92993400D01*
X145037307Y-92993400D01*
X149331620Y-83611962D01*
X150173500Y-82460326D01*
X150173500Y-88421420D01*
G36*
X126471288Y-77685535D02*
G01*
X124694644Y-79462180D01*
X124621944Y-79521844D01*
X124383887Y-79811918D01*
X124206994Y-80142862D01*
X124098064Y-80501956D01*
X124070500Y-80781818D01*
X124061283Y-80875400D01*
X124070500Y-80968980D01*
X124070501Y-82951812D01*
X124061283Y-83045400D01*
X124070500Y-83138980D01*
X124070500Y-83488981D01*
X124098064Y-83768844D01*
X124142498Y-83915323D01*
X123883720Y-83656545D01*
X123824056Y-83583844D01*
X123533982Y-83345787D01*
X123203038Y-83168894D01*
X122843944Y-83059964D01*
X122470500Y-83023183D01*
X122097055Y-83059964D01*
X121737961Y-83168894D01*
X121407018Y-83345787D01*
X121116944Y-83583844D01*
X120878887Y-83873918D01*
X120701994Y-84204862D01*
X120593064Y-84563956D01*
X120569165Y-84806610D01*
X120556283Y-84937400D01*
X120565500Y-85030980D01*
X120565501Y-90978623D01*
X118554387Y-93164616D01*
X118550848Y-93169309D01*
X118546536Y-93173298D01*
X118510638Y-93222644D01*
X118473905Y-93271366D01*
X118471347Y-93276654D01*
X118467890Y-93281406D01*
X118442268Y-93336769D01*
X118415690Y-93391713D01*
X118414207Y-93397402D01*
X118411740Y-93402732D01*
X118408652Y-93411784D01*
X118154652Y-94173784D01*
X118151362Y-94188223D01*
X118145921Y-94201991D01*
X118136538Y-94253290D01*
X118124954Y-94304133D01*
X118124532Y-94318929D01*
X118121867Y-94333497D01*
X118122627Y-94385651D01*
X118121140Y-94437766D01*
X118123600Y-94452366D01*
X118123816Y-94467171D01*
X118134688Y-94518168D01*
X118143354Y-94569596D01*
X118148604Y-94583442D01*
X118151691Y-94597922D01*
X118154652Y-94607016D01*
X118408652Y-95369016D01*
X118409375Y-95370637D01*
X118409777Y-95372361D01*
X118436595Y-95431673D01*
X118463103Y-95491114D01*
X118464124Y-95492560D01*
X118464855Y-95494176D01*
X118502722Y-95547204D01*
X118540232Y-95600310D01*
X118541514Y-95601530D01*
X118542545Y-95602973D01*
X118589902Y-95647553D01*
X118637101Y-95692445D01*
X118638601Y-95693396D01*
X118639889Y-95694608D01*
X118647500Y-95700400D01*
X119155500Y-96081400D01*
X119168156Y-96089086D01*
X119179498Y-96098603D01*
X119225195Y-96123725D01*
X119269768Y-96150794D01*
X119283675Y-96155875D01*
X119296650Y-96163008D01*
X119346360Y-96178777D01*
X119395338Y-96196671D01*
X119409966Y-96198954D01*
X119424080Y-96203431D01*
X119475899Y-96209243D01*
X119527428Y-96217285D01*
X119542224Y-96216683D01*
X119556936Y-96218333D01*
X119566500Y-96218400D01*
X119678276Y-96218400D01*
X119828055Y-96263835D01*
X120201500Y-96300617D01*
X120574945Y-96263835D01*
X120727949Y-96217422D01*
X120735881Y-96217892D01*
X120789104Y-96210595D01*
X120842551Y-96205354D01*
X120855217Y-96201530D01*
X120868330Y-96199732D01*
X120919124Y-96182235D01*
X120970533Y-96166714D01*
X120982215Y-96160503D01*
X120994729Y-96156192D01*
X121041155Y-96129164D01*
X121088573Y-96103951D01*
X121098827Y-96095588D01*
X121110265Y-96088929D01*
X121117982Y-96083280D01*
X121246105Y-95988103D01*
X121264982Y-95978013D01*
X121315517Y-95936540D01*
X125402596Y-92900424D01*
X125570930Y-92888400D01*
X126069082Y-92888400D01*
X126240955Y-92871472D01*
X126875500Y-92871472D01*
X126999982Y-92859212D01*
X127119680Y-92822902D01*
X127229994Y-92763937D01*
X127326685Y-92684585D01*
X127380635Y-92618847D01*
X127411769Y-92593814D01*
X127429031Y-92573242D01*
X127448577Y-92554832D01*
X127471897Y-92522157D01*
X127497703Y-92491402D01*
X127510639Y-92467871D01*
X127526239Y-92446013D01*
X127542769Y-92409427D01*
X127562108Y-92374250D01*
X127570227Y-92348654D01*
X127581284Y-92324183D01*
X127590392Y-92285086D01*
X127602531Y-92246820D01*
X127605524Y-92220133D01*
X127611617Y-92193981D01*
X127612958Y-92153860D01*
X127617433Y-92113964D01*
X127617483Y-92106779D01*
X132366675Y-84693408D01*
X132436820Y-84730902D01*
X132556518Y-84767212D01*
X132681000Y-84779472D01*
X134681000Y-84779472D01*
X134805482Y-84767212D01*
X134925180Y-84730902D01*
X134981059Y-84701034D01*
X136029034Y-85749010D01*
X136088694Y-85821706D01*
X136261349Y-85963400D01*
X136378767Y-86059763D01*
X136481089Y-86114455D01*
X136709711Y-86236656D01*
X137068805Y-86345586D01*
X137348668Y-86373150D01*
X137348670Y-86373150D01*
X137442250Y-86382367D01*
X137535830Y-86373150D01*
X140650670Y-86373150D01*
X140744250Y-86382367D01*
X140837830Y-86373150D01*
X140837832Y-86373150D01*
X141117695Y-86345586D01*
X141476789Y-86236656D01*
X141807732Y-86059763D01*
X142097806Y-85821706D01*
X142157470Y-85749006D01*
X142875860Y-85030616D01*
X142948556Y-84970956D01*
X143008220Y-84898255D01*
X145231867Y-82674610D01*
X145304556Y-82614956D01*
X145364219Y-82542256D01*
X145644254Y-82262221D01*
X145653255Y-82258493D01*
X145978370Y-82041258D01*
X146254858Y-81764770D01*
X146472093Y-81439655D01*
X146621728Y-81078406D01*
X146698010Y-80694906D01*
X146698010Y-80303894D01*
X146621728Y-79920394D01*
X146472093Y-79559145D01*
X146254858Y-79234030D01*
X145978370Y-78957542D01*
X145653255Y-78740307D01*
X145644255Y-78736579D01*
X144776211Y-77868536D01*
X144716547Y-77795835D01*
X144510089Y-77626400D01*
X180896897Y-77626400D01*
X180536271Y-77867362D01*
X180224962Y-78178671D01*
X179980369Y-78544731D01*
X179811890Y-78951475D01*
X179726000Y-79383272D01*
X179726000Y-79823528D01*
X179811890Y-80255325D01*
X179980369Y-80662069D01*
X180224962Y-81028129D01*
X180536271Y-81339438D01*
X180902331Y-81584031D01*
X181309075Y-81752510D01*
X181740872Y-81838400D01*
X182181128Y-81838400D01*
X182612925Y-81752510D01*
X183019669Y-81584031D01*
X183385729Y-81339438D01*
X183697038Y-81028129D01*
X183801000Y-80872538D01*
X183801001Y-113084263D01*
X183697038Y-112928671D01*
X183385729Y-112617362D01*
X183019669Y-112372769D01*
X182612925Y-112204290D01*
X182181128Y-112118400D01*
X181740872Y-112118400D01*
X181309075Y-112204290D01*
X180902331Y-112372769D01*
X180536271Y-112617362D01*
X180224962Y-112928671D01*
X179980369Y-113294731D01*
X179811890Y-113701475D01*
X179726000Y-114133272D01*
X179726000Y-114573528D01*
X179811890Y-115005325D01*
X179980369Y-115412069D01*
X180224962Y-115778129D01*
X180536271Y-116089438D01*
X180860978Y-116306400D01*
X162594183Y-116306400D01*
X162683054Y-112018258D01*
X163458254Y-109803400D01*
X166072928Y-109803400D01*
X166072928Y-112403400D01*
X166085188Y-112527882D01*
X166121498Y-112647580D01*
X166180463Y-112757894D01*
X166259815Y-112854585D01*
X166356506Y-112933937D01*
X166403343Y-112958972D01*
X168741138Y-115530547D01*
X168858213Y-115631383D01*
X168967996Y-115690064D01*
X169087118Y-115726199D01*
X169211000Y-115738400D01*
X174211000Y-115738400D01*
X174334882Y-115726199D01*
X174454004Y-115690064D01*
X174563787Y-115631383D01*
X174660013Y-115552413D01*
X174738983Y-115456187D01*
X174797664Y-115346404D01*
X174833799Y-115227282D01*
X174846000Y-115103400D01*
X174846000Y-112603400D01*
X174833799Y-112479518D01*
X174797664Y-112360396D01*
X174738983Y-112250613D01*
X174660013Y-112154387D01*
X174563787Y-112075417D01*
X174454004Y-112016736D01*
X174334882Y-111980601D01*
X174211000Y-111968400D01*
X170587957Y-111968400D01*
X169333884Y-109669266D01*
X169300502Y-109559220D01*
X169241537Y-109448906D01*
X169162185Y-109352215D01*
X169065494Y-109272863D01*
X168955180Y-109213898D01*
X168835482Y-109177588D01*
X168711000Y-109165328D01*
X166711000Y-109165328D01*
X166586518Y-109177588D01*
X166466820Y-109213898D01*
X166356506Y-109272863D01*
X166259815Y-109352215D01*
X166180463Y-109448906D01*
X166121498Y-109559220D01*
X166085188Y-109678918D01*
X166072928Y-109803400D01*
X163458254Y-109803400D01*
X164898870Y-105687355D01*
X164904752Y-105663163D01*
X164906000Y-105645400D01*
X164906000Y-92103400D01*
X167522928Y-92103400D01*
X167522928Y-94103400D01*
X167535188Y-94227882D01*
X167571498Y-94347580D01*
X167630463Y-94457894D01*
X167709815Y-94554585D01*
X167806506Y-94633937D01*
X167916820Y-94692902D01*
X168036518Y-94729212D01*
X168161000Y-94741472D01*
X169611436Y-94741472D01*
X168601803Y-98174224D01*
X168576000Y-98353400D01*
X168576000Y-100300847D01*
X168334640Y-101749007D01*
X168326000Y-101853400D01*
X168326000Y-103353400D01*
X168330534Y-103429151D01*
X168357427Y-103550693D01*
X168407514Y-103664653D01*
X168478872Y-103766653D01*
X169737428Y-105234968D01*
X169737428Y-105316900D01*
X168886215Y-105316900D01*
X168746277Y-105330683D01*
X168566731Y-105385148D01*
X168401259Y-105473594D01*
X168396367Y-105477609D01*
X168388820Y-105479898D01*
X168278506Y-105538863D01*
X168181815Y-105618215D01*
X168102463Y-105714906D01*
X168043498Y-105825220D01*
X168007188Y-105944918D01*
X167994928Y-106069400D01*
X167994928Y-106080551D01*
X167994283Y-106082677D01*
X167975892Y-106269400D01*
X167994283Y-106456123D01*
X167994928Y-106458249D01*
X167994928Y-106469400D01*
X168007188Y-106593882D01*
X168043498Y-106713580D01*
X168102463Y-106823894D01*
X168181815Y-106920585D01*
X168278506Y-106999937D01*
X168388820Y-107058902D01*
X168396367Y-107061191D01*
X168401259Y-107065206D01*
X168566731Y-107153652D01*
X168746277Y-107208117D01*
X168886215Y-107221900D01*
X170502213Y-107221900D01*
X170548998Y-107226508D01*
X170576000Y-107223848D01*
X170576000Y-107804400D01*
X170588201Y-107928282D01*
X170624336Y-108047404D01*
X170683017Y-108157187D01*
X170761987Y-108253413D01*
X170858213Y-108332383D01*
X170967996Y-108391064D01*
X171087118Y-108427199D01*
X171211000Y-108439400D01*
X171350371Y-108439400D01*
X171338201Y-108479518D01*
X171326000Y-108603400D01*
X171326000Y-110853400D01*
X171344469Y-111005434D01*
X171385976Y-111122792D01*
X171449581Y-111229798D01*
X171532839Y-111322338D01*
X171632551Y-111396858D01*
X171744886Y-111450493D01*
X171865525Y-111481181D01*
X171989834Y-111487745D01*
X177489834Y-111237745D01*
X177563685Y-111230043D01*
X177683963Y-111197969D01*
X179672947Y-110452100D01*
X181911805Y-109705814D01*
X182064339Y-109631014D01*
X182160482Y-109551943D01*
X182239352Y-109455635D01*
X182739352Y-108705635D01*
X182785158Y-108624634D01*
X182827040Y-108507410D01*
X183077040Y-107507410D01*
X183096000Y-107353400D01*
X183096000Y-100603400D01*
X183083928Y-100480169D01*
X183047917Y-100361010D01*
X182989352Y-100251165D01*
X182489352Y-99501165D01*
X182440713Y-99437347D01*
X182350328Y-99351754D01*
X182244981Y-99285439D01*
X181244981Y-98785439D01*
X181084882Y-98730601D01*
X180961000Y-98718400D01*
X179676281Y-98718400D01*
X183445750Y-94263573D01*
X183488983Y-94206187D01*
X183547664Y-94096404D01*
X183583799Y-93977282D01*
X183596000Y-93853400D01*
X183596000Y-85603400D01*
X183583928Y-85480169D01*
X183547917Y-85361010D01*
X183489352Y-85251165D01*
X182989352Y-84501165D01*
X182933785Y-84429490D01*
X182842000Y-84345400D01*
X181842000Y-83595400D01*
X181704004Y-83516736D01*
X181584882Y-83480601D01*
X181461000Y-83468400D01*
X179211000Y-83468400D01*
X179056990Y-83487360D01*
X178056990Y-83737360D01*
X177967996Y-83766736D01*
X177858213Y-83825417D01*
X177761987Y-83904387D01*
X177346000Y-84320374D01*
X177346000Y-81603400D01*
X177341014Y-81523979D01*
X177313414Y-81402595D01*
X177063414Y-80652595D01*
X176988983Y-80500613D01*
X176910013Y-80404387D01*
X176410013Y-79904387D01*
X176275471Y-79801736D01*
X176161805Y-79750986D01*
X175411805Y-79500986D01*
X175334882Y-79480601D01*
X175211000Y-79468400D01*
X172961000Y-79468400D01*
X172837769Y-79480472D01*
X172718610Y-79516483D01*
X172608765Y-79575048D01*
X171858765Y-80075048D01*
X171761518Y-80154857D01*
X171682648Y-80251165D01*
X171182648Y-81001165D01*
X171124336Y-81110396D01*
X171088201Y-81229518D01*
X171076000Y-81353400D01*
X171076000Y-85617477D01*
X170880037Y-85636778D01*
X170640641Y-85709398D01*
X170469453Y-85800900D01*
X169307784Y-85800900D01*
X169260999Y-85796292D01*
X169214215Y-85800900D01*
X169074277Y-85814683D01*
X168894731Y-85869148D01*
X168875685Y-85879328D01*
X168722000Y-85879328D01*
X168597518Y-85891588D01*
X168477820Y-85927898D01*
X168367506Y-85986863D01*
X168270815Y-86066215D01*
X168191463Y-86162906D01*
X168132498Y-86273220D01*
X168096188Y-86392918D01*
X168083928Y-86517400D01*
X168083928Y-86766422D01*
X168057091Y-86793259D01*
X168008630Y-86833030D01*
X167849925Y-87026413D01*
X167731997Y-87247042D01*
X167687467Y-87393837D01*
X167660136Y-87483937D01*
X167659377Y-87486438D01*
X167641000Y-87673021D01*
X167641000Y-87673027D01*
X167634857Y-87735400D01*
X167641000Y-87797773D01*
X167641000Y-89044028D01*
X167634857Y-89106401D01*
X167641000Y-89168774D01*
X167641000Y-89168781D01*
X167641001Y-89168791D01*
X167641000Y-91736066D01*
X167630463Y-91748906D01*
X167571498Y-91859220D01*
X167535188Y-91978918D01*
X167522928Y-92103400D01*
X164906000Y-92103400D01*
X164906000Y-86894735D01*
X166591793Y-84834321D01*
X166605593Y-84813600D01*
X166615086Y-84790585D01*
X166619907Y-84766159D01*
X166620493Y-84752590D01*
X166587993Y-81602090D01*
X166585298Y-81577340D01*
X166574592Y-81546604D01*
X166074592Y-80546604D01*
X166061329Y-80525534D01*
X166044211Y-80507457D01*
X166017796Y-80489808D01*
X165017796Y-79989808D01*
X164994544Y-79980910D01*
X164961893Y-79976403D01*
X149961893Y-79870872D01*
X149949725Y-79871370D01*
X148765725Y-79976901D01*
X148741263Y-79981532D01*
X148718174Y-79990845D01*
X148691059Y-80009896D01*
X147875059Y-80759896D01*
X147855160Y-80783208D01*
X142778215Y-88438534D01*
X142768106Y-88456911D01*
X142374551Y-89337585D01*
X142365675Y-89365995D01*
X142175175Y-90381995D01*
X142173000Y-90405400D01*
X142173000Y-100946400D01*
X142174728Y-100967279D01*
X142365228Y-102110279D01*
X142371708Y-102134317D01*
X142378441Y-102149165D01*
X142886441Y-103101665D01*
X142894399Y-103114646D01*
X146577399Y-108385146D01*
X146586579Y-108396774D01*
X150142579Y-112397274D01*
X150151083Y-112405965D01*
X151040083Y-113231465D01*
X151059899Y-113246536D01*
X151089151Y-113259784D01*
X151914651Y-113513784D01*
X151939050Y-113518738D01*
X151955023Y-113519364D01*
X154622023Y-113455864D01*
X154646734Y-113452835D01*
X154670380Y-113445043D01*
X154684341Y-113437802D01*
X155319341Y-113056802D01*
X155339331Y-113041962D01*
X155354248Y-113025870D01*
X155781062Y-112477109D01*
X156368044Y-112183618D01*
X157163878Y-112122400D01*
X162426840Y-112122400D01*
X162340128Y-116306400D01*
X149937797Y-116306400D01*
X149934960Y-116297922D01*
X149918912Y-116244322D01*
X149913782Y-116234620D01*
X149910300Y-116224213D01*
X149882578Y-116175607D01*
X149856420Y-116126138D01*
X149849504Y-116117618D01*
X149844066Y-116108084D01*
X149838485Y-116100317D01*
X143170985Y-106956317D01*
X143138844Y-106920241D01*
X143108710Y-106882472D01*
X143094465Y-106870428D01*
X143082054Y-106856497D01*
X143043513Y-106827347D01*
X143006621Y-106796154D01*
X142990310Y-106787107D01*
X142975429Y-106775852D01*
X142931960Y-106754743D01*
X142889712Y-106731310D01*
X142871953Y-106725603D01*
X142855170Y-106717453D01*
X142808439Y-106705192D01*
X142762435Y-106690408D01*
X142743901Y-106688259D01*
X142725859Y-106683525D01*
X142677629Y-106680574D01*
X142629636Y-106675008D01*
X142620072Y-106674905D01*
X139511571Y-106663233D01*
X139411000Y-106653328D01*
X135328843Y-106653328D01*
X135330439Y-106650342D01*
X135366562Y-106531216D01*
X135378750Y-106407333D01*
X135378250Y-101700583D01*
X135363514Y-101564644D01*
X135325062Y-101446250D01*
X135264252Y-101337632D01*
X135183420Y-101242965D01*
X135085672Y-101165886D01*
X134998239Y-101121322D01*
X134985494Y-101110863D01*
X134875180Y-101051898D01*
X134755482Y-101015588D01*
X134631000Y-101003328D01*
X132631000Y-101003328D01*
X132506518Y-101015588D01*
X132386820Y-101051898D01*
X132276506Y-101110863D01*
X132273025Y-101113719D01*
X131873115Y-101121521D01*
X131806738Y-101126304D01*
X126765970Y-101756400D01*
X125183302Y-101756400D01*
X124136112Y-101661201D01*
X122109693Y-98283837D01*
X122091002Y-98222220D01*
X122032037Y-98111906D01*
X121952685Y-98015215D01*
X121855994Y-97935863D01*
X121745680Y-97876898D01*
X121625982Y-97840588D01*
X121624540Y-97840446D01*
X121595382Y-97831601D01*
X121471500Y-97819400D01*
X118804500Y-97819400D01*
X118680618Y-97831601D01*
X118561496Y-97867736D01*
X118451713Y-97926417D01*
X118355487Y-98005387D01*
X118276517Y-98101613D01*
X118217836Y-98211396D01*
X118181701Y-98330518D01*
X118169500Y-98454400D01*
X118169500Y-100486400D01*
X118173397Y-100556642D01*
X118199227Y-100678414D01*
X118248317Y-100792808D01*
X118318781Y-100895426D01*
X120201500Y-103131155D01*
X120201500Y-109630400D01*
X120213701Y-109754282D01*
X120249836Y-109873404D01*
X120308517Y-109983187D01*
X120387487Y-110079413D01*
X120483713Y-110158383D01*
X120593496Y-110217064D01*
X120712618Y-110253199D01*
X120836500Y-110265400D01*
X121485500Y-110265400D01*
X121485500Y-116306400D01*
X118486639Y-116306400D01*
X118642229Y-116202438D01*
X118953538Y-115891129D01*
X119198131Y-115525069D01*
X119366610Y-115118325D01*
X119452500Y-114686528D01*
X119452500Y-114246272D01*
X119366610Y-113814475D01*
X119198131Y-113407731D01*
X118953538Y-113041671D01*
X118642229Y-112730362D01*
X118276169Y-112485769D01*
X117869425Y-112317290D01*
X117437628Y-112231400D01*
X116997372Y-112231400D01*
X116565575Y-112317290D01*
X116158831Y-112485769D01*
X115792771Y-112730362D01*
X115481462Y-113041671D01*
X115415500Y-113140390D01*
X115415500Y-80792410D01*
X115481462Y-80891129D01*
X115792771Y-81202438D01*
X116158831Y-81447031D01*
X116565575Y-81615510D01*
X116997372Y-81701400D01*
X117437628Y-81701400D01*
X117869425Y-81615510D01*
X118276169Y-81447031D01*
X118642229Y-81202438D01*
X118953538Y-80891129D01*
X119198131Y-80525069D01*
X119366610Y-80118325D01*
X119452500Y-79686528D01*
X119452500Y-79246272D01*
X119366610Y-78814475D01*
X119198131Y-78407731D01*
X118953538Y-78041671D01*
X118642229Y-77730362D01*
X118486639Y-77626400D01*
X126519819Y-77626400D01*
X126471288Y-77685535D01*
X126471288Y-77685535D01*
G37*
X126471288Y-77685535D02*
X124694644Y-79462180D01*
X124621944Y-79521844D01*
X124383887Y-79811918D01*
X124206994Y-80142862D01*
X124098064Y-80501956D01*
X124070500Y-80781818D01*
X124061283Y-80875400D01*
X124070500Y-80968980D01*
X124070501Y-82951812D01*
X124061283Y-83045400D01*
X124070500Y-83138980D01*
X124070500Y-83488981D01*
X124098064Y-83768844D01*
X124142498Y-83915323D01*
X123883720Y-83656545D01*
X123824056Y-83583844D01*
X123533982Y-83345787D01*
X123203038Y-83168894D01*
X122843944Y-83059964D01*
X122470500Y-83023183D01*
X122097055Y-83059964D01*
X121737961Y-83168894D01*
X121407018Y-83345787D01*
X121116944Y-83583844D01*
X120878887Y-83873918D01*
X120701994Y-84204862D01*
X120593064Y-84563956D01*
X120569165Y-84806610D01*
X120556283Y-84937400D01*
X120565500Y-85030980D01*
X120565501Y-90978623D01*
X118554387Y-93164616D01*
X118550848Y-93169309D01*
X118546536Y-93173298D01*
X118510638Y-93222644D01*
X118473905Y-93271366D01*
X118471347Y-93276654D01*
X118467890Y-93281406D01*
X118442268Y-93336769D01*
X118415690Y-93391713D01*
X118414207Y-93397402D01*
X118411740Y-93402732D01*
X118408652Y-93411784D01*
X118154652Y-94173784D01*
X118151362Y-94188223D01*
X118145921Y-94201991D01*
X118136538Y-94253290D01*
X118124954Y-94304133D01*
X118124532Y-94318929D01*
X118121867Y-94333497D01*
X118122627Y-94385651D01*
X118121140Y-94437766D01*
X118123600Y-94452366D01*
X118123816Y-94467171D01*
X118134688Y-94518168D01*
X118143354Y-94569596D01*
X118148604Y-94583442D01*
X118151691Y-94597922D01*
X118154652Y-94607016D01*
X118408652Y-95369016D01*
X118409375Y-95370637D01*
X118409777Y-95372361D01*
X118436595Y-95431673D01*
X118463103Y-95491114D01*
X118464124Y-95492560D01*
X118464855Y-95494176D01*
X118502722Y-95547204D01*
X118540232Y-95600310D01*
X118541514Y-95601530D01*
X118542545Y-95602973D01*
X118589902Y-95647553D01*
X118637101Y-95692445D01*
X118638601Y-95693396D01*
X118639889Y-95694608D01*
X118647500Y-95700400D01*
X119155500Y-96081400D01*
X119168156Y-96089086D01*
X119179498Y-96098603D01*
X119225195Y-96123725D01*
X119269768Y-96150794D01*
X119283675Y-96155875D01*
X119296650Y-96163008D01*
X119346360Y-96178777D01*
X119395338Y-96196671D01*
X119409966Y-96198954D01*
X119424080Y-96203431D01*
X119475899Y-96209243D01*
X119527428Y-96217285D01*
X119542224Y-96216683D01*
X119556936Y-96218333D01*
X119566500Y-96218400D01*
X119678276Y-96218400D01*
X119828055Y-96263835D01*
X120201500Y-96300617D01*
X120574945Y-96263835D01*
X120727949Y-96217422D01*
X120735881Y-96217892D01*
X120789104Y-96210595D01*
X120842551Y-96205354D01*
X120855217Y-96201530D01*
X120868330Y-96199732D01*
X120919124Y-96182235D01*
X120970533Y-96166714D01*
X120982215Y-96160503D01*
X120994729Y-96156192D01*
X121041155Y-96129164D01*
X121088573Y-96103951D01*
X121098827Y-96095588D01*
X121110265Y-96088929D01*
X121117982Y-96083280D01*
X121246105Y-95988103D01*
X121264982Y-95978013D01*
X121315517Y-95936540D01*
X125402596Y-92900424D01*
X125570930Y-92888400D01*
X126069082Y-92888400D01*
X126240955Y-92871472D01*
X126875500Y-92871472D01*
X126999982Y-92859212D01*
X127119680Y-92822902D01*
X127229994Y-92763937D01*
X127326685Y-92684585D01*
X127380635Y-92618847D01*
X127411769Y-92593814D01*
X127429031Y-92573242D01*
X127448577Y-92554832D01*
X127471897Y-92522157D01*
X127497703Y-92491402D01*
X127510639Y-92467871D01*
X127526239Y-92446013D01*
X127542769Y-92409427D01*
X127562108Y-92374250D01*
X127570227Y-92348654D01*
X127581284Y-92324183D01*
X127590392Y-92285086D01*
X127602531Y-92246820D01*
X127605524Y-92220133D01*
X127611617Y-92193981D01*
X127612958Y-92153860D01*
X127617433Y-92113964D01*
X127617483Y-92106779D01*
X132366675Y-84693408D01*
X132436820Y-84730902D01*
X132556518Y-84767212D01*
X132681000Y-84779472D01*
X134681000Y-84779472D01*
X134805482Y-84767212D01*
X134925180Y-84730902D01*
X134981059Y-84701034D01*
X136029034Y-85749010D01*
X136088694Y-85821706D01*
X136261349Y-85963400D01*
X136378767Y-86059763D01*
X136481089Y-86114455D01*
X136709711Y-86236656D01*
X137068805Y-86345586D01*
X137348668Y-86373150D01*
X137348670Y-86373150D01*
X137442250Y-86382367D01*
X137535830Y-86373150D01*
X140650670Y-86373150D01*
X140744250Y-86382367D01*
X140837830Y-86373150D01*
X140837832Y-86373150D01*
X141117695Y-86345586D01*
X141476789Y-86236656D01*
X141807732Y-86059763D01*
X142097806Y-85821706D01*
X142157470Y-85749006D01*
X142875860Y-85030616D01*
X142948556Y-84970956D01*
X143008220Y-84898255D01*
X145231867Y-82674610D01*
X145304556Y-82614956D01*
X145364219Y-82542256D01*
X145644254Y-82262221D01*
X145653255Y-82258493D01*
X145978370Y-82041258D01*
X146254858Y-81764770D01*
X146472093Y-81439655D01*
X146621728Y-81078406D01*
X146698010Y-80694906D01*
X146698010Y-80303894D01*
X146621728Y-79920394D01*
X146472093Y-79559145D01*
X146254858Y-79234030D01*
X145978370Y-78957542D01*
X145653255Y-78740307D01*
X145644255Y-78736579D01*
X144776211Y-77868536D01*
X144716547Y-77795835D01*
X144510089Y-77626400D01*
X180896897Y-77626400D01*
X180536271Y-77867362D01*
X180224962Y-78178671D01*
X179980369Y-78544731D01*
X179811890Y-78951475D01*
X179726000Y-79383272D01*
X179726000Y-79823528D01*
X179811890Y-80255325D01*
X179980369Y-80662069D01*
X180224962Y-81028129D01*
X180536271Y-81339438D01*
X180902331Y-81584031D01*
X181309075Y-81752510D01*
X181740872Y-81838400D01*
X182181128Y-81838400D01*
X182612925Y-81752510D01*
X183019669Y-81584031D01*
X183385729Y-81339438D01*
X183697038Y-81028129D01*
X183801000Y-80872538D01*
X183801001Y-113084263D01*
X183697038Y-112928671D01*
X183385729Y-112617362D01*
X183019669Y-112372769D01*
X182612925Y-112204290D01*
X182181128Y-112118400D01*
X181740872Y-112118400D01*
X181309075Y-112204290D01*
X180902331Y-112372769D01*
X180536271Y-112617362D01*
X180224962Y-112928671D01*
X179980369Y-113294731D01*
X179811890Y-113701475D01*
X179726000Y-114133272D01*
X179726000Y-114573528D01*
X179811890Y-115005325D01*
X179980369Y-115412069D01*
X180224962Y-115778129D01*
X180536271Y-116089438D01*
X180860978Y-116306400D01*
X162594183Y-116306400D01*
X162683054Y-112018258D01*
X163458254Y-109803400D01*
X166072928Y-109803400D01*
X166072928Y-112403400D01*
X166085188Y-112527882D01*
X166121498Y-112647580D01*
X166180463Y-112757894D01*
X166259815Y-112854585D01*
X166356506Y-112933937D01*
X166403343Y-112958972D01*
X168741138Y-115530547D01*
X168858213Y-115631383D01*
X168967996Y-115690064D01*
X169087118Y-115726199D01*
X169211000Y-115738400D01*
X174211000Y-115738400D01*
X174334882Y-115726199D01*
X174454004Y-115690064D01*
X174563787Y-115631383D01*
X174660013Y-115552413D01*
X174738983Y-115456187D01*
X174797664Y-115346404D01*
X174833799Y-115227282D01*
X174846000Y-115103400D01*
X174846000Y-112603400D01*
X174833799Y-112479518D01*
X174797664Y-112360396D01*
X174738983Y-112250613D01*
X174660013Y-112154387D01*
X174563787Y-112075417D01*
X174454004Y-112016736D01*
X174334882Y-111980601D01*
X174211000Y-111968400D01*
X170587957Y-111968400D01*
X169333884Y-109669266D01*
X169300502Y-109559220D01*
X169241537Y-109448906D01*
X169162185Y-109352215D01*
X169065494Y-109272863D01*
X168955180Y-109213898D01*
X168835482Y-109177588D01*
X168711000Y-109165328D01*
X166711000Y-109165328D01*
X166586518Y-109177588D01*
X166466820Y-109213898D01*
X166356506Y-109272863D01*
X166259815Y-109352215D01*
X166180463Y-109448906D01*
X166121498Y-109559220D01*
X166085188Y-109678918D01*
X166072928Y-109803400D01*
X163458254Y-109803400D01*
X164898870Y-105687355D01*
X164904752Y-105663163D01*
X164906000Y-105645400D01*
X164906000Y-92103400D01*
X167522928Y-92103400D01*
X167522928Y-94103400D01*
X167535188Y-94227882D01*
X167571498Y-94347580D01*
X167630463Y-94457894D01*
X167709815Y-94554585D01*
X167806506Y-94633937D01*
X167916820Y-94692902D01*
X168036518Y-94729212D01*
X168161000Y-94741472D01*
X169611436Y-94741472D01*
X168601803Y-98174224D01*
X168576000Y-98353400D01*
X168576000Y-100300847D01*
X168334640Y-101749007D01*
X168326000Y-101853400D01*
X168326000Y-103353400D01*
X168330534Y-103429151D01*
X168357427Y-103550693D01*
X168407514Y-103664653D01*
X168478872Y-103766653D01*
X169737428Y-105234968D01*
X169737428Y-105316900D01*
X168886215Y-105316900D01*
X168746277Y-105330683D01*
X168566731Y-105385148D01*
X168401259Y-105473594D01*
X168396367Y-105477609D01*
X168388820Y-105479898D01*
X168278506Y-105538863D01*
X168181815Y-105618215D01*
X168102463Y-105714906D01*
X168043498Y-105825220D01*
X168007188Y-105944918D01*
X167994928Y-106069400D01*
X167994928Y-106080551D01*
X167994283Y-106082677D01*
X167975892Y-106269400D01*
X167994283Y-106456123D01*
X167994928Y-106458249D01*
X167994928Y-106469400D01*
X168007188Y-106593882D01*
X168043498Y-106713580D01*
X168102463Y-106823894D01*
X168181815Y-106920585D01*
X168278506Y-106999937D01*
X168388820Y-107058902D01*
X168396367Y-107061191D01*
X168401259Y-107065206D01*
X168566731Y-107153652D01*
X168746277Y-107208117D01*
X168886215Y-107221900D01*
X170502213Y-107221900D01*
X170548998Y-107226508D01*
X170576000Y-107223848D01*
X170576000Y-107804400D01*
X170588201Y-107928282D01*
X170624336Y-108047404D01*
X170683017Y-108157187D01*
X170761987Y-108253413D01*
X170858213Y-108332383D01*
X170967996Y-108391064D01*
X171087118Y-108427199D01*
X171211000Y-108439400D01*
X171350371Y-108439400D01*
X171338201Y-108479518D01*
X171326000Y-108603400D01*
X171326000Y-110853400D01*
X171344469Y-111005434D01*
X171385976Y-111122792D01*
X171449581Y-111229798D01*
X171532839Y-111322338D01*
X171632551Y-111396858D01*
X171744886Y-111450493D01*
X171865525Y-111481181D01*
X171989834Y-111487745D01*
X177489834Y-111237745D01*
X177563685Y-111230043D01*
X177683963Y-111197969D01*
X179672947Y-110452100D01*
X181911805Y-109705814D01*
X182064339Y-109631014D01*
X182160482Y-109551943D01*
X182239352Y-109455635D01*
X182739352Y-108705635D01*
X182785158Y-108624634D01*
X182827040Y-108507410D01*
X183077040Y-107507410D01*
X183096000Y-107353400D01*
X183096000Y-100603400D01*
X183083928Y-100480169D01*
X183047917Y-100361010D01*
X182989352Y-100251165D01*
X182489352Y-99501165D01*
X182440713Y-99437347D01*
X182350328Y-99351754D01*
X182244981Y-99285439D01*
X181244981Y-98785439D01*
X181084882Y-98730601D01*
X180961000Y-98718400D01*
X179676281Y-98718400D01*
X183445750Y-94263573D01*
X183488983Y-94206187D01*
X183547664Y-94096404D01*
X183583799Y-93977282D01*
X183596000Y-93853400D01*
X183596000Y-85603400D01*
X183583928Y-85480169D01*
X183547917Y-85361010D01*
X183489352Y-85251165D01*
X182989352Y-84501165D01*
X182933785Y-84429490D01*
X182842000Y-84345400D01*
X181842000Y-83595400D01*
X181704004Y-83516736D01*
X181584882Y-83480601D01*
X181461000Y-83468400D01*
X179211000Y-83468400D01*
X179056990Y-83487360D01*
X178056990Y-83737360D01*
X177967996Y-83766736D01*
X177858213Y-83825417D01*
X177761987Y-83904387D01*
X177346000Y-84320374D01*
X177346000Y-81603400D01*
X177341014Y-81523979D01*
X177313414Y-81402595D01*
X177063414Y-80652595D01*
X176988983Y-80500613D01*
X176910013Y-80404387D01*
X176410013Y-79904387D01*
X176275471Y-79801736D01*
X176161805Y-79750986D01*
X175411805Y-79500986D01*
X175334882Y-79480601D01*
X175211000Y-79468400D01*
X172961000Y-79468400D01*
X172837769Y-79480472D01*
X172718610Y-79516483D01*
X172608765Y-79575048D01*
X171858765Y-80075048D01*
X171761518Y-80154857D01*
X171682648Y-80251165D01*
X171182648Y-81001165D01*
X171124336Y-81110396D01*
X171088201Y-81229518D01*
X171076000Y-81353400D01*
X171076000Y-85617477D01*
X170880037Y-85636778D01*
X170640641Y-85709398D01*
X170469453Y-85800900D01*
X169307784Y-85800900D01*
X169260999Y-85796292D01*
X169214215Y-85800900D01*
X169074277Y-85814683D01*
X168894731Y-85869148D01*
X168875685Y-85879328D01*
X168722000Y-85879328D01*
X168597518Y-85891588D01*
X168477820Y-85927898D01*
X168367506Y-85986863D01*
X168270815Y-86066215D01*
X168191463Y-86162906D01*
X168132498Y-86273220D01*
X168096188Y-86392918D01*
X168083928Y-86517400D01*
X168083928Y-86766422D01*
X168057091Y-86793259D01*
X168008630Y-86833030D01*
X167849925Y-87026413D01*
X167731997Y-87247042D01*
X167687467Y-87393837D01*
X167660136Y-87483937D01*
X167659377Y-87486438D01*
X167641000Y-87673021D01*
X167641000Y-87673027D01*
X167634857Y-87735400D01*
X167641000Y-87797773D01*
X167641000Y-89044028D01*
X167634857Y-89106401D01*
X167641000Y-89168774D01*
X167641000Y-89168781D01*
X167641001Y-89168791D01*
X167641000Y-91736066D01*
X167630463Y-91748906D01*
X167571498Y-91859220D01*
X167535188Y-91978918D01*
X167522928Y-92103400D01*
X164906000Y-92103400D01*
X164906000Y-86894735D01*
X166591793Y-84834321D01*
X166605593Y-84813600D01*
X166615086Y-84790585D01*
X166619907Y-84766159D01*
X166620493Y-84752590D01*
X166587993Y-81602090D01*
X166585298Y-81577340D01*
X166574592Y-81546604D01*
X166074592Y-80546604D01*
X166061329Y-80525534D01*
X166044211Y-80507457D01*
X166017796Y-80489808D01*
X165017796Y-79989808D01*
X164994544Y-79980910D01*
X164961893Y-79976403D01*
X149961893Y-79870872D01*
X149949725Y-79871370D01*
X148765725Y-79976901D01*
X148741263Y-79981532D01*
X148718174Y-79990845D01*
X148691059Y-80009896D01*
X147875059Y-80759896D01*
X147855160Y-80783208D01*
X142778215Y-88438534D01*
X142768106Y-88456911D01*
X142374551Y-89337585D01*
X142365675Y-89365995D01*
X142175175Y-90381995D01*
X142173000Y-90405400D01*
X142173000Y-100946400D01*
X142174728Y-100967279D01*
X142365228Y-102110279D01*
X142371708Y-102134317D01*
X142378441Y-102149165D01*
X142886441Y-103101665D01*
X142894399Y-103114646D01*
X146577399Y-108385146D01*
X146586579Y-108396774D01*
X150142579Y-112397274D01*
X150151083Y-112405965D01*
X151040083Y-113231465D01*
X151059899Y-113246536D01*
X151089151Y-113259784D01*
X151914651Y-113513784D01*
X151939050Y-113518738D01*
X151955023Y-113519364D01*
X154622023Y-113455864D01*
X154646734Y-113452835D01*
X154670380Y-113445043D01*
X154684341Y-113437802D01*
X155319341Y-113056802D01*
X155339331Y-113041962D01*
X155354248Y-113025870D01*
X155781062Y-112477109D01*
X156368044Y-112183618D01*
X157163878Y-112122400D01*
X162426840Y-112122400D01*
X162340128Y-116306400D01*
X149937797Y-116306400D01*
X149934960Y-116297922D01*
X149918912Y-116244322D01*
X149913782Y-116234620D01*
X149910300Y-116224213D01*
X149882578Y-116175607D01*
X149856420Y-116126138D01*
X149849504Y-116117618D01*
X149844066Y-116108084D01*
X149838485Y-116100317D01*
X143170985Y-106956317D01*
X143138844Y-106920241D01*
X143108710Y-106882472D01*
X143094465Y-106870428D01*
X143082054Y-106856497D01*
X143043513Y-106827347D01*
X143006621Y-106796154D01*
X142990310Y-106787107D01*
X142975429Y-106775852D01*
X142931960Y-106754743D01*
X142889712Y-106731310D01*
X142871953Y-106725603D01*
X142855170Y-106717453D01*
X142808439Y-106705192D01*
X142762435Y-106690408D01*
X142743901Y-106688259D01*
X142725859Y-106683525D01*
X142677629Y-106680574D01*
X142629636Y-106675008D01*
X142620072Y-106674905D01*
X139511571Y-106663233D01*
X139411000Y-106653328D01*
X135328843Y-106653328D01*
X135330439Y-106650342D01*
X135366562Y-106531216D01*
X135378750Y-106407333D01*
X135378250Y-101700583D01*
X135363514Y-101564644D01*
X135325062Y-101446250D01*
X135264252Y-101337632D01*
X135183420Y-101242965D01*
X135085672Y-101165886D01*
X134998239Y-101121322D01*
X134985494Y-101110863D01*
X134875180Y-101051898D01*
X134755482Y-101015588D01*
X134631000Y-101003328D01*
X132631000Y-101003328D01*
X132506518Y-101015588D01*
X132386820Y-101051898D01*
X132276506Y-101110863D01*
X132273025Y-101113719D01*
X131873115Y-101121521D01*
X131806738Y-101126304D01*
X126765970Y-101756400D01*
X125183302Y-101756400D01*
X124136112Y-101661201D01*
X122109693Y-98283837D01*
X122091002Y-98222220D01*
X122032037Y-98111906D01*
X121952685Y-98015215D01*
X121855994Y-97935863D01*
X121745680Y-97876898D01*
X121625982Y-97840588D01*
X121624540Y-97840446D01*
X121595382Y-97831601D01*
X121471500Y-97819400D01*
X118804500Y-97819400D01*
X118680618Y-97831601D01*
X118561496Y-97867736D01*
X118451713Y-97926417D01*
X118355487Y-98005387D01*
X118276517Y-98101613D01*
X118217836Y-98211396D01*
X118181701Y-98330518D01*
X118169500Y-98454400D01*
X118169500Y-100486400D01*
X118173397Y-100556642D01*
X118199227Y-100678414D01*
X118248317Y-100792808D01*
X118318781Y-100895426D01*
X120201500Y-103131155D01*
X120201500Y-109630400D01*
X120213701Y-109754282D01*
X120249836Y-109873404D01*
X120308517Y-109983187D01*
X120387487Y-110079413D01*
X120483713Y-110158383D01*
X120593496Y-110217064D01*
X120712618Y-110253199D01*
X120836500Y-110265400D01*
X121485500Y-110265400D01*
X121485500Y-116306400D01*
X118486639Y-116306400D01*
X118642229Y-116202438D01*
X118953538Y-115891129D01*
X119198131Y-115525069D01*
X119366610Y-115118325D01*
X119452500Y-114686528D01*
X119452500Y-114246272D01*
X119366610Y-113814475D01*
X119198131Y-113407731D01*
X118953538Y-113041671D01*
X118642229Y-112730362D01*
X118276169Y-112485769D01*
X117869425Y-112317290D01*
X117437628Y-112231400D01*
X116997372Y-112231400D01*
X116565575Y-112317290D01*
X116158831Y-112485769D01*
X115792771Y-112730362D01*
X115481462Y-113041671D01*
X115415500Y-113140390D01*
X115415500Y-80792410D01*
X115481462Y-80891129D01*
X115792771Y-81202438D01*
X116158831Y-81447031D01*
X116565575Y-81615510D01*
X116997372Y-81701400D01*
X117437628Y-81701400D01*
X117869425Y-81615510D01*
X118276169Y-81447031D01*
X118642229Y-81202438D01*
X118953538Y-80891129D01*
X119198131Y-80525069D01*
X119366610Y-80118325D01*
X119452500Y-79686528D01*
X119452500Y-79246272D01*
X119366610Y-78814475D01*
X119198131Y-78407731D01*
X118953538Y-78041671D01*
X118642229Y-77730362D01*
X118486639Y-77626400D01*
X126519819Y-77626400D01*
X126471288Y-77685535D01*
G36*
X175892396Y-80464402D02*
G01*
X176349998Y-80922004D01*
X176584000Y-81624010D01*
X176584000Y-90333749D01*
X173357209Y-100510551D01*
X171159420Y-101487346D01*
X171137770Y-101499639D01*
X171118935Y-101515919D01*
X171103637Y-101535561D01*
X171092465Y-101557810D01*
X171085848Y-101581811D01*
X171084000Y-101603400D01*
X171084000Y-104889401D01*
X171023282Y-104889401D01*
X170976497Y-104884793D01*
X170929712Y-104889401D01*
X170789774Y-104903184D01*
X170610228Y-104957649D01*
X170575147Y-104976400D01*
X170519413Y-104976400D01*
X169088000Y-103306419D01*
X169088000Y-101863911D01*
X169336272Y-100374279D01*
X169338000Y-100353400D01*
X169338000Y-98371688D01*
X170582839Y-94139235D01*
X170588000Y-94103400D01*
X170588000Y-92126981D01*
X170597069Y-92103400D01*
X172122928Y-92103400D01*
X172122928Y-94103400D01*
X172135188Y-94227882D01*
X172171498Y-94347580D01*
X172230463Y-94457894D01*
X172309815Y-94554585D01*
X172406506Y-94633937D01*
X172516820Y-94692902D01*
X172636518Y-94729212D01*
X172761000Y-94741472D01*
X174261000Y-94741472D01*
X174385482Y-94729212D01*
X174505180Y-94692902D01*
X174615494Y-94633937D01*
X174712185Y-94554585D01*
X174791537Y-94457894D01*
X174850502Y-94347580D01*
X174886812Y-94227882D01*
X174899072Y-94103400D01*
X174899072Y-93512267D01*
X175022075Y-93362388D01*
X175140003Y-93141759D01*
X175212623Y-92902363D01*
X175231000Y-92715780D01*
X175231000Y-92715774D01*
X175237143Y-92653401D01*
X175231000Y-92591028D01*
X175231000Y-89791020D01*
X175212623Y-89604437D01*
X175140003Y-89365041D01*
X175022075Y-89144412D01*
X174863370Y-88951030D01*
X174669987Y-88792325D01*
X174449358Y-88674397D01*
X174209962Y-88601777D01*
X173961000Y-88577256D01*
X173712037Y-88601777D01*
X173472641Y-88674397D01*
X173252012Y-88792325D01*
X173058630Y-88951030D01*
X172899925Y-89144413D01*
X172781997Y-89365042D01*
X172709377Y-89604438D01*
X172691000Y-89791021D01*
X172691001Y-91472222D01*
X172636518Y-91477588D01*
X172516820Y-91513898D01*
X172406506Y-91572863D01*
X172309815Y-91652215D01*
X172230463Y-91748906D01*
X172171498Y-91859220D01*
X172135188Y-91978918D01*
X172122928Y-92103400D01*
X170597069Y-92103400D01*
X171829535Y-88898990D01*
X171836152Y-88874989D01*
X171838000Y-88853400D01*
X171838000Y-87975453D01*
X172071135Y-87742318D01*
X172190074Y-87597389D01*
X172308003Y-87376760D01*
X172380623Y-87137364D01*
X172405144Y-86888401D01*
X172380623Y-86639438D01*
X172308003Y-86400042D01*
X172190074Y-86179414D01*
X172067072Y-86029534D01*
X172067072Y-85653400D01*
X172054812Y-85528918D01*
X172018502Y-85409220D01*
X171959537Y-85298906D01*
X171880185Y-85202215D01*
X171838000Y-85167595D01*
X171838000Y-81391852D01*
X172302581Y-80694981D01*
X172999452Y-80230400D01*
X175190390Y-80230400D01*
X175892396Y-80464402D01*
X175892396Y-80464402D01*
G37*
X175892396Y-80464402D02*
X176349998Y-80922004D01*
X176584000Y-81624010D01*
X176584000Y-90333749D01*
X173357209Y-100510551D01*
X171159420Y-101487346D01*
X171137770Y-101499639D01*
X171118935Y-101515919D01*
X171103637Y-101535561D01*
X171092465Y-101557810D01*
X171085848Y-101581811D01*
X171084000Y-101603400D01*
X171084000Y-104889401D01*
X171023282Y-104889401D01*
X170976497Y-104884793D01*
X170929712Y-104889401D01*
X170789774Y-104903184D01*
X170610228Y-104957649D01*
X170575147Y-104976400D01*
X170519413Y-104976400D01*
X169088000Y-103306419D01*
X169088000Y-101863911D01*
X169336272Y-100374279D01*
X169338000Y-100353400D01*
X169338000Y-98371688D01*
X170582839Y-94139235D01*
X170588000Y-94103400D01*
X170588000Y-92126981D01*
X170597069Y-92103400D01*
X172122928Y-92103400D01*
X172122928Y-94103400D01*
X172135188Y-94227882D01*
X172171498Y-94347580D01*
X172230463Y-94457894D01*
X172309815Y-94554585D01*
X172406506Y-94633937D01*
X172516820Y-94692902D01*
X172636518Y-94729212D01*
X172761000Y-94741472D01*
X174261000Y-94741472D01*
X174385482Y-94729212D01*
X174505180Y-94692902D01*
X174615494Y-94633937D01*
X174712185Y-94554585D01*
X174791537Y-94457894D01*
X174850502Y-94347580D01*
X174886812Y-94227882D01*
X174899072Y-94103400D01*
X174899072Y-93512267D01*
X175022075Y-93362388D01*
X175140003Y-93141759D01*
X175212623Y-92902363D01*
X175231000Y-92715780D01*
X175231000Y-92715774D01*
X175237143Y-92653401D01*
X175231000Y-92591028D01*
X175231000Y-89791020D01*
X175212623Y-89604437D01*
X175140003Y-89365041D01*
X175022075Y-89144412D01*
X174863370Y-88951030D01*
X174669987Y-88792325D01*
X174449358Y-88674397D01*
X174209962Y-88601777D01*
X173961000Y-88577256D01*
X173712037Y-88601777D01*
X173472641Y-88674397D01*
X173252012Y-88792325D01*
X173058630Y-88951030D01*
X172899925Y-89144413D01*
X172781997Y-89365042D01*
X172709377Y-89604438D01*
X172691000Y-89791021D01*
X172691001Y-91472222D01*
X172636518Y-91477588D01*
X172516820Y-91513898D01*
X172406506Y-91572863D01*
X172309815Y-91652215D01*
X172230463Y-91748906D01*
X172171498Y-91859220D01*
X172135188Y-91978918D01*
X172122928Y-92103400D01*
X170597069Y-92103400D01*
X171829535Y-88898990D01*
X171836152Y-88874989D01*
X171838000Y-88853400D01*
X171838000Y-87975453D01*
X172071135Y-87742318D01*
X172190074Y-87597389D01*
X172308003Y-87376760D01*
X172380623Y-87137364D01*
X172405144Y-86888401D01*
X172380623Y-86639438D01*
X172308003Y-86400042D01*
X172190074Y-86179414D01*
X172067072Y-86029534D01*
X172067072Y-85653400D01*
X172054812Y-85528918D01*
X172018502Y-85409220D01*
X171959537Y-85298906D01*
X171880185Y-85202215D01*
X171838000Y-85167595D01*
X171838000Y-81391852D01*
X172302581Y-80694981D01*
X172999452Y-80230400D01*
X175190390Y-80230400D01*
X175892396Y-80464402D01*
G36*
X169426848Y-111431006D02*
G01*
X169391377Y-111547937D01*
X169366856Y-111796900D01*
X169391377Y-112045863D01*
X169463997Y-112285259D01*
X169581925Y-112505888D01*
X169740630Y-112699270D01*
X169934012Y-112857975D01*
X170154641Y-112975903D01*
X170394037Y-113048523D01*
X170580620Y-113066900D01*
X174084000Y-113066900D01*
X174084000Y-114976400D01*
X169267180Y-114976400D01*
X166838000Y-112304302D01*
X166838000Y-109980400D01*
X168635608Y-109980400D01*
X169426848Y-111431006D01*
X169426848Y-111431006D01*
G37*
X169426848Y-111431006D02*
X169391377Y-111547937D01*
X169366856Y-111796900D01*
X169391377Y-112045863D01*
X169463997Y-112285259D01*
X169581925Y-112505888D01*
X169740630Y-112699270D01*
X169934012Y-112857975D01*
X170154641Y-112975903D01*
X170394037Y-113048523D01*
X170580620Y-113066900D01*
X174084000Y-113066900D01*
X174084000Y-114976400D01*
X169267180Y-114976400D01*
X166838000Y-112304302D01*
X166838000Y-109980400D01*
X168635608Y-109980400D01*
X169426848Y-111431006D01*
G36*
X182367397Y-84941948D02*
G01*
X182834000Y-85641852D01*
X182834000Y-93806879D01*
X177364050Y-100271365D01*
X177349909Y-100291856D01*
X177340037Y-100314711D01*
X177334247Y-100345478D01*
X177086955Y-104302150D01*
X174119552Y-107677400D01*
X171338000Y-107677400D01*
X171338000Y-106827436D01*
X171371035Y-106794401D01*
X171661214Y-106794401D01*
X171707999Y-106799009D01*
X171754784Y-106794401D01*
X171894722Y-106780618D01*
X172074268Y-106726153D01*
X172239740Y-106637707D01*
X172384777Y-106518679D01*
X172414606Y-106482332D01*
X172416538Y-106480400D01*
X173461000Y-106480400D01*
X173485776Y-106477960D01*
X173509601Y-106470733D01*
X173531557Y-106458997D01*
X173550803Y-106443203D01*
X173566597Y-106423957D01*
X173578333Y-106402001D01*
X173585560Y-106378176D01*
X173588000Y-106353400D01*
X173588000Y-105700872D01*
X173606037Y-105678894D01*
X173665002Y-105568580D01*
X173701312Y-105448882D01*
X173713572Y-105324400D01*
X173713572Y-104424400D01*
X173701312Y-104299918D01*
X173665002Y-104180220D01*
X173628000Y-104110995D01*
X173628000Y-103667640D01*
X173662185Y-103639585D01*
X173741537Y-103542894D01*
X173800502Y-103432580D01*
X173836812Y-103312882D01*
X173849072Y-103188400D01*
X173849072Y-101988400D01*
X173836812Y-101863918D01*
X173800502Y-101744220D01*
X173741537Y-101633906D01*
X173662185Y-101537215D01*
X173588000Y-101476333D01*
X173588000Y-101373554D01*
X173638136Y-101219564D01*
X173718898Y-101183670D01*
X173857662Y-101099267D01*
X173946779Y-101012354D01*
X174017228Y-100909726D01*
X174066301Y-100795325D01*
X177316301Y-90545325D01*
X177333799Y-90477282D01*
X177346000Y-90353400D01*
X177346000Y-85504852D01*
X177559692Y-85184314D01*
X178275930Y-84468076D01*
X179226634Y-84230400D01*
X181418667Y-84230400D01*
X182367397Y-84941948D01*
X182367397Y-84941948D01*
G37*
X182367397Y-84941948D02*
X182834000Y-85641852D01*
X182834000Y-93806879D01*
X177364050Y-100271365D01*
X177349909Y-100291856D01*
X177340037Y-100314711D01*
X177334247Y-100345478D01*
X177086955Y-104302150D01*
X174119552Y-107677400D01*
X171338000Y-107677400D01*
X171338000Y-106827436D01*
X171371035Y-106794401D01*
X171661214Y-106794401D01*
X171707999Y-106799009D01*
X171754784Y-106794401D01*
X171894722Y-106780618D01*
X172074268Y-106726153D01*
X172239740Y-106637707D01*
X172384777Y-106518679D01*
X172414606Y-106482332D01*
X172416538Y-106480400D01*
X173461000Y-106480400D01*
X173485776Y-106477960D01*
X173509601Y-106470733D01*
X173531557Y-106458997D01*
X173550803Y-106443203D01*
X173566597Y-106423957D01*
X173578333Y-106402001D01*
X173585560Y-106378176D01*
X173588000Y-106353400D01*
X173588000Y-105700872D01*
X173606037Y-105678894D01*
X173665002Y-105568580D01*
X173701312Y-105448882D01*
X173713572Y-105324400D01*
X173713572Y-104424400D01*
X173701312Y-104299918D01*
X173665002Y-104180220D01*
X173628000Y-104110995D01*
X173628000Y-103667640D01*
X173662185Y-103639585D01*
X173741537Y-103542894D01*
X173800502Y-103432580D01*
X173836812Y-103312882D01*
X173849072Y-103188400D01*
X173849072Y-101988400D01*
X173836812Y-101863918D01*
X173800502Y-101744220D01*
X173741537Y-101633906D01*
X173662185Y-101537215D01*
X173588000Y-101476333D01*
X173588000Y-101373554D01*
X173638136Y-101219564D01*
X173718898Y-101183670D01*
X173857662Y-101099267D01*
X173946779Y-101012354D01*
X174017228Y-100909726D01*
X174066301Y-100795325D01*
X177316301Y-90545325D01*
X177333799Y-90477282D01*
X177346000Y-90353400D01*
X177346000Y-85504852D01*
X177559692Y-85184314D01*
X178275930Y-84468076D01*
X179226634Y-84230400D01*
X181418667Y-84230400D01*
X182367397Y-84941948D01*
G36*
X181874038Y-99951909D02*
G01*
X182334000Y-100641852D01*
X182334000Y-107337766D01*
X182093127Y-108301257D01*
X181629501Y-108996696D01*
X179420839Y-109732917D01*
X179416407Y-109734486D01*
X177435191Y-110477442D01*
X174863667Y-110594329D01*
X174701963Y-110545277D01*
X174515380Y-110526900D01*
X172088000Y-110526900D01*
X172088000Y-108730400D01*
X174461000Y-108730400D01*
X174485776Y-108727960D01*
X174509601Y-108720733D01*
X174531557Y-108708997D01*
X174550803Y-108693203D01*
X175050803Y-108193203D01*
X175060862Y-108181863D01*
X177810862Y-104681863D01*
X177824251Y-104660873D01*
X177833287Y-104637675D01*
X177837360Y-104616131D01*
X178236794Y-100651524D01*
X178710949Y-100023362D01*
X179500455Y-99480400D01*
X180931020Y-99480400D01*
X181874038Y-99951909D01*
X181874038Y-99951909D01*
G37*
X181874038Y-99951909D02*
X182334000Y-100641852D01*
X182334000Y-107337766D01*
X182093127Y-108301257D01*
X181629501Y-108996696D01*
X179420839Y-109732917D01*
X179416407Y-109734486D01*
X177435191Y-110477442D01*
X174863667Y-110594329D01*
X174701963Y-110545277D01*
X174515380Y-110526900D01*
X172088000Y-110526900D01*
X172088000Y-108730400D01*
X174461000Y-108730400D01*
X174485776Y-108727960D01*
X174509601Y-108720733D01*
X174531557Y-108708997D01*
X174550803Y-108693203D01*
X175050803Y-108193203D01*
X175060862Y-108181863D01*
X177810862Y-104681863D01*
X177824251Y-104660873D01*
X177833287Y-104637675D01*
X177837360Y-104616131D01*
X178236794Y-100651524D01*
X178710949Y-100023362D01*
X179500455Y-99480400D01*
X180931020Y-99480400D01*
X181874038Y-99951909D01*
M02*
