G04 #@! TF.GenerationSoftware,KiCad,Pcbnew,(5.1.4)-1*
G04 #@! TF.CreationDate,2021-02-21T00:25:35+00:00*
G04 #@! TF.ProjectId,5v_to_bipolar15v_PSU,35765f74-6f5f-4626-9970-6f6c61723135,rev?*
G04 #@! TF.SameCoordinates,Original*
G04 #@! TF.FileFunction,Legend,Bot*
G04 #@! TF.FilePolarity,Positive*
%FSLAX46Y46*%
G04 Gerber Fmt 4.6, Leading zero omitted, Abs format (unit mm)*
G04 Created by KiCad (PCBNEW (5.1.4)-1) date 2021-02-21 00:25:35*
%MOMM*%
%LPD*%
G04 APERTURE LIST*
%ADD10C,0.150000*%
G04 APERTURE END LIST*
D10*
X133674047Y-78220780D02*
X133674047Y-78935066D01*
X133721666Y-79077923D01*
X133816904Y-79173161D01*
X133959761Y-79220780D01*
X134055000Y-79220780D01*
X132721666Y-79220780D02*
X133197857Y-79220780D01*
X133197857Y-78220780D01*
X131816904Y-79125542D02*
X131864523Y-79173161D01*
X132007380Y-79220780D01*
X132102619Y-79220780D01*
X132245476Y-79173161D01*
X132340714Y-79077923D01*
X132388333Y-78982685D01*
X132435952Y-78792209D01*
X132435952Y-78649352D01*
X132388333Y-78458876D01*
X132340714Y-78363638D01*
X132245476Y-78268400D01*
X132102619Y-78220780D01*
X132007380Y-78220780D01*
X131864523Y-78268400D01*
X131816904Y-78316019D01*
X131102619Y-78220780D02*
X131102619Y-78935066D01*
X131150238Y-79077923D01*
X131245476Y-79173161D01*
X131388333Y-79220780D01*
X131483571Y-79220780D01*
X130150238Y-79220780D02*
X130626428Y-79220780D01*
X130626428Y-78220780D01*
X129245476Y-79125542D02*
X129293095Y-79173161D01*
X129435952Y-79220780D01*
X129531190Y-79220780D01*
X129674047Y-79173161D01*
X129769285Y-79077923D01*
X129816904Y-78982685D01*
X129864523Y-78792209D01*
X129864523Y-78649352D01*
X129816904Y-78458876D01*
X129769285Y-78363638D01*
X129674047Y-78268400D01*
X129531190Y-78220780D01*
X129435952Y-78220780D01*
X129293095Y-78268400D01*
X129245476Y-78316019D01*
X128531190Y-78220780D02*
X128531190Y-78935066D01*
X128578809Y-79077923D01*
X128674047Y-79173161D01*
X128816904Y-79220780D01*
X128912142Y-79220780D01*
X127578809Y-79220780D02*
X128055000Y-79220780D01*
X128055000Y-78220780D01*
X126674047Y-79125542D02*
X126721666Y-79173161D01*
X126864523Y-79220780D01*
X126959761Y-79220780D01*
X127102619Y-79173161D01*
X127197857Y-79077923D01*
X127245476Y-78982685D01*
X127293095Y-78792209D01*
X127293095Y-78649352D01*
X127245476Y-78458876D01*
X127197857Y-78363638D01*
X127102619Y-78268400D01*
X126959761Y-78220780D01*
X126864523Y-78220780D01*
X126721666Y-78268400D01*
X126674047Y-78316019D01*
X125959761Y-78220780D02*
X125959761Y-78935066D01*
X126007380Y-79077923D01*
X126102619Y-79173161D01*
X126245476Y-79220780D01*
X126340714Y-79220780D01*
X125007380Y-79220780D02*
X125483571Y-79220780D01*
X125483571Y-78220780D01*
X124102619Y-79125542D02*
X124150238Y-79173161D01*
X124293095Y-79220780D01*
X124388333Y-79220780D01*
X124531190Y-79173161D01*
X124626428Y-79077923D01*
X124674047Y-78982685D01*
X124721666Y-78792209D01*
X124721666Y-78649352D01*
X124674047Y-78458876D01*
X124626428Y-78363638D01*
X124531190Y-78268400D01*
X124388333Y-78220780D01*
X124293095Y-78220780D01*
X124150238Y-78268400D01*
X124102619Y-78316019D01*
M02*
