%FSLAX45Y45*%
G04 Gerber Fmt 4.5, Leading zero omitted, Abs format (unit mm)*
G04 Created by KiCad (PCBNEW (5.1.4)-1) date 2021-02-21 00:24:14*
%MOMM*%
%LPD*%
G04 APERTURE LIST*
%ADD10C,0.050000*%
%ADD11C,0.200000*%
%ADD12C,0.300000*%
G04 APERTURE END LIST*
D10*
X11475550Y-7696640D02*
X18446100Y-7696640D01*
X11475550Y-11696640D02*
X11475550Y-7696640D01*
X18446100Y-11696640D02*
X11475550Y-11696640D01*
X18446100Y-7696640D02*
X18446100Y-11696640D01*
D11*
X18036100Y-11275340D02*
X18356100Y-11595340D01*
X18356100Y-11275340D02*
X18036100Y-11595340D01*
X11561750Y-11286640D02*
X11881750Y-11606640D01*
X11881750Y-11286640D02*
X11561750Y-11606640D01*
X18036100Y-7800340D02*
X18356100Y-8120340D01*
X18356100Y-7800340D02*
X18036100Y-8120340D01*
X11561750Y-7786640D02*
X11881750Y-8106640D01*
X11881750Y-7786640D02*
X11561750Y-8106640D01*
D12*
X11759478Y-12164854D02*
X11759478Y-11864854D01*
X11830907Y-11864854D01*
X11873764Y-11879140D01*
X11902336Y-11907711D01*
X11916621Y-11936283D01*
X11930907Y-11993426D01*
X11930907Y-12036283D01*
X11916621Y-12093426D01*
X11902336Y-12121997D01*
X11873764Y-12150569D01*
X11830907Y-12164854D01*
X11759478Y-12164854D01*
X12059478Y-12164854D02*
X12059478Y-11964854D01*
X12059478Y-12021997D02*
X12073764Y-11993426D01*
X12088050Y-11979140D01*
X12116621Y-11964854D01*
X12145193Y-11964854D01*
X12245193Y-12164854D02*
X12245193Y-11964854D01*
X12245193Y-11864854D02*
X12230907Y-11879140D01*
X12245193Y-11893426D01*
X12259478Y-11879140D01*
X12245193Y-11864854D01*
X12245193Y-11893426D01*
X12430907Y-12164854D02*
X12402336Y-12150569D01*
X12388050Y-12121997D01*
X12388050Y-11864854D01*
X12588050Y-12164854D02*
X12559478Y-12150569D01*
X12545193Y-12121997D01*
X12545193Y-11864854D01*
X12930907Y-12164854D02*
X12930907Y-11864854D01*
X13030907Y-12079140D01*
X13130907Y-11864854D01*
X13130907Y-12164854D01*
X13402336Y-12164854D02*
X13402336Y-12007711D01*
X13388050Y-11979140D01*
X13359478Y-11964854D01*
X13302336Y-11964854D01*
X13273764Y-11979140D01*
X13402336Y-12150569D02*
X13373764Y-12164854D01*
X13302336Y-12164854D01*
X13273764Y-12150569D01*
X13259478Y-12121997D01*
X13259478Y-12093426D01*
X13273764Y-12064854D01*
X13302336Y-12050569D01*
X13373764Y-12050569D01*
X13402336Y-12036283D01*
X13545193Y-11964854D02*
X13545193Y-12264854D01*
X13545193Y-11979140D02*
X13573764Y-11964854D01*
X13630907Y-11964854D01*
X13659478Y-11979140D01*
X13673764Y-11993426D01*
X13688050Y-12021997D01*
X13688050Y-12107711D01*
X13673764Y-12136283D01*
X13659478Y-12150569D01*
X13630907Y-12164854D01*
X13573764Y-12164854D01*
X13545193Y-12150569D01*
X13816621Y-12136283D02*
X13830907Y-12150569D01*
X13816621Y-12164854D01*
X13802336Y-12150569D01*
X13816621Y-12136283D01*
X13816621Y-12164854D01*
X13816621Y-11979140D02*
X13830907Y-11993426D01*
X13816621Y-12007711D01*
X13802336Y-11993426D01*
X13816621Y-11979140D01*
X13816621Y-12007711D01*
X11153050Y-12499140D02*
X11473050Y-12819140D01*
X11473050Y-12499140D02*
X11153050Y-12819140D01*
X11730907Y-12494854D02*
X11916621Y-12494854D01*
X11816621Y-12609140D01*
X11859478Y-12609140D01*
X11888050Y-12623426D01*
X11902336Y-12637711D01*
X11916621Y-12666283D01*
X11916621Y-12737711D01*
X11902336Y-12766283D01*
X11888050Y-12780569D01*
X11859478Y-12794854D01*
X11773764Y-12794854D01*
X11745193Y-12780569D01*
X11730907Y-12766283D01*
X12045193Y-12766283D02*
X12059478Y-12780569D01*
X12045193Y-12794854D01*
X12030907Y-12780569D01*
X12045193Y-12766283D01*
X12045193Y-12794854D01*
X12173764Y-12523426D02*
X12188050Y-12509140D01*
X12216621Y-12494854D01*
X12288050Y-12494854D01*
X12316621Y-12509140D01*
X12330907Y-12523426D01*
X12345193Y-12551997D01*
X12345193Y-12580569D01*
X12330907Y-12623426D01*
X12159478Y-12794854D01*
X12345193Y-12794854D01*
X12530907Y-12494854D02*
X12559478Y-12494854D01*
X12588050Y-12509140D01*
X12602336Y-12523426D01*
X12616621Y-12551997D01*
X12630907Y-12609140D01*
X12630907Y-12680569D01*
X12616621Y-12737711D01*
X12602336Y-12766283D01*
X12588050Y-12780569D01*
X12559478Y-12794854D01*
X12530907Y-12794854D01*
X12502336Y-12780569D01*
X12488050Y-12766283D01*
X12473764Y-12737711D01*
X12459478Y-12680569D01*
X12459478Y-12609140D01*
X12473764Y-12551997D01*
X12488050Y-12523426D01*
X12502336Y-12509140D01*
X12530907Y-12494854D01*
X12759478Y-12794854D02*
X12759478Y-12594854D01*
X12759478Y-12623426D02*
X12773764Y-12609140D01*
X12802336Y-12594854D01*
X12845193Y-12594854D01*
X12873764Y-12609140D01*
X12888050Y-12637711D01*
X12888050Y-12794854D01*
X12888050Y-12637711D02*
X12902336Y-12609140D01*
X12930907Y-12594854D01*
X12973764Y-12594854D01*
X13002336Y-12609140D01*
X13016621Y-12637711D01*
X13016621Y-12794854D01*
X13159478Y-12794854D02*
X13159478Y-12594854D01*
X13159478Y-12623426D02*
X13173764Y-12609140D01*
X13202336Y-12594854D01*
X13245193Y-12594854D01*
X13273764Y-12609140D01*
X13288050Y-12637711D01*
X13288050Y-12794854D01*
X13288050Y-12637711D02*
X13302336Y-12609140D01*
X13330907Y-12594854D01*
X13373764Y-12594854D01*
X13402336Y-12609140D01*
X13416621Y-12637711D01*
X13416621Y-12794854D01*
X14002336Y-12480569D02*
X13745193Y-12866283D01*
X14388050Y-12494854D02*
X14416621Y-12494854D01*
X14445193Y-12509140D01*
X14459478Y-12523426D01*
X14473764Y-12551997D01*
X14488050Y-12609140D01*
X14488050Y-12680569D01*
X14473764Y-12737711D01*
X14459478Y-12766283D01*
X14445193Y-12780569D01*
X14416621Y-12794854D01*
X14388050Y-12794854D01*
X14359478Y-12780569D01*
X14345193Y-12766283D01*
X14330907Y-12737711D01*
X14316621Y-12680569D01*
X14316621Y-12609140D01*
X14330907Y-12551997D01*
X14345193Y-12523426D01*
X14359478Y-12509140D01*
X14388050Y-12494854D01*
X14616621Y-12766283D02*
X14630907Y-12780569D01*
X14616621Y-12794854D01*
X14602336Y-12780569D01*
X14616621Y-12766283D01*
X14616621Y-12794854D01*
X14916621Y-12794854D02*
X14745193Y-12794854D01*
X14830907Y-12794854D02*
X14830907Y-12494854D01*
X14802336Y-12537711D01*
X14773764Y-12566283D01*
X14745193Y-12580569D01*
X15030907Y-12523426D02*
X15045193Y-12509140D01*
X15073764Y-12494854D01*
X15145193Y-12494854D01*
X15173764Y-12509140D01*
X15188050Y-12523426D01*
X15202336Y-12551997D01*
X15202336Y-12580569D01*
X15188050Y-12623426D01*
X15016621Y-12794854D01*
X15202336Y-12794854D01*
X15459478Y-12494854D02*
X15402336Y-12494854D01*
X15373764Y-12509140D01*
X15359478Y-12523426D01*
X15330907Y-12566283D01*
X15316621Y-12623426D01*
X15316621Y-12737711D01*
X15330907Y-12766283D01*
X15345193Y-12780569D01*
X15373764Y-12794854D01*
X15430907Y-12794854D01*
X15459478Y-12780569D01*
X15473764Y-12766283D01*
X15488050Y-12737711D01*
X15488050Y-12666283D01*
X15473764Y-12637711D01*
X15459478Y-12623426D01*
X15430907Y-12609140D01*
X15373764Y-12609140D01*
X15345193Y-12623426D01*
X15330907Y-12637711D01*
X15316621Y-12666283D01*
X15602336Y-12494854D02*
X15602336Y-12551997D01*
X15716621Y-12494854D02*
X15716621Y-12551997D01*
X16159478Y-12909140D02*
X16145193Y-12894854D01*
X16116621Y-12851997D01*
X16102336Y-12823426D01*
X16088050Y-12780569D01*
X16073764Y-12709140D01*
X16073764Y-12651997D01*
X16088050Y-12580569D01*
X16102336Y-12537711D01*
X16116621Y-12509140D01*
X16145193Y-12466283D01*
X16159478Y-12451997D01*
X16402336Y-12594854D02*
X16402336Y-12794854D01*
X16330907Y-12480569D02*
X16259478Y-12694854D01*
X16445193Y-12694854D01*
X16788050Y-12794854D02*
X16788050Y-12494854D01*
X16916621Y-12794854D02*
X16916621Y-12637711D01*
X16902336Y-12609140D01*
X16873764Y-12594854D01*
X16830907Y-12594854D01*
X16802336Y-12609140D01*
X16788050Y-12623426D01*
X17102336Y-12794854D02*
X17073764Y-12780569D01*
X17059478Y-12766283D01*
X17045193Y-12737711D01*
X17045193Y-12651997D01*
X17059478Y-12623426D01*
X17073764Y-12609140D01*
X17102336Y-12594854D01*
X17145193Y-12594854D01*
X17173764Y-12609140D01*
X17188050Y-12623426D01*
X17202336Y-12651997D01*
X17202336Y-12737711D01*
X17188050Y-12766283D01*
X17173764Y-12780569D01*
X17145193Y-12794854D01*
X17102336Y-12794854D01*
X17373764Y-12794854D02*
X17345193Y-12780569D01*
X17330907Y-12751997D01*
X17330907Y-12494854D01*
X17602336Y-12780569D02*
X17573764Y-12794854D01*
X17516621Y-12794854D01*
X17488050Y-12780569D01*
X17473764Y-12751997D01*
X17473764Y-12637711D01*
X17488050Y-12609140D01*
X17516621Y-12594854D01*
X17573764Y-12594854D01*
X17602336Y-12609140D01*
X17616621Y-12637711D01*
X17616621Y-12666283D01*
X17473764Y-12694854D01*
X17730907Y-12780569D02*
X17759478Y-12794854D01*
X17816621Y-12794854D01*
X17845193Y-12780569D01*
X17859478Y-12751997D01*
X17859478Y-12737711D01*
X17845193Y-12709140D01*
X17816621Y-12694854D01*
X17773764Y-12694854D01*
X17745193Y-12680569D01*
X17730907Y-12651997D01*
X17730907Y-12637711D01*
X17745193Y-12609140D01*
X17773764Y-12594854D01*
X17816621Y-12594854D01*
X17845193Y-12609140D01*
X17959478Y-12909140D02*
X17973764Y-12894854D01*
X18002336Y-12851997D01*
X18016621Y-12823426D01*
X18030907Y-12780569D01*
X18045193Y-12709140D01*
X18045193Y-12651997D01*
X18030907Y-12580569D01*
X18016621Y-12537711D01*
X18002336Y-12509140D01*
X17973764Y-12466283D01*
X17959478Y-12451997D01*
X18502336Y-12909140D02*
X18488050Y-12894854D01*
X18459478Y-12851997D01*
X18445193Y-12823426D01*
X18430907Y-12780569D01*
X18416621Y-12709140D01*
X18416621Y-12651997D01*
X18430907Y-12580569D01*
X18445193Y-12537711D01*
X18459478Y-12509140D01*
X18488050Y-12466283D01*
X18502336Y-12451997D01*
X18616621Y-12594854D02*
X18616621Y-12794854D01*
X18616621Y-12623426D02*
X18630907Y-12609140D01*
X18659478Y-12594854D01*
X18702336Y-12594854D01*
X18730907Y-12609140D01*
X18745193Y-12637711D01*
X18745193Y-12794854D01*
X18930907Y-12794854D02*
X18902336Y-12780569D01*
X18888050Y-12766283D01*
X18873764Y-12737711D01*
X18873764Y-12651997D01*
X18888050Y-12623426D01*
X18902336Y-12609140D01*
X18930907Y-12594854D01*
X18973764Y-12594854D01*
X19002336Y-12609140D01*
X19016621Y-12623426D01*
X19030907Y-12651997D01*
X19030907Y-12737711D01*
X19016621Y-12766283D01*
X19002336Y-12780569D01*
X18973764Y-12794854D01*
X18930907Y-12794854D01*
X19116621Y-12594854D02*
X19230907Y-12594854D01*
X19159478Y-12494854D02*
X19159478Y-12751997D01*
X19173764Y-12780569D01*
X19202336Y-12794854D01*
X19230907Y-12794854D01*
X19559478Y-12594854D02*
X19559478Y-12894854D01*
X19559478Y-12609140D02*
X19588050Y-12594854D01*
X19645193Y-12594854D01*
X19673764Y-12609140D01*
X19688050Y-12623426D01*
X19702336Y-12651997D01*
X19702336Y-12737711D01*
X19688050Y-12766283D01*
X19673764Y-12780569D01*
X19645193Y-12794854D01*
X19588050Y-12794854D01*
X19559478Y-12780569D01*
X19873764Y-12794854D02*
X19845193Y-12780569D01*
X19830907Y-12751997D01*
X19830907Y-12494854D01*
X20116621Y-12794854D02*
X20116621Y-12637711D01*
X20102336Y-12609140D01*
X20073764Y-12594854D01*
X20016621Y-12594854D01*
X19988050Y-12609140D01*
X20116621Y-12780569D02*
X20088050Y-12794854D01*
X20016621Y-12794854D01*
X19988050Y-12780569D01*
X19973764Y-12751997D01*
X19973764Y-12723426D01*
X19988050Y-12694854D01*
X20016621Y-12680569D01*
X20088050Y-12680569D01*
X20116621Y-12666283D01*
X20216621Y-12594854D02*
X20330907Y-12594854D01*
X20259478Y-12494854D02*
X20259478Y-12751997D01*
X20273764Y-12780569D01*
X20302336Y-12794854D01*
X20330907Y-12794854D01*
X20545193Y-12780569D02*
X20516621Y-12794854D01*
X20459478Y-12794854D01*
X20430907Y-12780569D01*
X20416621Y-12751997D01*
X20416621Y-12637711D01*
X20430907Y-12609140D01*
X20459478Y-12594854D01*
X20516621Y-12594854D01*
X20545193Y-12609140D01*
X20559478Y-12637711D01*
X20559478Y-12666283D01*
X20416621Y-12694854D01*
X20816621Y-12794854D02*
X20816621Y-12494854D01*
X20816621Y-12780569D02*
X20788050Y-12794854D01*
X20730907Y-12794854D01*
X20702336Y-12780569D01*
X20688050Y-12766283D01*
X20673764Y-12737711D01*
X20673764Y-12651997D01*
X20688050Y-12623426D01*
X20702336Y-12609140D01*
X20730907Y-12594854D01*
X20788050Y-12594854D01*
X20816621Y-12609140D01*
X20930907Y-12909140D02*
X20945193Y-12894854D01*
X20973764Y-12851997D01*
X20988050Y-12823426D01*
X21002336Y-12780569D01*
X21016621Y-12709140D01*
X21016621Y-12651997D01*
X21002336Y-12580569D01*
X20988050Y-12537711D01*
X20973764Y-12509140D01*
X20945193Y-12466283D01*
X20930907Y-12451997D01*
M02*
