%FSLAX45Y45*%
G04 Gerber Fmt 4.5, Leading zero omitted, Abs format (unit mm)*
G04 Created by KiCad (PCBNEW (5.1.4)-1) date 2021-02-21 00:24:14*
%MOMM*%
%LPD*%
G04 APERTURE LIST*
%ADD10C,0.050000*%
%ADD11C,0.200000*%
%ADD12C,0.300000*%
G04 APERTURE END LIST*
D10*
X11475550Y-7696640D02*
X18446100Y-7696640D01*
X11475550Y-11696640D02*
X11475550Y-7696640D01*
X18446100Y-11696640D02*
X11475550Y-11696640D01*
X18446100Y-7696640D02*
X18446100Y-11696640D01*
D11*
X11771550Y-8504640D02*
X11811550Y-8544640D01*
X11811550Y-8504640D02*
X11771550Y-8544640D01*
X11771550Y-8758640D02*
X11811550Y-8798640D01*
X11811550Y-8758640D02*
X11771550Y-8798640D01*
X11771550Y-9012640D02*
X11811550Y-9052640D01*
X11811550Y-9012640D02*
X11771550Y-9052640D01*
X11771550Y-10409640D02*
X11811550Y-10449640D01*
X11811550Y-10409640D02*
X11771550Y-10449640D01*
X11771550Y-10663640D02*
X11811550Y-10703640D01*
X11811550Y-10663640D02*
X11771550Y-10703640D01*
X11771550Y-10917640D02*
X11811550Y-10957640D01*
X11811550Y-10917640D02*
X11771550Y-10957640D01*
X12470100Y-11484340D02*
X12510100Y-11524340D01*
X12510100Y-11484340D02*
X12470100Y-11524340D01*
X12596650Y-9672640D02*
X12636650Y-9712640D01*
X12636650Y-9672640D02*
X12596650Y-9712640D01*
X12660550Y-9520640D02*
X12700550Y-9560640D01*
X12700550Y-9520640D02*
X12660550Y-9560640D01*
X12660550Y-9901640D02*
X12700550Y-9941640D01*
X12700550Y-9901640D02*
X12660550Y-9941640D01*
X12724100Y-11484340D02*
X12764100Y-11524340D01*
X12764100Y-11484340D02*
X12724100Y-11524340D01*
X12978100Y-9198340D02*
X13018100Y-9238340D01*
X13018100Y-9198340D02*
X12978100Y-9238340D01*
X12978100Y-9452340D02*
X13018100Y-9492340D01*
X13018100Y-9452340D02*
X12978100Y-9492340D01*
X12978100Y-9706340D02*
X13018100Y-9746340D01*
X13018100Y-9706340D02*
X12978100Y-9746340D01*
X12978100Y-9960340D02*
X13018100Y-10000340D01*
X13018100Y-9960340D02*
X12978100Y-10000340D01*
X12978100Y-11230340D02*
X13018100Y-11270340D01*
X13018100Y-11230340D02*
X12978100Y-11270340D01*
X12978100Y-11484340D02*
X13018100Y-11524340D01*
X13018100Y-11484340D02*
X12978100Y-11524340D01*
X13232100Y-9198340D02*
X13272100Y-9238340D01*
X13272100Y-9198340D02*
X13232100Y-9238340D01*
X13232100Y-9452340D02*
X13272100Y-9492340D01*
X13272100Y-9452340D02*
X13232100Y-9492340D01*
X13232100Y-9706340D02*
X13272100Y-9746340D01*
X13272100Y-9706340D02*
X13232100Y-9746340D01*
X13232100Y-9960340D02*
X13272100Y-10000340D01*
X13272100Y-9960340D02*
X13232100Y-10000340D01*
X13232100Y-11484340D02*
X13272100Y-11524340D01*
X13272100Y-11484340D02*
X13232100Y-11524340D01*
X13486100Y-9198340D02*
X13526100Y-9238340D01*
X13526100Y-9198340D02*
X13486100Y-9238340D01*
X13486100Y-9452340D02*
X13526100Y-9492340D01*
X13526100Y-9452340D02*
X13486100Y-9492340D01*
X13486100Y-9706340D02*
X13526100Y-9746340D01*
X13526100Y-9706340D02*
X13486100Y-9746340D01*
X13486100Y-9960340D02*
X13526100Y-10000340D01*
X13526100Y-9960340D02*
X13486100Y-10000340D01*
X13486100Y-11484340D02*
X13526100Y-11524340D01*
X13526100Y-11484340D02*
X13486100Y-11524340D01*
X13740100Y-9198340D02*
X13780100Y-9238340D01*
X13780100Y-9198340D02*
X13740100Y-9238340D01*
X13740100Y-9452340D02*
X13780100Y-9492340D01*
X13780100Y-9452340D02*
X13740100Y-9492340D01*
X13740100Y-9706340D02*
X13780100Y-9746340D01*
X13780100Y-9706340D02*
X13740100Y-9746340D01*
X13740100Y-9960340D02*
X13780100Y-10000340D01*
X13780100Y-9960340D02*
X13740100Y-10000340D01*
X13740100Y-10214340D02*
X13780100Y-10254340D01*
X13780100Y-10214340D02*
X13740100Y-10254340D01*
X13740100Y-11484340D02*
X13780100Y-11524340D01*
X13780100Y-11484340D02*
X13740100Y-11524340D01*
X13994100Y-8944340D02*
X14034100Y-8984340D01*
X14034100Y-8944340D02*
X13994100Y-8984340D01*
X13994100Y-9198340D02*
X14034100Y-9238340D01*
X14034100Y-9198340D02*
X13994100Y-9238340D01*
X13994100Y-9452340D02*
X14034100Y-9492340D01*
X14034100Y-9452340D02*
X13994100Y-9492340D01*
X13994100Y-9706340D02*
X14034100Y-9746340D01*
X14034100Y-9706340D02*
X13994100Y-9746340D01*
X13994100Y-9960340D02*
X14034100Y-10000340D01*
X14034100Y-9960340D02*
X13994100Y-10000340D01*
X13994100Y-10214340D02*
X14034100Y-10254340D01*
X14034100Y-10214340D02*
X13994100Y-10254340D01*
X13994100Y-10468340D02*
X14034100Y-10508340D01*
X14034100Y-10468340D02*
X13994100Y-10508340D01*
X13994100Y-11230340D02*
X14034100Y-11270340D01*
X14034100Y-11230340D02*
X13994100Y-11270340D01*
X13994100Y-11484340D02*
X14034100Y-11524340D01*
X14034100Y-11484340D02*
X13994100Y-11524340D01*
X14184600Y-8690340D02*
X14224600Y-8730340D01*
X14224600Y-8690340D02*
X14184600Y-8730340D01*
X14248100Y-10468340D02*
X14288100Y-10508340D01*
X14288100Y-10468340D02*
X14248100Y-10508340D01*
X14248100Y-11230340D02*
X14288100Y-11270340D01*
X14288100Y-11230340D02*
X14248100Y-11270340D01*
X14248100Y-11484340D02*
X14288100Y-11524340D01*
X14288100Y-11484340D02*
X14248100Y-11524340D01*
X14438600Y-10722340D02*
X14478600Y-10762340D01*
X14478600Y-10722340D02*
X14438600Y-10762340D01*
X14476700Y-8385540D02*
X14516700Y-8425540D01*
X14516700Y-8385540D02*
X14476700Y-8425540D01*
X14502100Y-11484340D02*
X14542100Y-11524340D01*
X14542100Y-11484340D02*
X14502100Y-11524340D01*
X14654500Y-11001740D02*
X14694500Y-11041740D01*
X14694500Y-11001740D02*
X14654500Y-11041740D01*
X14730700Y-7966440D02*
X14770700Y-8006440D01*
X14770700Y-7966440D02*
X14730700Y-8006440D01*
X14883100Y-11281140D02*
X14923100Y-11321140D01*
X14923100Y-11281140D02*
X14883100Y-11321140D01*
X15060900Y-7852140D02*
X15100900Y-7892140D01*
X15100900Y-7852140D02*
X15060900Y-7892140D01*
X15187900Y-9579340D02*
X15227900Y-9619340D01*
X15227900Y-9579340D02*
X15187900Y-9619340D01*
X15187900Y-9668240D02*
X15227900Y-9708240D01*
X15227900Y-9668240D02*
X15187900Y-9708240D01*
X15187900Y-9757140D02*
X15227900Y-9797140D01*
X15227900Y-9757140D02*
X15187900Y-9797140D01*
X15190550Y-9490440D02*
X15230550Y-9530440D01*
X15230550Y-9490440D02*
X15190550Y-9530440D01*
X15213300Y-11484340D02*
X15253300Y-11524340D01*
X15253300Y-11484340D02*
X15213300Y-11524340D01*
X15264100Y-9757140D02*
X15304100Y-9797140D01*
X15304100Y-9757140D02*
X15264100Y-9797140D01*
X15266590Y-9576520D02*
X15306590Y-9616520D01*
X15306590Y-9576520D02*
X15266590Y-9616520D01*
X15266590Y-9668240D02*
X15306590Y-9708240D01*
X15306590Y-9668240D02*
X15266590Y-9708240D01*
X15543500Y-7852140D02*
X15583500Y-7892140D01*
X15583500Y-7852140D02*
X15543500Y-7892140D01*
X15746700Y-11357340D02*
X15786700Y-11397340D01*
X15786700Y-11357340D02*
X15746700Y-11397340D01*
X16026100Y-7852140D02*
X16066100Y-7892140D01*
X16066100Y-7852140D02*
X16026100Y-7892140D01*
X16280100Y-11357340D02*
X16320100Y-11397340D01*
X16320100Y-11357340D02*
X16280100Y-11397340D01*
X16508700Y-7852140D02*
X16548700Y-7892140D01*
X16548700Y-7852140D02*
X16508700Y-7892140D01*
X16584900Y-9604740D02*
X16624900Y-9644740D01*
X16624900Y-9604740D02*
X16584900Y-9644740D01*
X16597600Y-10150840D02*
X16637600Y-10190840D01*
X16637600Y-10150840D02*
X16597600Y-10190840D01*
X16708200Y-8542640D02*
X16748200Y-8582640D01*
X16748200Y-8542640D02*
X16708200Y-8582640D01*
X16708200Y-8783940D02*
X16748200Y-8823940D01*
X16748200Y-8783940D02*
X16708200Y-8823940D01*
X16708200Y-9037940D02*
X16748200Y-9077940D01*
X16748200Y-9037940D02*
X16708200Y-9077940D01*
X16864300Y-8233140D02*
X16904300Y-8273140D01*
X16904300Y-8233140D02*
X16864300Y-8273140D01*
X16936800Y-10790540D02*
X16976800Y-10830540D01*
X16976800Y-10790540D02*
X16936800Y-10830540D01*
X17044300Y-11159690D02*
X17084300Y-11199690D01*
X17084300Y-11159690D02*
X17044300Y-11199690D01*
X17376100Y-8965340D02*
X17416100Y-9005340D01*
X17416100Y-8965340D02*
X17376100Y-9005340D01*
X17376100Y-9065340D02*
X17416100Y-9105340D01*
X17416100Y-9065340D02*
X17376100Y-9105340D01*
X17425300Y-11159690D02*
X17465300Y-11199690D01*
X17465300Y-11159690D02*
X17425300Y-11199690D01*
X14340044Y-11047140D02*
G75*
G03X14340044Y-11047140I-59944J0D01*
G01*
X15356044Y-11047140D02*
G75*
G03X15356044Y-11047140I-59944J0D01*
G01*
X14531244Y-8049940D02*
G75*
G03X14531244Y-8049940I-59944J0D01*
G01*
X14531244Y-9065940D02*
G75*
G03X14531244Y-9065940I-59944J0D01*
G01*
X16456044Y-8260340D02*
G75*
G03X16456044Y-8260340I-59944J0D01*
G01*
X17472044Y-8260340D02*
G75*
G03X17472044Y-8260340I-59944J0D01*
G01*
X16517100Y-11050340D02*
X16517100Y-11170340D01*
X16457100Y-11110340D02*
X16577100Y-11110340D01*
X16771100Y-11050340D02*
X16771100Y-11170340D01*
X16711100Y-11110340D02*
X16831100Y-11110340D01*
X12020150Y-9378640D02*
X12020150Y-9498640D01*
X11960150Y-9438640D02*
X12080150Y-9438640D01*
X12020150Y-9632640D02*
X12020150Y-9752640D01*
X11960150Y-9692640D02*
X12080150Y-9692640D01*
X12020150Y-9886640D02*
X12020150Y-10006640D01*
X11960150Y-9946640D02*
X12080150Y-9946640D01*
X18043830Y-8745370D02*
X18043830Y-8649910D01*
X17948370Y-8649910D01*
X17948370Y-8745370D01*
X18043830Y-8745370D01*
X18043830Y-9245370D02*
X18043830Y-9149910D01*
X17948370Y-9149910D01*
X17948370Y-9245370D01*
X18043830Y-9245370D01*
X18043830Y-10245370D02*
X18043830Y-10149910D01*
X17948370Y-10149910D01*
X17948370Y-10245370D01*
X18043830Y-10245370D01*
X18043830Y-10745370D02*
X18043830Y-10649910D01*
X17948370Y-10649910D01*
X17948370Y-10745370D01*
X18043830Y-10745370D01*
D12*
X11759478Y-12164854D02*
X11759478Y-11864854D01*
X11830907Y-11864854D01*
X11873764Y-11879140D01*
X11902336Y-11907711D01*
X11916621Y-11936283D01*
X11930907Y-11993426D01*
X11930907Y-12036283D01*
X11916621Y-12093426D01*
X11902336Y-12121997D01*
X11873764Y-12150569D01*
X11830907Y-12164854D01*
X11759478Y-12164854D01*
X12059478Y-12164854D02*
X12059478Y-11964854D01*
X12059478Y-12021997D02*
X12073764Y-11993426D01*
X12088050Y-11979140D01*
X12116621Y-11964854D01*
X12145193Y-11964854D01*
X12245193Y-12164854D02*
X12245193Y-11964854D01*
X12245193Y-11864854D02*
X12230907Y-11879140D01*
X12245193Y-11893426D01*
X12259478Y-11879140D01*
X12245193Y-11864854D01*
X12245193Y-11893426D01*
X12430907Y-12164854D02*
X12402336Y-12150569D01*
X12388050Y-12121997D01*
X12388050Y-11864854D01*
X12588050Y-12164854D02*
X12559478Y-12150569D01*
X12545193Y-12121997D01*
X12545193Y-11864854D01*
X12930907Y-12164854D02*
X12930907Y-11864854D01*
X13030907Y-12079140D01*
X13130907Y-11864854D01*
X13130907Y-12164854D01*
X13402336Y-12164854D02*
X13402336Y-12007711D01*
X13388050Y-11979140D01*
X13359478Y-11964854D01*
X13302336Y-11964854D01*
X13273764Y-11979140D01*
X13402336Y-12150569D02*
X13373764Y-12164854D01*
X13302336Y-12164854D01*
X13273764Y-12150569D01*
X13259478Y-12121997D01*
X13259478Y-12093426D01*
X13273764Y-12064854D01*
X13302336Y-12050569D01*
X13373764Y-12050569D01*
X13402336Y-12036283D01*
X13545193Y-11964854D02*
X13545193Y-12264854D01*
X13545193Y-11979140D02*
X13573764Y-11964854D01*
X13630907Y-11964854D01*
X13659478Y-11979140D01*
X13673764Y-11993426D01*
X13688050Y-12021997D01*
X13688050Y-12107711D01*
X13673764Y-12136283D01*
X13659478Y-12150569D01*
X13630907Y-12164854D01*
X13573764Y-12164854D01*
X13545193Y-12150569D01*
X13816621Y-12136283D02*
X13830907Y-12150569D01*
X13816621Y-12164854D01*
X13802336Y-12150569D01*
X13816621Y-12136283D01*
X13816621Y-12164854D01*
X13816621Y-11979140D02*
X13830907Y-11993426D01*
X13816621Y-12007711D01*
X13802336Y-11993426D01*
X13816621Y-11979140D01*
X13816621Y-12007711D01*
X11433050Y-12639140D02*
X11473050Y-12679140D01*
X11473050Y-12639140D02*
X11433050Y-12679140D01*
X11816621Y-12494854D02*
X11845193Y-12494854D01*
X11873764Y-12509140D01*
X11888050Y-12523426D01*
X11902336Y-12551997D01*
X11916621Y-12609140D01*
X11916621Y-12680569D01*
X11902336Y-12737711D01*
X11888050Y-12766283D01*
X11873764Y-12780569D01*
X11845193Y-12794854D01*
X11816621Y-12794854D01*
X11788050Y-12780569D01*
X11773764Y-12766283D01*
X11759478Y-12737711D01*
X11745193Y-12680569D01*
X11745193Y-12609140D01*
X11759478Y-12551997D01*
X11773764Y-12523426D01*
X11788050Y-12509140D01*
X11816621Y-12494854D01*
X12045193Y-12766283D02*
X12059478Y-12780569D01*
X12045193Y-12794854D01*
X12030907Y-12780569D01*
X12045193Y-12766283D01*
X12045193Y-12794854D01*
X12316621Y-12594854D02*
X12316621Y-12794854D01*
X12245193Y-12480569D02*
X12173764Y-12694854D01*
X12359478Y-12694854D01*
X12530907Y-12494854D02*
X12559478Y-12494854D01*
X12588050Y-12509140D01*
X12602336Y-12523426D01*
X12616621Y-12551997D01*
X12630907Y-12609140D01*
X12630907Y-12680569D01*
X12616621Y-12737711D01*
X12602336Y-12766283D01*
X12588050Y-12780569D01*
X12559478Y-12794854D01*
X12530907Y-12794854D01*
X12502336Y-12780569D01*
X12488050Y-12766283D01*
X12473764Y-12737711D01*
X12459478Y-12680569D01*
X12459478Y-12609140D01*
X12473764Y-12551997D01*
X12488050Y-12523426D01*
X12502336Y-12509140D01*
X12530907Y-12494854D01*
X12759478Y-12794854D02*
X12759478Y-12594854D01*
X12759478Y-12623426D02*
X12773764Y-12609140D01*
X12802336Y-12594854D01*
X12845193Y-12594854D01*
X12873764Y-12609140D01*
X12888050Y-12637711D01*
X12888050Y-12794854D01*
X12888050Y-12637711D02*
X12902336Y-12609140D01*
X12930907Y-12594854D01*
X12973764Y-12594854D01*
X13002336Y-12609140D01*
X13016621Y-12637711D01*
X13016621Y-12794854D01*
X13159478Y-12794854D02*
X13159478Y-12594854D01*
X13159478Y-12623426D02*
X13173764Y-12609140D01*
X13202336Y-12594854D01*
X13245193Y-12594854D01*
X13273764Y-12609140D01*
X13288050Y-12637711D01*
X13288050Y-12794854D01*
X13288050Y-12637711D02*
X13302336Y-12609140D01*
X13330907Y-12594854D01*
X13373764Y-12594854D01*
X13402336Y-12609140D01*
X13416621Y-12637711D01*
X13416621Y-12794854D01*
X14002336Y-12480569D02*
X13745193Y-12866283D01*
X14388050Y-12494854D02*
X14416621Y-12494854D01*
X14445193Y-12509140D01*
X14459478Y-12523426D01*
X14473764Y-12551997D01*
X14488050Y-12609140D01*
X14488050Y-12680569D01*
X14473764Y-12737711D01*
X14459478Y-12766283D01*
X14445193Y-12780569D01*
X14416621Y-12794854D01*
X14388050Y-12794854D01*
X14359478Y-12780569D01*
X14345193Y-12766283D01*
X14330907Y-12737711D01*
X14316621Y-12680569D01*
X14316621Y-12609140D01*
X14330907Y-12551997D01*
X14345193Y-12523426D01*
X14359478Y-12509140D01*
X14388050Y-12494854D01*
X14616621Y-12766283D02*
X14630907Y-12780569D01*
X14616621Y-12794854D01*
X14602336Y-12780569D01*
X14616621Y-12766283D01*
X14616621Y-12794854D01*
X14816621Y-12494854D02*
X14845193Y-12494854D01*
X14873764Y-12509140D01*
X14888050Y-12523426D01*
X14902336Y-12551997D01*
X14916621Y-12609140D01*
X14916621Y-12680569D01*
X14902336Y-12737711D01*
X14888050Y-12766283D01*
X14873764Y-12780569D01*
X14845193Y-12794854D01*
X14816621Y-12794854D01*
X14788050Y-12780569D01*
X14773764Y-12766283D01*
X14759478Y-12737711D01*
X14745193Y-12680569D01*
X14745193Y-12609140D01*
X14759478Y-12551997D01*
X14773764Y-12523426D01*
X14788050Y-12509140D01*
X14816621Y-12494854D01*
X15202336Y-12794854D02*
X15030907Y-12794854D01*
X15116621Y-12794854D02*
X15116621Y-12494854D01*
X15088050Y-12537711D01*
X15059478Y-12566283D01*
X15030907Y-12580569D01*
X15459478Y-12494854D02*
X15402336Y-12494854D01*
X15373764Y-12509140D01*
X15359478Y-12523426D01*
X15330907Y-12566283D01*
X15316621Y-12623426D01*
X15316621Y-12737711D01*
X15330907Y-12766283D01*
X15345193Y-12780569D01*
X15373764Y-12794854D01*
X15430907Y-12794854D01*
X15459478Y-12780569D01*
X15473764Y-12766283D01*
X15488050Y-12737711D01*
X15488050Y-12666283D01*
X15473764Y-12637711D01*
X15459478Y-12623426D01*
X15430907Y-12609140D01*
X15373764Y-12609140D01*
X15345193Y-12623426D01*
X15330907Y-12637711D01*
X15316621Y-12666283D01*
X15602336Y-12494854D02*
X15602336Y-12551997D01*
X15716621Y-12494854D02*
X15716621Y-12551997D01*
X16159478Y-12909140D02*
X16145193Y-12894854D01*
X16116621Y-12851997D01*
X16102336Y-12823426D01*
X16088050Y-12780569D01*
X16073764Y-12709140D01*
X16073764Y-12651997D01*
X16088050Y-12580569D01*
X16102336Y-12537711D01*
X16116621Y-12509140D01*
X16145193Y-12466283D01*
X16159478Y-12451997D01*
X16245193Y-12494854D02*
X16445193Y-12494854D01*
X16316621Y-12794854D01*
X16530907Y-12494854D02*
X16730907Y-12494854D01*
X16602336Y-12794854D01*
X17073764Y-12794854D02*
X17073764Y-12494854D01*
X17202336Y-12794854D02*
X17202336Y-12637711D01*
X17188050Y-12609140D01*
X17159478Y-12594854D01*
X17116621Y-12594854D01*
X17088050Y-12609140D01*
X17073764Y-12623426D01*
X17388050Y-12794854D02*
X17359478Y-12780569D01*
X17345193Y-12766283D01*
X17330907Y-12737711D01*
X17330907Y-12651997D01*
X17345193Y-12623426D01*
X17359478Y-12609140D01*
X17388050Y-12594854D01*
X17430907Y-12594854D01*
X17459478Y-12609140D01*
X17473764Y-12623426D01*
X17488050Y-12651997D01*
X17488050Y-12737711D01*
X17473764Y-12766283D01*
X17459478Y-12780569D01*
X17430907Y-12794854D01*
X17388050Y-12794854D01*
X17659478Y-12794854D02*
X17630907Y-12780569D01*
X17616621Y-12751997D01*
X17616621Y-12494854D01*
X17888050Y-12780569D02*
X17859478Y-12794854D01*
X17802336Y-12794854D01*
X17773764Y-12780569D01*
X17759478Y-12751997D01*
X17759478Y-12637711D01*
X17773764Y-12609140D01*
X17802336Y-12594854D01*
X17859478Y-12594854D01*
X17888050Y-12609140D01*
X17902336Y-12637711D01*
X17902336Y-12666283D01*
X17759478Y-12694854D01*
X18016621Y-12780569D02*
X18045193Y-12794854D01*
X18102336Y-12794854D01*
X18130907Y-12780569D01*
X18145193Y-12751997D01*
X18145193Y-12737711D01*
X18130907Y-12709140D01*
X18102336Y-12694854D01*
X18059478Y-12694854D01*
X18030907Y-12680569D01*
X18016621Y-12651997D01*
X18016621Y-12637711D01*
X18030907Y-12609140D01*
X18059478Y-12594854D01*
X18102336Y-12594854D01*
X18130907Y-12609140D01*
X18245193Y-12909140D02*
X18259478Y-12894854D01*
X18288050Y-12851997D01*
X18302336Y-12823426D01*
X18316621Y-12780569D01*
X18330907Y-12709140D01*
X18330907Y-12651997D01*
X18316621Y-12580569D01*
X18302336Y-12537711D01*
X18288050Y-12509140D01*
X18259478Y-12466283D01*
X18245193Y-12451997D01*
X11473050Y-13055140D02*
G75*
G03X11473050Y-13055140I-59944J0D01*
G01*
X11916621Y-13190854D02*
X11745193Y-13190854D01*
X11830907Y-13190854D02*
X11830907Y-12890854D01*
X11802336Y-12933711D01*
X11773764Y-12962283D01*
X11745193Y-12976569D01*
X12045193Y-13162283D02*
X12059478Y-13176569D01*
X12045193Y-13190854D01*
X12030907Y-13176569D01*
X12045193Y-13162283D01*
X12045193Y-13190854D01*
X12173764Y-12919426D02*
X12188050Y-12905140D01*
X12216621Y-12890854D01*
X12288050Y-12890854D01*
X12316621Y-12905140D01*
X12330907Y-12919426D01*
X12345193Y-12947997D01*
X12345193Y-12976569D01*
X12330907Y-13019426D01*
X12159478Y-13190854D01*
X12345193Y-13190854D01*
X12530907Y-12890854D02*
X12559478Y-12890854D01*
X12588050Y-12905140D01*
X12602336Y-12919426D01*
X12616621Y-12947997D01*
X12630907Y-13005140D01*
X12630907Y-13076569D01*
X12616621Y-13133711D01*
X12602336Y-13162283D01*
X12588050Y-13176569D01*
X12559478Y-13190854D01*
X12530907Y-13190854D01*
X12502336Y-13176569D01*
X12488050Y-13162283D01*
X12473764Y-13133711D01*
X12459478Y-13076569D01*
X12459478Y-13005140D01*
X12473764Y-12947997D01*
X12488050Y-12919426D01*
X12502336Y-12905140D01*
X12530907Y-12890854D01*
X12759478Y-13190854D02*
X12759478Y-12990854D01*
X12759478Y-13019426D02*
X12773764Y-13005140D01*
X12802336Y-12990854D01*
X12845193Y-12990854D01*
X12873764Y-13005140D01*
X12888050Y-13033711D01*
X12888050Y-13190854D01*
X12888050Y-13033711D02*
X12902336Y-13005140D01*
X12930907Y-12990854D01*
X12973764Y-12990854D01*
X13002336Y-13005140D01*
X13016621Y-13033711D01*
X13016621Y-13190854D01*
X13159478Y-13190854D02*
X13159478Y-12990854D01*
X13159478Y-13019426D02*
X13173764Y-13005140D01*
X13202336Y-12990854D01*
X13245193Y-12990854D01*
X13273764Y-13005140D01*
X13288050Y-13033711D01*
X13288050Y-13190854D01*
X13288050Y-13033711D02*
X13302336Y-13005140D01*
X13330907Y-12990854D01*
X13373764Y-12990854D01*
X13402336Y-13005140D01*
X13416621Y-13033711D01*
X13416621Y-13190854D01*
X14002336Y-12876569D02*
X13745193Y-13262283D01*
X14388050Y-12890854D02*
X14416621Y-12890854D01*
X14445193Y-12905140D01*
X14459478Y-12919426D01*
X14473764Y-12947997D01*
X14488050Y-13005140D01*
X14488050Y-13076569D01*
X14473764Y-13133711D01*
X14459478Y-13162283D01*
X14445193Y-13176569D01*
X14416621Y-13190854D01*
X14388050Y-13190854D01*
X14359478Y-13176569D01*
X14345193Y-13162283D01*
X14330907Y-13133711D01*
X14316621Y-13076569D01*
X14316621Y-13005140D01*
X14330907Y-12947997D01*
X14345193Y-12919426D01*
X14359478Y-12905140D01*
X14388050Y-12890854D01*
X14616621Y-13162283D02*
X14630907Y-13176569D01*
X14616621Y-13190854D01*
X14602336Y-13176569D01*
X14616621Y-13162283D01*
X14616621Y-13190854D01*
X14816621Y-12890854D02*
X14845193Y-12890854D01*
X14873764Y-12905140D01*
X14888050Y-12919426D01*
X14902336Y-12947997D01*
X14916621Y-13005140D01*
X14916621Y-13076569D01*
X14902336Y-13133711D01*
X14888050Y-13162283D01*
X14873764Y-13176569D01*
X14845193Y-13190854D01*
X14816621Y-13190854D01*
X14788050Y-13176569D01*
X14773764Y-13162283D01*
X14759478Y-13133711D01*
X14745193Y-13076569D01*
X14745193Y-13005140D01*
X14759478Y-12947997D01*
X14773764Y-12919426D01*
X14788050Y-12905140D01*
X14816621Y-12890854D01*
X15173764Y-12990854D02*
X15173764Y-13190854D01*
X15102336Y-12876569D02*
X15030907Y-13090854D01*
X15216621Y-13090854D01*
X15302336Y-12890854D02*
X15502336Y-12890854D01*
X15373764Y-13190854D01*
X15602336Y-12890854D02*
X15602336Y-12947997D01*
X15716621Y-12890854D02*
X15716621Y-12947997D01*
X16159478Y-13305140D02*
X16145193Y-13290854D01*
X16116621Y-13247997D01*
X16102336Y-13219426D01*
X16088050Y-13176569D01*
X16073764Y-13105140D01*
X16073764Y-13047997D01*
X16088050Y-12976569D01*
X16102336Y-12933711D01*
X16116621Y-12905140D01*
X16145193Y-12862283D01*
X16159478Y-12847997D01*
X16402336Y-12890854D02*
X16345193Y-12890854D01*
X16316621Y-12905140D01*
X16302336Y-12919426D01*
X16273764Y-12962283D01*
X16259478Y-13019426D01*
X16259478Y-13133711D01*
X16273764Y-13162283D01*
X16288050Y-13176569D01*
X16316621Y-13190854D01*
X16373764Y-13190854D01*
X16402336Y-13176569D01*
X16416621Y-13162283D01*
X16430907Y-13133711D01*
X16430907Y-13062283D01*
X16416621Y-13033711D01*
X16402336Y-13019426D01*
X16373764Y-13005140D01*
X16316621Y-13005140D01*
X16288050Y-13019426D01*
X16273764Y-13033711D01*
X16259478Y-13062283D01*
X16788050Y-13190854D02*
X16788050Y-12890854D01*
X16916621Y-13190854D02*
X16916621Y-13033711D01*
X16902336Y-13005140D01*
X16873764Y-12990854D01*
X16830907Y-12990854D01*
X16802336Y-13005140D01*
X16788050Y-13019426D01*
X17102336Y-13190854D02*
X17073764Y-13176569D01*
X17059478Y-13162283D01*
X17045193Y-13133711D01*
X17045193Y-13047997D01*
X17059478Y-13019426D01*
X17073764Y-13005140D01*
X17102336Y-12990854D01*
X17145193Y-12990854D01*
X17173764Y-13005140D01*
X17188050Y-13019426D01*
X17202336Y-13047997D01*
X17202336Y-13133711D01*
X17188050Y-13162283D01*
X17173764Y-13176569D01*
X17145193Y-13190854D01*
X17102336Y-13190854D01*
X17373764Y-13190854D02*
X17345193Y-13176569D01*
X17330907Y-13147997D01*
X17330907Y-12890854D01*
X17602336Y-13176569D02*
X17573764Y-13190854D01*
X17516621Y-13190854D01*
X17488050Y-13176569D01*
X17473764Y-13147997D01*
X17473764Y-13033711D01*
X17488050Y-13005140D01*
X17516621Y-12990854D01*
X17573764Y-12990854D01*
X17602336Y-13005140D01*
X17616621Y-13033711D01*
X17616621Y-13062283D01*
X17473764Y-13090854D01*
X17730907Y-13176569D02*
X17759478Y-13190854D01*
X17816621Y-13190854D01*
X17845193Y-13176569D01*
X17859478Y-13147997D01*
X17859478Y-13133711D01*
X17845193Y-13105140D01*
X17816621Y-13090854D01*
X17773764Y-13090854D01*
X17745193Y-13076569D01*
X17730907Y-13047997D01*
X17730907Y-13033711D01*
X17745193Y-13005140D01*
X17773764Y-12990854D01*
X17816621Y-12990854D01*
X17845193Y-13005140D01*
X17959478Y-13305140D02*
X17973764Y-13290854D01*
X18002336Y-13247997D01*
X18016621Y-13219426D01*
X18030907Y-13176569D01*
X18045193Y-13105140D01*
X18045193Y-13047997D01*
X18030907Y-12976569D01*
X18016621Y-12933711D01*
X18002336Y-12905140D01*
X17973764Y-12862283D01*
X17959478Y-12847997D01*
X11413050Y-13391140D02*
X11413050Y-13511140D01*
X11353050Y-13451140D02*
X11473050Y-13451140D01*
X11916621Y-13586854D02*
X11745193Y-13586854D01*
X11830907Y-13586854D02*
X11830907Y-13286854D01*
X11802336Y-13329711D01*
X11773764Y-13358283D01*
X11745193Y-13372569D01*
X12045193Y-13558283D02*
X12059478Y-13572569D01*
X12045193Y-13586854D01*
X12030907Y-13572569D01*
X12045193Y-13558283D01*
X12045193Y-13586854D01*
X12173764Y-13315426D02*
X12188050Y-13301140D01*
X12216621Y-13286854D01*
X12288050Y-13286854D01*
X12316621Y-13301140D01*
X12330907Y-13315426D01*
X12345193Y-13343997D01*
X12345193Y-13372569D01*
X12330907Y-13415426D01*
X12159478Y-13586854D01*
X12345193Y-13586854D01*
X12530907Y-13286854D02*
X12559478Y-13286854D01*
X12588050Y-13301140D01*
X12602336Y-13315426D01*
X12616621Y-13343997D01*
X12630907Y-13401140D01*
X12630907Y-13472569D01*
X12616621Y-13529711D01*
X12602336Y-13558283D01*
X12588050Y-13572569D01*
X12559478Y-13586854D01*
X12530907Y-13586854D01*
X12502336Y-13572569D01*
X12488050Y-13558283D01*
X12473764Y-13529711D01*
X12459478Y-13472569D01*
X12459478Y-13401140D01*
X12473764Y-13343997D01*
X12488050Y-13315426D01*
X12502336Y-13301140D01*
X12530907Y-13286854D01*
X12759478Y-13586854D02*
X12759478Y-13386854D01*
X12759478Y-13415426D02*
X12773764Y-13401140D01*
X12802336Y-13386854D01*
X12845193Y-13386854D01*
X12873764Y-13401140D01*
X12888050Y-13429711D01*
X12888050Y-13586854D01*
X12888050Y-13429711D02*
X12902336Y-13401140D01*
X12930907Y-13386854D01*
X12973764Y-13386854D01*
X13002336Y-13401140D01*
X13016621Y-13429711D01*
X13016621Y-13586854D01*
X13159478Y-13586854D02*
X13159478Y-13386854D01*
X13159478Y-13415426D02*
X13173764Y-13401140D01*
X13202336Y-13386854D01*
X13245193Y-13386854D01*
X13273764Y-13401140D01*
X13288050Y-13429711D01*
X13288050Y-13586854D01*
X13288050Y-13429711D02*
X13302336Y-13401140D01*
X13330907Y-13386854D01*
X13373764Y-13386854D01*
X13402336Y-13401140D01*
X13416621Y-13429711D01*
X13416621Y-13586854D01*
X14002336Y-13272569D02*
X13745193Y-13658283D01*
X14388050Y-13286854D02*
X14416621Y-13286854D01*
X14445193Y-13301140D01*
X14459478Y-13315426D01*
X14473764Y-13343997D01*
X14488050Y-13401140D01*
X14488050Y-13472569D01*
X14473764Y-13529711D01*
X14459478Y-13558283D01*
X14445193Y-13572569D01*
X14416621Y-13586854D01*
X14388050Y-13586854D01*
X14359478Y-13572569D01*
X14345193Y-13558283D01*
X14330907Y-13529711D01*
X14316621Y-13472569D01*
X14316621Y-13401140D01*
X14330907Y-13343997D01*
X14345193Y-13315426D01*
X14359478Y-13301140D01*
X14388050Y-13286854D01*
X14616621Y-13558283D02*
X14630907Y-13572569D01*
X14616621Y-13586854D01*
X14602336Y-13572569D01*
X14616621Y-13558283D01*
X14616621Y-13586854D01*
X14816621Y-13286854D02*
X14845193Y-13286854D01*
X14873764Y-13301140D01*
X14888050Y-13315426D01*
X14902336Y-13343997D01*
X14916621Y-13401140D01*
X14916621Y-13472569D01*
X14902336Y-13529711D01*
X14888050Y-13558283D01*
X14873764Y-13572569D01*
X14845193Y-13586854D01*
X14816621Y-13586854D01*
X14788050Y-13572569D01*
X14773764Y-13558283D01*
X14759478Y-13529711D01*
X14745193Y-13472569D01*
X14745193Y-13401140D01*
X14759478Y-13343997D01*
X14773764Y-13315426D01*
X14788050Y-13301140D01*
X14816621Y-13286854D01*
X15173764Y-13386854D02*
X15173764Y-13586854D01*
X15102336Y-13272569D02*
X15030907Y-13486854D01*
X15216621Y-13486854D01*
X15302336Y-13286854D02*
X15502336Y-13286854D01*
X15373764Y-13586854D01*
X15602336Y-13286854D02*
X15602336Y-13343997D01*
X15716621Y-13286854D02*
X15716621Y-13343997D01*
X16159478Y-13701140D02*
X16145193Y-13686854D01*
X16116621Y-13643997D01*
X16102336Y-13615426D01*
X16088050Y-13572569D01*
X16073764Y-13501140D01*
X16073764Y-13443997D01*
X16088050Y-13372569D01*
X16102336Y-13329711D01*
X16116621Y-13301140D01*
X16145193Y-13258283D01*
X16159478Y-13243997D01*
X16416621Y-13286854D02*
X16273764Y-13286854D01*
X16259478Y-13429711D01*
X16273764Y-13415426D01*
X16302336Y-13401140D01*
X16373764Y-13401140D01*
X16402336Y-13415426D01*
X16416621Y-13429711D01*
X16430907Y-13458283D01*
X16430907Y-13529711D01*
X16416621Y-13558283D01*
X16402336Y-13572569D01*
X16373764Y-13586854D01*
X16302336Y-13586854D01*
X16273764Y-13572569D01*
X16259478Y-13558283D01*
X16788050Y-13586854D02*
X16788050Y-13286854D01*
X16916621Y-13586854D02*
X16916621Y-13429711D01*
X16902336Y-13401140D01*
X16873764Y-13386854D01*
X16830907Y-13386854D01*
X16802336Y-13401140D01*
X16788050Y-13415426D01*
X17102336Y-13586854D02*
X17073764Y-13572569D01*
X17059478Y-13558283D01*
X17045193Y-13529711D01*
X17045193Y-13443997D01*
X17059478Y-13415426D01*
X17073764Y-13401140D01*
X17102336Y-13386854D01*
X17145193Y-13386854D01*
X17173764Y-13401140D01*
X17188050Y-13415426D01*
X17202336Y-13443997D01*
X17202336Y-13529711D01*
X17188050Y-13558283D01*
X17173764Y-13572569D01*
X17145193Y-13586854D01*
X17102336Y-13586854D01*
X17373764Y-13586854D02*
X17345193Y-13572569D01*
X17330907Y-13543997D01*
X17330907Y-13286854D01*
X17602336Y-13572569D02*
X17573764Y-13586854D01*
X17516621Y-13586854D01*
X17488050Y-13572569D01*
X17473764Y-13543997D01*
X17473764Y-13429711D01*
X17488050Y-13401140D01*
X17516621Y-13386854D01*
X17573764Y-13386854D01*
X17602336Y-13401140D01*
X17616621Y-13429711D01*
X17616621Y-13458283D01*
X17473764Y-13486854D01*
X17730907Y-13572569D02*
X17759478Y-13586854D01*
X17816621Y-13586854D01*
X17845193Y-13572569D01*
X17859478Y-13543997D01*
X17859478Y-13529711D01*
X17845193Y-13501140D01*
X17816621Y-13486854D01*
X17773764Y-13486854D01*
X17745193Y-13472569D01*
X17730907Y-13443997D01*
X17730907Y-13429711D01*
X17745193Y-13401140D01*
X17773764Y-13386854D01*
X17816621Y-13386854D01*
X17845193Y-13401140D01*
X17959478Y-13701140D02*
X17973764Y-13686854D01*
X18002336Y-13643997D01*
X18016621Y-13615426D01*
X18030907Y-13572569D01*
X18045193Y-13501140D01*
X18045193Y-13443997D01*
X18030907Y-13372569D01*
X18016621Y-13329711D01*
X18002336Y-13301140D01*
X17973764Y-13258283D01*
X17959478Y-13243997D01*
X11453280Y-13894870D02*
X11453280Y-13799410D01*
X11357820Y-13799410D01*
X11357820Y-13894870D01*
X11453280Y-13894870D01*
X11916621Y-13982854D02*
X11745193Y-13982854D01*
X11830907Y-13982854D02*
X11830907Y-13682854D01*
X11802336Y-13725711D01*
X11773764Y-13754283D01*
X11745193Y-13768569D01*
X12045193Y-13954283D02*
X12059478Y-13968569D01*
X12045193Y-13982854D01*
X12030907Y-13968569D01*
X12045193Y-13954283D01*
X12045193Y-13982854D01*
X12159478Y-13682854D02*
X12345193Y-13682854D01*
X12245193Y-13797140D01*
X12288050Y-13797140D01*
X12316621Y-13811426D01*
X12330907Y-13825711D01*
X12345193Y-13854283D01*
X12345193Y-13925711D01*
X12330907Y-13954283D01*
X12316621Y-13968569D01*
X12288050Y-13982854D01*
X12202336Y-13982854D01*
X12173764Y-13968569D01*
X12159478Y-13954283D01*
X12616621Y-13682854D02*
X12473764Y-13682854D01*
X12459478Y-13825711D01*
X12473764Y-13811426D01*
X12502336Y-13797140D01*
X12573764Y-13797140D01*
X12602336Y-13811426D01*
X12616621Y-13825711D01*
X12630907Y-13854283D01*
X12630907Y-13925711D01*
X12616621Y-13954283D01*
X12602336Y-13968569D01*
X12573764Y-13982854D01*
X12502336Y-13982854D01*
X12473764Y-13968569D01*
X12459478Y-13954283D01*
X12759478Y-13982854D02*
X12759478Y-13782854D01*
X12759478Y-13811426D02*
X12773764Y-13797140D01*
X12802336Y-13782854D01*
X12845193Y-13782854D01*
X12873764Y-13797140D01*
X12888050Y-13825711D01*
X12888050Y-13982854D01*
X12888050Y-13825711D02*
X12902336Y-13797140D01*
X12930907Y-13782854D01*
X12973764Y-13782854D01*
X13002336Y-13797140D01*
X13016621Y-13825711D01*
X13016621Y-13982854D01*
X13159478Y-13982854D02*
X13159478Y-13782854D01*
X13159478Y-13811426D02*
X13173764Y-13797140D01*
X13202336Y-13782854D01*
X13245193Y-13782854D01*
X13273764Y-13797140D01*
X13288050Y-13825711D01*
X13288050Y-13982854D01*
X13288050Y-13825711D02*
X13302336Y-13797140D01*
X13330907Y-13782854D01*
X13373764Y-13782854D01*
X13402336Y-13797140D01*
X13416621Y-13825711D01*
X13416621Y-13982854D01*
X14002336Y-13668569D02*
X13745193Y-14054283D01*
X14388050Y-13682854D02*
X14416621Y-13682854D01*
X14445193Y-13697140D01*
X14459478Y-13711426D01*
X14473764Y-13739997D01*
X14488050Y-13797140D01*
X14488050Y-13868569D01*
X14473764Y-13925711D01*
X14459478Y-13954283D01*
X14445193Y-13968569D01*
X14416621Y-13982854D01*
X14388050Y-13982854D01*
X14359478Y-13968569D01*
X14345193Y-13954283D01*
X14330907Y-13925711D01*
X14316621Y-13868569D01*
X14316621Y-13797140D01*
X14330907Y-13739997D01*
X14345193Y-13711426D01*
X14359478Y-13697140D01*
X14388050Y-13682854D01*
X14616621Y-13954283D02*
X14630907Y-13968569D01*
X14616621Y-13982854D01*
X14602336Y-13968569D01*
X14616621Y-13954283D01*
X14616621Y-13982854D01*
X14816621Y-13682854D02*
X14845193Y-13682854D01*
X14873764Y-13697140D01*
X14888050Y-13711426D01*
X14902336Y-13739997D01*
X14916621Y-13797140D01*
X14916621Y-13868569D01*
X14902336Y-13925711D01*
X14888050Y-13954283D01*
X14873764Y-13968569D01*
X14845193Y-13982854D01*
X14816621Y-13982854D01*
X14788050Y-13968569D01*
X14773764Y-13954283D01*
X14759478Y-13925711D01*
X14745193Y-13868569D01*
X14745193Y-13797140D01*
X14759478Y-13739997D01*
X14773764Y-13711426D01*
X14788050Y-13697140D01*
X14816621Y-13682854D01*
X15188050Y-13682854D02*
X15045193Y-13682854D01*
X15030907Y-13825711D01*
X15045193Y-13811426D01*
X15073764Y-13797140D01*
X15145193Y-13797140D01*
X15173764Y-13811426D01*
X15188050Y-13825711D01*
X15202336Y-13854283D01*
X15202336Y-13925711D01*
X15188050Y-13954283D01*
X15173764Y-13968569D01*
X15145193Y-13982854D01*
X15073764Y-13982854D01*
X15045193Y-13968569D01*
X15030907Y-13954283D01*
X15302336Y-13682854D02*
X15488050Y-13682854D01*
X15388050Y-13797140D01*
X15430907Y-13797140D01*
X15459478Y-13811426D01*
X15473764Y-13825711D01*
X15488050Y-13854283D01*
X15488050Y-13925711D01*
X15473764Y-13954283D01*
X15459478Y-13968569D01*
X15430907Y-13982854D01*
X15345193Y-13982854D01*
X15316621Y-13968569D01*
X15302336Y-13954283D01*
X15602336Y-13682854D02*
X15602336Y-13739997D01*
X15716621Y-13682854D02*
X15716621Y-13739997D01*
X16159478Y-14097140D02*
X16145193Y-14082854D01*
X16116621Y-14039997D01*
X16102336Y-14011426D01*
X16088050Y-13968569D01*
X16073764Y-13897140D01*
X16073764Y-13839997D01*
X16088050Y-13768569D01*
X16102336Y-13725711D01*
X16116621Y-13697140D01*
X16145193Y-13654283D01*
X16159478Y-13639997D01*
X16402336Y-13782854D02*
X16402336Y-13982854D01*
X16330907Y-13668569D02*
X16259478Y-13882854D01*
X16445193Y-13882854D01*
X16788050Y-13982854D02*
X16788050Y-13682854D01*
X16916621Y-13982854D02*
X16916621Y-13825711D01*
X16902336Y-13797140D01*
X16873764Y-13782854D01*
X16830907Y-13782854D01*
X16802336Y-13797140D01*
X16788050Y-13811426D01*
X17102336Y-13982854D02*
X17073764Y-13968569D01*
X17059478Y-13954283D01*
X17045193Y-13925711D01*
X17045193Y-13839997D01*
X17059478Y-13811426D01*
X17073764Y-13797140D01*
X17102336Y-13782854D01*
X17145193Y-13782854D01*
X17173764Y-13797140D01*
X17188050Y-13811426D01*
X17202336Y-13839997D01*
X17202336Y-13925711D01*
X17188050Y-13954283D01*
X17173764Y-13968569D01*
X17145193Y-13982854D01*
X17102336Y-13982854D01*
X17373764Y-13982854D02*
X17345193Y-13968569D01*
X17330907Y-13939997D01*
X17330907Y-13682854D01*
X17602336Y-13968569D02*
X17573764Y-13982854D01*
X17516621Y-13982854D01*
X17488050Y-13968569D01*
X17473764Y-13939997D01*
X17473764Y-13825711D01*
X17488050Y-13797140D01*
X17516621Y-13782854D01*
X17573764Y-13782854D01*
X17602336Y-13797140D01*
X17616621Y-13825711D01*
X17616621Y-13854283D01*
X17473764Y-13882854D01*
X17730907Y-13968569D02*
X17759478Y-13982854D01*
X17816621Y-13982854D01*
X17845193Y-13968569D01*
X17859478Y-13939997D01*
X17859478Y-13925711D01*
X17845193Y-13897140D01*
X17816621Y-13882854D01*
X17773764Y-13882854D01*
X17745193Y-13868569D01*
X17730907Y-13839997D01*
X17730907Y-13825711D01*
X17745193Y-13797140D01*
X17773764Y-13782854D01*
X17816621Y-13782854D01*
X17845193Y-13797140D01*
X17959478Y-14097140D02*
X17973764Y-14082854D01*
X18002336Y-14039997D01*
X18016621Y-14011426D01*
X18030907Y-13968569D01*
X18045193Y-13897140D01*
X18045193Y-13839997D01*
X18030907Y-13768569D01*
X18016621Y-13725711D01*
X18002336Y-13697140D01*
X17973764Y-13654283D01*
X17959478Y-13639997D01*
M02*
