G04 #@! TF.GenerationSoftware,KiCad,Pcbnew,(5.1.4)-1*
G04 #@! TF.CreationDate,2021-02-21T00:25:35+00:00*
G04 #@! TF.ProjectId,5v_to_bipolar15v_PSU,35765f74-6f5f-4626-9970-6f6c61723135,rev?*
G04 #@! TF.SameCoordinates,Original*
G04 #@! TF.FileFunction,Soldermask,Top*
G04 #@! TF.FilePolarity,Negative*
%FSLAX46Y46*%
G04 Gerber Fmt 4.6, Leading zero omitted, Abs format (unit mm)*
G04 Created by KiCad (PCBNEW (5.1.4)-1) date 2021-02-21 00:25:35*
%MOMM*%
%LPD*%
G04 APERTURE LIST*
%ADD10C,0.100000*%
G04 APERTURE END LIST*
D10*
G36*
X142300000Y-101073400D02*
G01*
X132775000Y-101073400D01*
X127504500Y-101771900D01*
X127504500Y-92056400D01*
X131251000Y-86214400D01*
X142300000Y-86214400D01*
X142300000Y-101073400D01*
G37*
X142300000Y-101073400D02*
X132775000Y-101073400D01*
X127504500Y-101771900D01*
X127504500Y-92056400D01*
X131251000Y-86214400D01*
X142300000Y-86214400D01*
X142300000Y-101073400D01*
G36*
X142617500Y-107359900D02*
G01*
X149285000Y-116503900D01*
X122170500Y-116630900D01*
X122170500Y-110153900D01*
X126678500Y-110138400D01*
X131758500Y-107344400D01*
X138489500Y-107344400D01*
X142617500Y-107359900D01*
G37*
X142617500Y-107359900D02*
X149285000Y-116503900D01*
X122170500Y-116630900D01*
X122170500Y-110153900D01*
X126678500Y-110138400D01*
X131758500Y-107344400D01*
X138489500Y-107344400D01*
X142617500Y-107359900D01*
G36*
X117592756Y-112857698D02*
G01*
X117699079Y-112878847D01*
X117999542Y-113003303D01*
X118269951Y-113183985D01*
X118499915Y-113413949D01*
X118680597Y-113684358D01*
X118805053Y-113984821D01*
X118868500Y-114303791D01*
X118868500Y-114629009D01*
X118805053Y-114947979D01*
X118680597Y-115248442D01*
X118499915Y-115518851D01*
X118269951Y-115748815D01*
X117999542Y-115929497D01*
X117699079Y-116053953D01*
X117592756Y-116075102D01*
X117380111Y-116117400D01*
X117054889Y-116117400D01*
X116842244Y-116075102D01*
X116735921Y-116053953D01*
X116435458Y-115929497D01*
X116165049Y-115748815D01*
X115935085Y-115518851D01*
X115754403Y-115248442D01*
X115629947Y-114947979D01*
X115566500Y-114629009D01*
X115566500Y-114303791D01*
X115629947Y-113984821D01*
X115754403Y-113684358D01*
X115935085Y-113413949D01*
X116165049Y-113183985D01*
X116435458Y-113003303D01*
X116735921Y-112878847D01*
X116842244Y-112857698D01*
X117054889Y-112815400D01*
X117380111Y-112815400D01*
X117592756Y-112857698D01*
X117592756Y-112857698D01*
G37*
G36*
X182336256Y-112744698D02*
G01*
X182442579Y-112765847D01*
X182743042Y-112890303D01*
X183013451Y-113070985D01*
X183243415Y-113300949D01*
X183424097Y-113571358D01*
X183548553Y-113871821D01*
X183612000Y-114190791D01*
X183612000Y-114516009D01*
X183548553Y-114834979D01*
X183424097Y-115135442D01*
X183243415Y-115405851D01*
X183013451Y-115635815D01*
X182743042Y-115816497D01*
X182442579Y-115940953D01*
X182336256Y-115962102D01*
X182123611Y-116004400D01*
X181798389Y-116004400D01*
X181585744Y-115962102D01*
X181479421Y-115940953D01*
X181178958Y-115816497D01*
X180908549Y-115635815D01*
X180678585Y-115405851D01*
X180497903Y-115135442D01*
X180373447Y-114834979D01*
X180310000Y-114516009D01*
X180310000Y-114190791D01*
X180373447Y-113871821D01*
X180497903Y-113571358D01*
X180678585Y-113300949D01*
X180908549Y-113070985D01*
X181178958Y-112890303D01*
X181479421Y-112765847D01*
X181585744Y-112744698D01*
X181798389Y-112702400D01*
X182123611Y-112702400D01*
X182336256Y-112744698D01*
X182336256Y-112744698D01*
G37*
G36*
X139462000Y-114342400D02*
G01*
X132360000Y-114342400D01*
X132360000Y-107240400D01*
X139462000Y-107240400D01*
X139462000Y-114342400D01*
X139462000Y-114342400D01*
G37*
G36*
X173099000Y-113947900D02*
G01*
X171997000Y-113947900D01*
X171997000Y-112845900D01*
X173099000Y-112845900D01*
X173099000Y-113947900D01*
X173099000Y-113947900D01*
G37*
G36*
X165377032Y-109767607D02*
G01*
X165509446Y-109807775D01*
X165575149Y-109827706D01*
X165671975Y-109879461D01*
X165757729Y-109925297D01*
X165917765Y-110056635D01*
X166049103Y-110216671D01*
X166080291Y-110275021D01*
X166146694Y-110399251D01*
X166146695Y-110399255D01*
X166206793Y-110597369D01*
X166207977Y-110609389D01*
X166222000Y-110751770D01*
X166222000Y-111455031D01*
X166220974Y-111465448D01*
X166206793Y-111609432D01*
X166146695Y-111807545D01*
X166146694Y-111807549D01*
X166112025Y-111872410D01*
X166049103Y-111990129D01*
X165917765Y-112150165D01*
X165757729Y-112281503D01*
X165641030Y-112343879D01*
X165575148Y-112379094D01*
X165575145Y-112379095D01*
X165377031Y-112439193D01*
X165171000Y-112459485D01*
X164964968Y-112439193D01*
X164766854Y-112379095D01*
X164766851Y-112379094D01*
X164653301Y-112318400D01*
X164584271Y-112281503D01*
X164424235Y-112150165D01*
X164292897Y-111990129D01*
X164201198Y-111818571D01*
X164195306Y-111807548D01*
X164166613Y-111712960D01*
X164135207Y-111609431D01*
X164120000Y-111455029D01*
X164120000Y-110751770D01*
X164135207Y-110597368D01*
X164154296Y-110534440D01*
X164195305Y-110399253D01*
X164270184Y-110259165D01*
X164292898Y-110216671D01*
X164424236Y-110056635D01*
X164584272Y-109925297D01*
X164670026Y-109879461D01*
X164766852Y-109827706D01*
X164832555Y-109807775D01*
X164964969Y-109767607D01*
X165171000Y-109747315D01*
X165377032Y-109767607D01*
X165377032Y-109767607D01*
G37*
G36*
X168762000Y-112454400D02*
G01*
X166660000Y-112454400D01*
X166660000Y-109752400D01*
X168762000Y-109752400D01*
X168762000Y-112454400D01*
X168762000Y-112454400D01*
G37*
G36*
X126926500Y-112318400D02*
G01*
X125024500Y-112318400D01*
X125024500Y-109716400D01*
X126926500Y-109716400D01*
X126926500Y-112318400D01*
X126926500Y-112318400D01*
G37*
G36*
X173807928Y-111448664D02*
G01*
X173829009Y-111455060D01*
X173848445Y-111465448D01*
X173865476Y-111479424D01*
X173879452Y-111496455D01*
X173889840Y-111515891D01*
X173896236Y-111536972D01*
X173899000Y-111565040D01*
X173899000Y-112028760D01*
X173896236Y-112056828D01*
X173889840Y-112077909D01*
X173879452Y-112097345D01*
X173865476Y-112114376D01*
X173848445Y-112128352D01*
X173829009Y-112138740D01*
X173807928Y-112145136D01*
X173779860Y-112147900D01*
X171316140Y-112147900D01*
X171288072Y-112145136D01*
X171266991Y-112138740D01*
X171247555Y-112128352D01*
X171230524Y-112114376D01*
X171216548Y-112097345D01*
X171206160Y-112077909D01*
X171199764Y-112056828D01*
X171197000Y-112028760D01*
X171197000Y-111565040D01*
X171199764Y-111536972D01*
X171206160Y-111515891D01*
X171216548Y-111496455D01*
X171230524Y-111479424D01*
X171247555Y-111465448D01*
X171266991Y-111455060D01*
X171288072Y-111448664D01*
X171316140Y-111445900D01*
X173779860Y-111445900D01*
X173807928Y-111448664D01*
X173807928Y-111448664D01*
G37*
G36*
X143209658Y-109124229D02*
G01*
X143209661Y-109124230D01*
X143209660Y-109124230D01*
X143464627Y-109229841D01*
X143694092Y-109383164D01*
X143889236Y-109578308D01*
X144002162Y-109747315D01*
X144042560Y-109807775D01*
X144148171Y-110062742D01*
X144202010Y-110333411D01*
X144202010Y-110609389D01*
X144148171Y-110880058D01*
X144148170Y-110880060D01*
X144042559Y-111135027D01*
X143889236Y-111364492D01*
X143694092Y-111559636D01*
X143464627Y-111712959D01*
X143464626Y-111712960D01*
X143464625Y-111712960D01*
X143209658Y-111818571D01*
X142938989Y-111872410D01*
X142663011Y-111872410D01*
X142392342Y-111818571D01*
X142137375Y-111712960D01*
X142137374Y-111712960D01*
X142137373Y-111712959D01*
X141907908Y-111559636D01*
X141712764Y-111364492D01*
X141559441Y-111135027D01*
X141453830Y-110880060D01*
X141453829Y-110880058D01*
X141399990Y-110609389D01*
X141399990Y-110333411D01*
X141453829Y-110062742D01*
X141559440Y-109807775D01*
X141599838Y-109747315D01*
X141712764Y-109578308D01*
X141907908Y-109383164D01*
X142137373Y-109229841D01*
X142392340Y-109124230D01*
X142392339Y-109124230D01*
X142392342Y-109124229D01*
X142663011Y-109070390D01*
X142938989Y-109070390D01*
X143209658Y-109124229D01*
X143209658Y-109124229D01*
G37*
G36*
X153369658Y-109124229D02*
G01*
X153369661Y-109124230D01*
X153369660Y-109124230D01*
X153624627Y-109229841D01*
X153854092Y-109383164D01*
X154049236Y-109578308D01*
X154162162Y-109747315D01*
X154202560Y-109807775D01*
X154308171Y-110062742D01*
X154362010Y-110333411D01*
X154362010Y-110609389D01*
X154308171Y-110880058D01*
X154308170Y-110880060D01*
X154202559Y-111135027D01*
X154049236Y-111364492D01*
X153854092Y-111559636D01*
X153624627Y-111712959D01*
X153624626Y-111712960D01*
X153624625Y-111712960D01*
X153369658Y-111818571D01*
X153098989Y-111872410D01*
X152823011Y-111872410D01*
X152552342Y-111818571D01*
X152297375Y-111712960D01*
X152297374Y-111712960D01*
X152297373Y-111712959D01*
X152067908Y-111559636D01*
X151872764Y-111364492D01*
X151719441Y-111135027D01*
X151613830Y-110880060D01*
X151613829Y-110880058D01*
X151559990Y-110609389D01*
X151559990Y-110333411D01*
X151613829Y-110062742D01*
X151719440Y-109807775D01*
X151759838Y-109747315D01*
X151872764Y-109578308D01*
X152067908Y-109383164D01*
X152297373Y-109229841D01*
X152552340Y-109124230D01*
X152552339Y-109124230D01*
X152552342Y-109124229D01*
X152823011Y-109070390D01*
X153098989Y-109070390D01*
X153369658Y-109124229D01*
X153369658Y-109124229D01*
G37*
G36*
X173099000Y-110747900D02*
G01*
X171997000Y-110747900D01*
X171997000Y-109645900D01*
X173099000Y-109645900D01*
X173099000Y-110747900D01*
X173099000Y-110747900D01*
G37*
G36*
X122962500Y-109703400D02*
G01*
X121860500Y-109703400D01*
X121860500Y-108001400D01*
X122962500Y-108001400D01*
X122962500Y-109703400D01*
X122962500Y-109703400D01*
G37*
G36*
X119962500Y-109703400D02*
G01*
X118860500Y-109703400D01*
X118860500Y-108001400D01*
X119962500Y-108001400D01*
X119962500Y-109703400D01*
X119962500Y-109703400D01*
G37*
G36*
X161456500Y-109443400D02*
G01*
X155654500Y-109443400D01*
X155654500Y-107641400D01*
X161456500Y-107641400D01*
X161456500Y-109443400D01*
X161456500Y-109443400D01*
G37*
G36*
X126926500Y-108318400D02*
G01*
X125024500Y-108318400D01*
X125024500Y-105716400D01*
X126926500Y-105716400D01*
X126926500Y-108318400D01*
X126926500Y-108318400D01*
G37*
G36*
X180318610Y-105797514D02*
G01*
X180541727Y-105889932D01*
X180541729Y-105889933D01*
X180592269Y-105923703D01*
X180742529Y-106024103D01*
X180913297Y-106194871D01*
X181047468Y-106395673D01*
X181139886Y-106618790D01*
X181187000Y-106855648D01*
X181187000Y-107097152D01*
X181139886Y-107334010D01*
X181047468Y-107557127D01*
X180913297Y-107757929D01*
X180742529Y-107928697D01*
X180592269Y-108029097D01*
X180541729Y-108062867D01*
X180541728Y-108062868D01*
X180541727Y-108062868D01*
X180318610Y-108155286D01*
X180081752Y-108202400D01*
X179840248Y-108202400D01*
X179603390Y-108155286D01*
X179380273Y-108062868D01*
X179380272Y-108062868D01*
X179380271Y-108062867D01*
X179329731Y-108029097D01*
X179179471Y-107928697D01*
X179008703Y-107757929D01*
X178874532Y-107557127D01*
X178782114Y-107334010D01*
X178735000Y-107097152D01*
X178735000Y-106855648D01*
X178782114Y-106618790D01*
X178874532Y-106395673D01*
X179008703Y-106194871D01*
X179179471Y-106024103D01*
X179329731Y-105923703D01*
X179380271Y-105889933D01*
X179380273Y-105889932D01*
X179603390Y-105797514D01*
X179840248Y-105750400D01*
X180081752Y-105750400D01*
X180318610Y-105797514D01*
X180318610Y-105797514D01*
G37*
G36*
X172176500Y-107375400D02*
G01*
X171274500Y-107375400D01*
X171274500Y-106373400D01*
X172176500Y-106373400D01*
X172176500Y-107375400D01*
X172176500Y-107375400D01*
G37*
G36*
X122938500Y-107290400D02*
G01*
X121836500Y-107290400D01*
X121836500Y-105588400D01*
X122938500Y-105588400D01*
X122938500Y-107290400D01*
X122938500Y-107290400D01*
G37*
G36*
X119938500Y-107290400D02*
G01*
X118836500Y-107290400D01*
X118836500Y-105588400D01*
X119938500Y-105588400D01*
X119938500Y-107290400D01*
X119938500Y-107290400D01*
G37*
G36*
X154707500Y-107236400D02*
G01*
X153005500Y-107236400D01*
X153005500Y-106134400D01*
X154707500Y-106134400D01*
X154707500Y-107236400D01*
X154707500Y-107236400D01*
G37*
G36*
X152294500Y-107236400D02*
G01*
X150592500Y-107236400D01*
X150592500Y-106134400D01*
X152294500Y-106134400D01*
X152294500Y-107236400D01*
X152294500Y-107236400D01*
G37*
G36*
X149754500Y-107236400D02*
G01*
X148052500Y-107236400D01*
X148052500Y-106134400D01*
X149754500Y-106134400D01*
X149754500Y-107236400D01*
X149754500Y-107236400D01*
G37*
G36*
X169284000Y-106520400D02*
G01*
X168582000Y-106520400D01*
X168582000Y-106018400D01*
X169284000Y-106018400D01*
X169284000Y-106520400D01*
X169284000Y-106520400D01*
G37*
G36*
X169284000Y-105620400D02*
G01*
X168582000Y-105620400D01*
X168582000Y-105118400D01*
X169284000Y-105118400D01*
X169284000Y-105620400D01*
X169284000Y-105620400D01*
G37*
G36*
X171226500Y-105375400D02*
G01*
X170324500Y-105375400D01*
X170324500Y-104373400D01*
X171226500Y-104373400D01*
X171226500Y-105375400D01*
X171226500Y-105375400D01*
G37*
G36*
X173126500Y-105375400D02*
G01*
X172224500Y-105375400D01*
X172224500Y-104373400D01*
X173126500Y-104373400D01*
X173126500Y-105375400D01*
X173126500Y-105375400D01*
G37*
G36*
X139262000Y-105192400D02*
G01*
X137160000Y-105192400D01*
X137160000Y-101590400D01*
X139262000Y-101590400D01*
X139262000Y-105192400D01*
X139262000Y-105192400D01*
G37*
G36*
X134682000Y-105192400D02*
G01*
X132580000Y-105192400D01*
X132580000Y-101590400D01*
X134682000Y-101590400D01*
X134682000Y-105192400D01*
X134682000Y-105192400D01*
G37*
G36*
X126926500Y-104952400D02*
G01*
X125024500Y-104952400D01*
X125024500Y-102350400D01*
X126926500Y-102350400D01*
X126926500Y-104952400D01*
X126926500Y-104952400D01*
G37*
G36*
X161456500Y-104943400D02*
G01*
X155654500Y-104943400D01*
X155654500Y-103141400D01*
X161456500Y-103141400D01*
X161456500Y-104943400D01*
X161456500Y-104943400D01*
G37*
G36*
X122962500Y-104877400D02*
G01*
X121860500Y-104877400D01*
X121860500Y-103175400D01*
X122962500Y-103175400D01*
X122962500Y-104877400D01*
X122962500Y-104877400D01*
G37*
G36*
X119962500Y-104877400D02*
G01*
X118860500Y-104877400D01*
X118860500Y-103175400D01*
X119962500Y-103175400D01*
X119962500Y-104877400D01*
X119962500Y-104877400D01*
G37*
G36*
X152294500Y-104236400D02*
G01*
X150592500Y-104236400D01*
X150592500Y-103134400D01*
X152294500Y-103134400D01*
X152294500Y-104236400D01*
X152294500Y-104236400D01*
G37*
G36*
X149754500Y-104236400D02*
G01*
X148052500Y-104236400D01*
X148052500Y-103134400D01*
X149754500Y-103134400D01*
X149754500Y-104236400D01*
X149754500Y-104236400D01*
G37*
G36*
X154707500Y-104236400D02*
G01*
X153005500Y-104236400D01*
X153005500Y-103134400D01*
X154707500Y-103134400D01*
X154707500Y-104236400D01*
X154707500Y-104236400D01*
G37*
G36*
X173262000Y-103239400D02*
G01*
X172260000Y-103239400D01*
X172260000Y-101937400D01*
X173262000Y-101937400D01*
X173262000Y-103239400D01*
X173262000Y-103239400D01*
G37*
G36*
X169962000Y-103239400D02*
G01*
X168960000Y-103239400D01*
X168960000Y-101937400D01*
X169962000Y-101937400D01*
X169962000Y-103239400D01*
X169962000Y-103239400D01*
G37*
G36*
X180318610Y-100797514D02*
G01*
X180541727Y-100889932D01*
X180541729Y-100889933D01*
X180592269Y-100923703D01*
X180742529Y-101024103D01*
X180913297Y-101194871D01*
X181047468Y-101395673D01*
X181139886Y-101618790D01*
X181187000Y-101855648D01*
X181187000Y-102097152D01*
X181139886Y-102334010D01*
X181047468Y-102557127D01*
X180913297Y-102757929D01*
X180742529Y-102928697D01*
X180592269Y-103029097D01*
X180541729Y-103062867D01*
X180541728Y-103062868D01*
X180541727Y-103062868D01*
X180318610Y-103155286D01*
X180081752Y-103202400D01*
X179840248Y-103202400D01*
X179603390Y-103155286D01*
X179380273Y-103062868D01*
X179380272Y-103062868D01*
X179380271Y-103062867D01*
X179329731Y-103029097D01*
X179179471Y-102928697D01*
X179008703Y-102757929D01*
X178874532Y-102557127D01*
X178782114Y-102334010D01*
X178735000Y-102097152D01*
X178735000Y-101855648D01*
X178782114Y-101618790D01*
X178874532Y-101395673D01*
X179008703Y-101194871D01*
X179179471Y-101024103D01*
X179329731Y-100923703D01*
X179380271Y-100889933D01*
X179380273Y-100889932D01*
X179603390Y-100797514D01*
X179840248Y-100750400D01*
X180081752Y-100750400D01*
X180318610Y-100797514D01*
X180318610Y-100797514D01*
G37*
G36*
X161140500Y-102080400D02*
G01*
X160288500Y-102080400D01*
X160288500Y-101178400D01*
X161140500Y-101178400D01*
X161140500Y-102080400D01*
X161140500Y-102080400D01*
G37*
G36*
X159362500Y-102068400D02*
G01*
X158510500Y-102068400D01*
X158510500Y-101166400D01*
X159362500Y-101166400D01*
X159362500Y-102068400D01*
X159362500Y-102068400D01*
G37*
G36*
X157584500Y-102068400D02*
G01*
X156732500Y-102068400D01*
X156732500Y-101166400D01*
X157584500Y-101166400D01*
X157584500Y-102068400D01*
X157584500Y-102068400D01*
G37*
G36*
X162887000Y-102054400D02*
G01*
X162035000Y-102054400D01*
X162035000Y-101152400D01*
X162887000Y-101152400D01*
X162887000Y-102054400D01*
X162887000Y-102054400D01*
G37*
G36*
X147137500Y-101803400D02*
G01*
X146435500Y-101803400D01*
X146435500Y-101201400D01*
X147137500Y-101201400D01*
X147137500Y-101803400D01*
X147137500Y-101803400D01*
G37*
G36*
X146037500Y-101803400D02*
G01*
X145335500Y-101803400D01*
X145335500Y-101201400D01*
X146037500Y-101201400D01*
X146037500Y-101803400D01*
X146037500Y-101803400D01*
G37*
G36*
X151665500Y-101691400D02*
G01*
X149063500Y-101691400D01*
X149063500Y-99789400D01*
X151665500Y-99789400D01*
X151665500Y-101691400D01*
X151665500Y-101691400D01*
G37*
G36*
X155665500Y-101691400D02*
G01*
X153063500Y-101691400D01*
X153063500Y-99789400D01*
X155665500Y-99789400D01*
X155665500Y-101691400D01*
X155665500Y-101691400D01*
G37*
G36*
X126926500Y-100952400D02*
G01*
X125024500Y-100952400D01*
X125024500Y-98350400D01*
X126926500Y-98350400D01*
X126926500Y-100952400D01*
X126926500Y-100952400D01*
G37*
G36*
X161140500Y-100580400D02*
G01*
X160288500Y-100580400D01*
X160288500Y-99678400D01*
X161140500Y-99678400D01*
X161140500Y-100580400D01*
X161140500Y-100580400D01*
G37*
G36*
X159362500Y-100568400D02*
G01*
X158510500Y-100568400D01*
X158510500Y-99666400D01*
X159362500Y-99666400D01*
X159362500Y-100568400D01*
X159362500Y-100568400D01*
G37*
G36*
X157584500Y-100568400D02*
G01*
X156732500Y-100568400D01*
X156732500Y-99666400D01*
X157584500Y-99666400D01*
X157584500Y-100568400D01*
X157584500Y-100568400D01*
G37*
G36*
X162887000Y-100554400D02*
G01*
X162035000Y-100554400D01*
X162035000Y-99652400D01*
X162887000Y-99652400D01*
X162887000Y-100554400D01*
X162887000Y-100554400D01*
G37*
G36*
X121552500Y-100517400D02*
G01*
X118850500Y-100517400D01*
X118850500Y-98415400D01*
X121552500Y-98415400D01*
X121552500Y-100517400D01*
X121552500Y-100517400D01*
G37*
G36*
X173162000Y-100454400D02*
G01*
X169260000Y-100454400D01*
X169260000Y-98352400D01*
X173162000Y-98352400D01*
X173162000Y-100454400D01*
X173162000Y-100454400D01*
G37*
G36*
X147987500Y-100225400D02*
G01*
X146685500Y-100225400D01*
X146685500Y-99223400D01*
X147987500Y-99223400D01*
X147987500Y-100225400D01*
X147987500Y-100225400D01*
G37*
G36*
X145787500Y-100225400D02*
G01*
X144485500Y-100225400D01*
X144485500Y-99223400D01*
X145787500Y-99223400D01*
X145787500Y-100225400D01*
X145787500Y-100225400D01*
G37*
G36*
X161456500Y-98684400D02*
G01*
X155654500Y-98684400D01*
X155654500Y-96882400D01*
X161456500Y-96882400D01*
X161456500Y-98684400D01*
X161456500Y-98684400D01*
G37*
G36*
X149964500Y-98258400D02*
G01*
X149112500Y-98258400D01*
X149112500Y-97356400D01*
X149964500Y-97356400D01*
X149964500Y-98258400D01*
X149964500Y-98258400D01*
G37*
G36*
X147987500Y-98193400D02*
G01*
X146685500Y-98193400D01*
X146685500Y-97191400D01*
X147987500Y-97191400D01*
X147987500Y-98193400D01*
X147987500Y-98193400D01*
G37*
G36*
X145787500Y-98193400D02*
G01*
X144485500Y-98193400D01*
X144485500Y-97191400D01*
X145787500Y-97191400D01*
X145787500Y-98193400D01*
X145787500Y-98193400D01*
G37*
G36*
X120604597Y-95880469D02*
G01*
X120707532Y-95890607D01*
X120905646Y-95950705D01*
X120905649Y-95950706D01*
X121002475Y-96002461D01*
X121088229Y-96048297D01*
X121248265Y-96179635D01*
X121379603Y-96339671D01*
X121404045Y-96385400D01*
X121477194Y-96522251D01*
X121477195Y-96522254D01*
X121537293Y-96720368D01*
X121557585Y-96926400D01*
X121537293Y-97132432D01*
X121519405Y-97191400D01*
X121477194Y-97330549D01*
X121463376Y-97356400D01*
X121379603Y-97513129D01*
X121248265Y-97673165D01*
X121088229Y-97804503D01*
X121002475Y-97850339D01*
X120905649Y-97902094D01*
X120905646Y-97902095D01*
X120707532Y-97962193D01*
X120604597Y-97972331D01*
X120553131Y-97977400D01*
X119849869Y-97977400D01*
X119798403Y-97972331D01*
X119695468Y-97962193D01*
X119497354Y-97902095D01*
X119497351Y-97902094D01*
X119400525Y-97850339D01*
X119314771Y-97804503D01*
X119154735Y-97673165D01*
X119023397Y-97513129D01*
X118939624Y-97356400D01*
X118925806Y-97330549D01*
X118883595Y-97191400D01*
X118865707Y-97132432D01*
X118845415Y-96926400D01*
X118865707Y-96720368D01*
X118925805Y-96522254D01*
X118925806Y-96522251D01*
X118998955Y-96385400D01*
X119023397Y-96339671D01*
X119154735Y-96179635D01*
X119314771Y-96048297D01*
X119400525Y-96002461D01*
X119497351Y-95950706D01*
X119497354Y-95950705D01*
X119695468Y-95890607D01*
X119798403Y-95880469D01*
X119849869Y-95875400D01*
X120553131Y-95875400D01*
X120604597Y-95880469D01*
X120604597Y-95880469D01*
G37*
G36*
X153319000Y-97877400D02*
G01*
X151667000Y-97877400D01*
X151667000Y-95295400D01*
X153319000Y-95295400D01*
X153319000Y-97877400D01*
X153319000Y-97877400D01*
G37*
G36*
X151319000Y-97787400D02*
G01*
X150567000Y-97787400D01*
X150567000Y-95385400D01*
X151319000Y-95385400D01*
X151319000Y-97787400D01*
X151319000Y-97787400D01*
G37*
G36*
X154419000Y-97787400D02*
G01*
X153667000Y-97787400D01*
X153667000Y-95385400D01*
X154419000Y-95385400D01*
X154419000Y-97787400D01*
X154419000Y-97787400D01*
G37*
G36*
X149964500Y-96758400D02*
G01*
X149112500Y-96758400D01*
X149112500Y-95856400D01*
X149964500Y-95856400D01*
X149964500Y-96758400D01*
X149964500Y-96758400D01*
G37*
G36*
X163462000Y-96404400D02*
G01*
X162460000Y-96404400D01*
X162460000Y-95802400D01*
X163462000Y-95802400D01*
X163462000Y-96404400D01*
X163462000Y-96404400D01*
G37*
G36*
X126926500Y-96284400D02*
G01*
X125024500Y-96284400D01*
X125024500Y-93682400D01*
X126926500Y-93682400D01*
X126926500Y-96284400D01*
X126926500Y-96284400D01*
G37*
G36*
X147987500Y-96161400D02*
G01*
X146685500Y-96161400D01*
X146685500Y-95159400D01*
X147987500Y-95159400D01*
X147987500Y-96161400D01*
X147987500Y-96161400D01*
G37*
G36*
X145787500Y-96161400D02*
G01*
X144485500Y-96161400D01*
X144485500Y-95159400D01*
X145787500Y-95159400D01*
X145787500Y-96161400D01*
X145787500Y-96161400D01*
G37*
G36*
X120604597Y-93340469D02*
G01*
X120707532Y-93350607D01*
X120905646Y-93410705D01*
X120905649Y-93410706D01*
X120987394Y-93454400D01*
X121088229Y-93508297D01*
X121248265Y-93639635D01*
X121379603Y-93799671D01*
X121425439Y-93885425D01*
X121477194Y-93982251D01*
X121477195Y-93982254D01*
X121537293Y-94180368D01*
X121557585Y-94386400D01*
X121537293Y-94592432D01*
X121477195Y-94790546D01*
X121477194Y-94790549D01*
X121425439Y-94887375D01*
X121379603Y-94973129D01*
X121248265Y-95133165D01*
X121088229Y-95264503D01*
X121030424Y-95295400D01*
X120905649Y-95362094D01*
X120905646Y-95362095D01*
X120707532Y-95422193D01*
X120604597Y-95432331D01*
X120553131Y-95437400D01*
X119849869Y-95437400D01*
X119798403Y-95432331D01*
X119695468Y-95422193D01*
X119497354Y-95362095D01*
X119497351Y-95362094D01*
X119372576Y-95295400D01*
X119314771Y-95264503D01*
X119154735Y-95133165D01*
X119023397Y-94973129D01*
X118977561Y-94887375D01*
X118925806Y-94790549D01*
X118925805Y-94790546D01*
X118865707Y-94592432D01*
X118845415Y-94386400D01*
X118865707Y-94180368D01*
X118925805Y-93982254D01*
X118925806Y-93982251D01*
X118977561Y-93885425D01*
X119023397Y-93799671D01*
X119154735Y-93639635D01*
X119314771Y-93508297D01*
X119415606Y-93454400D01*
X119497351Y-93410706D01*
X119497354Y-93410705D01*
X119695468Y-93350607D01*
X119798403Y-93340469D01*
X119849869Y-93335400D01*
X120553131Y-93335400D01*
X120604597Y-93340469D01*
X120604597Y-93340469D01*
G37*
G36*
X163462000Y-94904400D02*
G01*
X162460000Y-94904400D01*
X162460000Y-94302400D01*
X163462000Y-94302400D01*
X163462000Y-94904400D01*
X163462000Y-94904400D01*
G37*
G36*
X151373500Y-94256400D02*
G01*
X150071500Y-94256400D01*
X150071500Y-93254400D01*
X151373500Y-93254400D01*
X151373500Y-94256400D01*
X151373500Y-94256400D01*
G37*
G36*
X149173500Y-94256400D02*
G01*
X147871500Y-94256400D01*
X147871500Y-93254400D01*
X149173500Y-93254400D01*
X149173500Y-94256400D01*
X149173500Y-94256400D01*
G37*
G36*
X161456500Y-94184400D02*
G01*
X155654500Y-94184400D01*
X155654500Y-92382400D01*
X161456500Y-92382400D01*
X161456500Y-94184400D01*
X161456500Y-94184400D01*
G37*
G36*
X172012000Y-94154400D02*
G01*
X170410000Y-94154400D01*
X170410000Y-92052400D01*
X172012000Y-92052400D01*
X172012000Y-94154400D01*
X172012000Y-94154400D01*
G37*
G36*
X169712000Y-94154400D02*
G01*
X168110000Y-94154400D01*
X168110000Y-92052400D01*
X169712000Y-92052400D01*
X169712000Y-94154400D01*
X169712000Y-94154400D01*
G37*
G36*
X174312000Y-94154400D02*
G01*
X172710000Y-94154400D01*
X172710000Y-92052400D01*
X174312000Y-92052400D01*
X174312000Y-94154400D01*
X174312000Y-94154400D01*
G37*
G36*
X145698500Y-94056400D02*
G01*
X144996500Y-94056400D01*
X144996500Y-93454400D01*
X145698500Y-93454400D01*
X145698500Y-94056400D01*
X145698500Y-94056400D01*
G37*
G36*
X146798500Y-94056400D02*
G01*
X146096500Y-94056400D01*
X146096500Y-93454400D01*
X146798500Y-93454400D01*
X146798500Y-94056400D01*
X146798500Y-94056400D01*
G37*
G36*
X139512000Y-93342400D02*
G01*
X132410000Y-93342400D01*
X132410000Y-86240400D01*
X139512000Y-86240400D01*
X139512000Y-93342400D01*
X139512000Y-93342400D01*
G37*
G36*
X180318610Y-90797514D02*
G01*
X180541727Y-90889932D01*
X180541729Y-90889933D01*
X180592269Y-90923703D01*
X180742529Y-91024103D01*
X180913297Y-91194871D01*
X181047468Y-91395673D01*
X181139886Y-91618790D01*
X181187000Y-91855648D01*
X181187000Y-92097152D01*
X181139886Y-92334010D01*
X181047468Y-92557127D01*
X180913297Y-92757929D01*
X180742529Y-92928697D01*
X180592269Y-93029097D01*
X180541729Y-93062867D01*
X180541728Y-93062868D01*
X180541727Y-93062868D01*
X180318610Y-93155286D01*
X180081752Y-93202400D01*
X179840248Y-93202400D01*
X179603390Y-93155286D01*
X179380273Y-93062868D01*
X179380272Y-93062868D01*
X179380271Y-93062867D01*
X179329731Y-93029097D01*
X179179471Y-92928697D01*
X179008703Y-92757929D01*
X178874532Y-92557127D01*
X178782114Y-92334010D01*
X178735000Y-92097152D01*
X178735000Y-91855648D01*
X178782114Y-91618790D01*
X178874532Y-91395673D01*
X179008703Y-91194871D01*
X179179471Y-91024103D01*
X179329731Y-90923703D01*
X179380271Y-90889933D01*
X179380273Y-90889932D01*
X179603390Y-90797514D01*
X179840248Y-90750400D01*
X180081752Y-90750400D01*
X180318610Y-90797514D01*
X180318610Y-90797514D01*
G37*
G36*
X126926500Y-92284400D02*
G01*
X125024500Y-92284400D01*
X125024500Y-89682400D01*
X126926500Y-89682400D01*
X126926500Y-92284400D01*
X126926500Y-92284400D01*
G37*
G36*
X145121658Y-89312229D02*
G01*
X145121661Y-89312230D01*
X145121660Y-89312230D01*
X145376627Y-89417841D01*
X145606092Y-89571164D01*
X145801236Y-89766308D01*
X145879474Y-89883400D01*
X145954560Y-89995775D01*
X146060171Y-90250742D01*
X146114010Y-90521411D01*
X146114010Y-90797389D01*
X146060171Y-91068058D01*
X146060170Y-91068060D01*
X145954559Y-91323027D01*
X145801236Y-91552492D01*
X145606092Y-91747636D01*
X145376627Y-91900959D01*
X145376626Y-91900960D01*
X145376625Y-91900960D01*
X145121658Y-92006571D01*
X144850989Y-92060410D01*
X144575011Y-92060410D01*
X144304342Y-92006571D01*
X144049375Y-91900960D01*
X144049374Y-91900960D01*
X144049373Y-91900959D01*
X143819908Y-91747636D01*
X143624764Y-91552492D01*
X143471441Y-91323027D01*
X143365830Y-91068060D01*
X143365829Y-91068058D01*
X143311990Y-90797389D01*
X143311990Y-90521411D01*
X143365829Y-90250742D01*
X143471440Y-89995775D01*
X143546526Y-89883400D01*
X143624764Y-89766308D01*
X143819908Y-89571164D01*
X144049373Y-89417841D01*
X144304340Y-89312230D01*
X144304339Y-89312230D01*
X144304342Y-89312229D01*
X144575011Y-89258390D01*
X144850989Y-89258390D01*
X145121658Y-89312229D01*
X145121658Y-89312229D01*
G37*
G36*
X150490500Y-91785400D02*
G01*
X147888500Y-91785400D01*
X147888500Y-89883400D01*
X150490500Y-89883400D01*
X150490500Y-91785400D01*
X150490500Y-91785400D01*
G37*
G36*
X154490500Y-91785400D02*
G01*
X151888500Y-91785400D01*
X151888500Y-89883400D01*
X154490500Y-89883400D01*
X154490500Y-91785400D01*
X154490500Y-91785400D01*
G37*
G36*
X166656500Y-91458400D02*
G01*
X165554500Y-91458400D01*
X165554500Y-89756400D01*
X166656500Y-89756400D01*
X166656500Y-91458400D01*
X166656500Y-91458400D01*
G37*
G36*
X163656500Y-91458400D02*
G01*
X162554500Y-91458400D01*
X162554500Y-89756400D01*
X163656500Y-89756400D01*
X163656500Y-91458400D01*
X163656500Y-91458400D01*
G37*
G36*
X161257500Y-91208400D02*
G01*
X160655500Y-91208400D01*
X160655500Y-90206400D01*
X161257500Y-90206400D01*
X161257500Y-91208400D01*
X161257500Y-91208400D01*
G37*
G36*
X159757500Y-91208400D02*
G01*
X159155500Y-91208400D01*
X159155500Y-90206400D01*
X159757500Y-90206400D01*
X159757500Y-91208400D01*
X159757500Y-91208400D01*
G37*
G36*
X158232500Y-91133400D02*
G01*
X157330500Y-91133400D01*
X157330500Y-90281400D01*
X158232500Y-90281400D01*
X158232500Y-91133400D01*
X158232500Y-91133400D01*
G37*
G36*
X156732500Y-91133400D02*
G01*
X155830500Y-91133400D01*
X155830500Y-90281400D01*
X156732500Y-90281400D01*
X156732500Y-91133400D01*
X156732500Y-91133400D01*
G37*
G36*
X120045500Y-90614400D02*
G01*
X118943500Y-90614400D01*
X118943500Y-88912400D01*
X120045500Y-88912400D01*
X120045500Y-90614400D01*
X120045500Y-90614400D01*
G37*
G36*
X123045500Y-90614400D02*
G01*
X121943500Y-90614400D01*
X121943500Y-88912400D01*
X123045500Y-88912400D01*
X123045500Y-90614400D01*
X123045500Y-90614400D01*
G37*
G36*
X173012000Y-90254400D02*
G01*
X172010000Y-90254400D01*
X172010000Y-88952400D01*
X173012000Y-88952400D01*
X173012000Y-90254400D01*
X173012000Y-90254400D01*
G37*
G36*
X169712000Y-90254400D02*
G01*
X168710000Y-90254400D01*
X168710000Y-88952400D01*
X169712000Y-88952400D01*
X169712000Y-90254400D01*
X169712000Y-90254400D01*
G37*
G36*
X166656500Y-88969200D02*
G01*
X165554500Y-88969200D01*
X165554500Y-87267200D01*
X166656500Y-87267200D01*
X166656500Y-88969200D01*
X166656500Y-88969200D01*
G37*
G36*
X163656500Y-88969200D02*
G01*
X162554500Y-88969200D01*
X162554500Y-87267200D01*
X163656500Y-87267200D01*
X163656500Y-88969200D01*
X163656500Y-88969200D01*
G37*
G36*
X161706500Y-88782400D02*
G01*
X159904500Y-88782400D01*
X159904500Y-82980400D01*
X161706500Y-82980400D01*
X161706500Y-88782400D01*
X161706500Y-88782400D01*
G37*
G36*
X157206500Y-88782400D02*
G01*
X155404500Y-88782400D01*
X155404500Y-82980400D01*
X157206500Y-82980400D01*
X157206500Y-88782400D01*
X157206500Y-88782400D01*
G37*
G36*
X126926500Y-88696400D02*
G01*
X125024500Y-88696400D01*
X125024500Y-86094400D01*
X126926500Y-86094400D01*
X126926500Y-88696400D01*
X126926500Y-88696400D01*
G37*
G36*
X153367500Y-88510400D02*
G01*
X152265500Y-88510400D01*
X152265500Y-86808400D01*
X153367500Y-86808400D01*
X153367500Y-88510400D01*
X153367500Y-88510400D01*
G37*
G36*
X150367500Y-88510400D02*
G01*
X149265500Y-88510400D01*
X149265500Y-86808400D01*
X150367500Y-86808400D01*
X150367500Y-88510400D01*
X150367500Y-88510400D01*
G37*
G36*
X180318610Y-85797514D02*
G01*
X180541727Y-85889932D01*
X180541729Y-85889933D01*
X180592269Y-85923703D01*
X180742529Y-86024103D01*
X180913297Y-86194871D01*
X181047468Y-86395673D01*
X181139886Y-86618790D01*
X181187000Y-86855648D01*
X181187000Y-87097152D01*
X181139886Y-87334010D01*
X181047468Y-87557127D01*
X180913297Y-87757929D01*
X180742529Y-87928697D01*
X180592269Y-88029097D01*
X180541729Y-88062867D01*
X180541728Y-88062868D01*
X180541727Y-88062868D01*
X180318610Y-88155286D01*
X180081752Y-88202400D01*
X179840248Y-88202400D01*
X179603390Y-88155286D01*
X179380273Y-88062868D01*
X179380272Y-88062868D01*
X179380271Y-88062867D01*
X179329731Y-88029097D01*
X179179471Y-87928697D01*
X179008703Y-87757929D01*
X178874532Y-87557127D01*
X178782114Y-87334010D01*
X178735000Y-87097152D01*
X178735000Y-86855648D01*
X178782114Y-86618790D01*
X178874532Y-86395673D01*
X179008703Y-86194871D01*
X179179471Y-86024103D01*
X179329731Y-85923703D01*
X179380271Y-85889933D01*
X179380273Y-85889932D01*
X179603390Y-85797514D01*
X179840248Y-85750400D01*
X180081752Y-85750400D01*
X180318610Y-85797514D01*
X180318610Y-85797514D01*
G37*
G36*
X123021500Y-88201400D02*
G01*
X121919500Y-88201400D01*
X121919500Y-86499400D01*
X123021500Y-86499400D01*
X123021500Y-88201400D01*
X123021500Y-88201400D01*
G37*
G36*
X120021500Y-88201400D02*
G01*
X118919500Y-88201400D01*
X118919500Y-86499400D01*
X120021500Y-86499400D01*
X120021500Y-88201400D01*
X120021500Y-88201400D01*
G37*
G36*
X169523000Y-87368400D02*
G01*
X168671000Y-87368400D01*
X168671000Y-86466400D01*
X169523000Y-86466400D01*
X169523000Y-87368400D01*
X169523000Y-87368400D01*
G37*
G36*
X171480000Y-87004400D02*
G01*
X170778000Y-87004400D01*
X170778000Y-86502400D01*
X171480000Y-86502400D01*
X171480000Y-87004400D01*
X171480000Y-87004400D01*
G37*
G36*
X166656500Y-86480000D02*
G01*
X165554500Y-86480000D01*
X165554500Y-84778000D01*
X166656500Y-84778000D01*
X166656500Y-86480000D01*
X166656500Y-86480000D01*
G37*
G36*
X163656500Y-86480000D02*
G01*
X162554500Y-86480000D01*
X162554500Y-84778000D01*
X163656500Y-84778000D01*
X163656500Y-86480000D01*
X163656500Y-86480000D01*
G37*
G36*
X171480000Y-86104400D02*
G01*
X170778000Y-86104400D01*
X170778000Y-85602400D01*
X171480000Y-85602400D01*
X171480000Y-86104400D01*
X171480000Y-86104400D01*
G37*
G36*
X150343500Y-86097400D02*
G01*
X149241500Y-86097400D01*
X149241500Y-84395400D01*
X150343500Y-84395400D01*
X150343500Y-86097400D01*
X150343500Y-86097400D01*
G37*
G36*
X153343500Y-86097400D02*
G01*
X152241500Y-86097400D01*
X152241500Y-84395400D01*
X153343500Y-84395400D01*
X153343500Y-86097400D01*
X153343500Y-86097400D01*
G37*
G36*
X169523000Y-85868400D02*
G01*
X168671000Y-85868400D01*
X168671000Y-84966400D01*
X169523000Y-84966400D01*
X169523000Y-85868400D01*
X169523000Y-85868400D01*
G37*
G36*
X123021500Y-85788400D02*
G01*
X121919500Y-85788400D01*
X121919500Y-84086400D01*
X123021500Y-84086400D01*
X123021500Y-85788400D01*
X123021500Y-85788400D01*
G37*
G36*
X120021500Y-85788400D02*
G01*
X118919500Y-85788400D01*
X118919500Y-84086400D01*
X120021500Y-84086400D01*
X120021500Y-85788400D01*
X120021500Y-85788400D01*
G37*
G36*
X126926500Y-84696400D02*
G01*
X125024500Y-84696400D01*
X125024500Y-82094400D01*
X126926500Y-82094400D01*
X126926500Y-84696400D01*
X126926500Y-84696400D01*
G37*
G36*
X134732000Y-84192400D02*
G01*
X132630000Y-84192400D01*
X132630000Y-80590400D01*
X134732000Y-80590400D01*
X134732000Y-84192400D01*
X134732000Y-84192400D01*
G37*
G36*
X139312000Y-84192400D02*
G01*
X137210000Y-84192400D01*
X137210000Y-80590400D01*
X139312000Y-80590400D01*
X139312000Y-84192400D01*
X139312000Y-84192400D01*
G37*
G36*
X164369658Y-81256229D02*
G01*
X164369661Y-81256230D01*
X164369660Y-81256230D01*
X164624627Y-81361841D01*
X164854092Y-81515164D01*
X165049236Y-81710308D01*
X165202559Y-81939773D01*
X165202560Y-81939775D01*
X165308171Y-82194742D01*
X165362010Y-82465411D01*
X165362010Y-82741389D01*
X165308171Y-83012058D01*
X165308170Y-83012060D01*
X165202559Y-83267027D01*
X165049236Y-83496492D01*
X164854092Y-83691636D01*
X164624627Y-83844959D01*
X164624626Y-83844960D01*
X164624625Y-83844960D01*
X164369658Y-83950571D01*
X164098989Y-84004410D01*
X163823011Y-84004410D01*
X163552342Y-83950571D01*
X163297375Y-83844960D01*
X163297374Y-83844960D01*
X163297373Y-83844959D01*
X163067908Y-83691636D01*
X162872764Y-83496492D01*
X162719441Y-83267027D01*
X162613830Y-83012060D01*
X162613829Y-83012058D01*
X162559990Y-82741389D01*
X162559990Y-82465411D01*
X162613829Y-82194742D01*
X162719440Y-81939775D01*
X162719441Y-81939773D01*
X162872764Y-81710308D01*
X163067908Y-81515164D01*
X163297373Y-81361841D01*
X163552340Y-81256230D01*
X163552339Y-81256230D01*
X163552342Y-81256229D01*
X163823011Y-81202390D01*
X164098989Y-81202390D01*
X164369658Y-81256229D01*
X164369658Y-81256229D01*
G37*
G36*
X174529658Y-81256229D02*
G01*
X174529661Y-81256230D01*
X174529660Y-81256230D01*
X174784627Y-81361841D01*
X175014092Y-81515164D01*
X175209236Y-81710308D01*
X175362559Y-81939773D01*
X175362560Y-81939775D01*
X175468171Y-82194742D01*
X175522010Y-82465411D01*
X175522010Y-82741389D01*
X175468171Y-83012058D01*
X175468170Y-83012060D01*
X175362559Y-83267027D01*
X175209236Y-83496492D01*
X175014092Y-83691636D01*
X174784627Y-83844959D01*
X174784626Y-83844960D01*
X174784625Y-83844960D01*
X174529658Y-83950571D01*
X174258989Y-84004410D01*
X173983011Y-84004410D01*
X173712342Y-83950571D01*
X173457375Y-83844960D01*
X173457374Y-83844960D01*
X173457373Y-83844959D01*
X173227908Y-83691636D01*
X173032764Y-83496492D01*
X172879441Y-83267027D01*
X172773830Y-83012060D01*
X172773829Y-83012058D01*
X172719990Y-82741389D01*
X172719990Y-82465411D01*
X172773829Y-82194742D01*
X172879440Y-81939775D01*
X172879441Y-81939773D01*
X173032764Y-81710308D01*
X173227908Y-81515164D01*
X173457373Y-81361841D01*
X173712340Y-81256230D01*
X173712339Y-81256230D01*
X173712342Y-81256229D01*
X173983011Y-81202390D01*
X174258989Y-81202390D01*
X174529658Y-81256229D01*
X174529658Y-81256229D01*
G37*
G36*
X150367500Y-83684400D02*
G01*
X149265500Y-83684400D01*
X149265500Y-81982400D01*
X150367500Y-81982400D01*
X150367500Y-83684400D01*
X150367500Y-83684400D01*
G37*
G36*
X153367500Y-83684400D02*
G01*
X152265500Y-83684400D01*
X152265500Y-81982400D01*
X153367500Y-81982400D01*
X153367500Y-83684400D01*
X153367500Y-83684400D01*
G37*
G36*
X145121658Y-79152229D02*
G01*
X145121661Y-79152230D01*
X145121660Y-79152230D01*
X145376627Y-79257841D01*
X145606092Y-79411164D01*
X145801236Y-79606308D01*
X145954559Y-79835773D01*
X145954560Y-79835775D01*
X146060171Y-80090742D01*
X146114010Y-80361411D01*
X146114010Y-80637389D01*
X146060171Y-80908058D01*
X145954560Y-81163025D01*
X145954559Y-81163027D01*
X145801236Y-81392492D01*
X145606092Y-81587636D01*
X145376627Y-81740959D01*
X145376626Y-81740960D01*
X145376625Y-81740960D01*
X145121658Y-81846571D01*
X144850989Y-81900410D01*
X144575011Y-81900410D01*
X144304342Y-81846571D01*
X144049375Y-81740960D01*
X144049374Y-81740960D01*
X144049373Y-81740959D01*
X143819908Y-81587636D01*
X143624764Y-81392492D01*
X143471441Y-81163027D01*
X143471440Y-81163025D01*
X143365829Y-80908058D01*
X143311990Y-80637389D01*
X143311990Y-80361411D01*
X143365829Y-80090742D01*
X143471440Y-79835775D01*
X143471441Y-79835773D01*
X143624764Y-79606308D01*
X143819908Y-79411164D01*
X144049373Y-79257841D01*
X144304340Y-79152230D01*
X144304339Y-79152230D01*
X144304342Y-79152229D01*
X144575011Y-79098390D01*
X144850989Y-79098390D01*
X145121658Y-79152229D01*
X145121658Y-79152229D01*
G37*
G36*
X182336256Y-77994698D02*
G01*
X182442579Y-78015847D01*
X182743042Y-78140303D01*
X183013451Y-78320985D01*
X183243415Y-78550949D01*
X183424097Y-78821358D01*
X183548553Y-79121821D01*
X183612000Y-79440791D01*
X183612000Y-79766009D01*
X183548553Y-80084979D01*
X183424097Y-80385442D01*
X183243415Y-80655851D01*
X183013451Y-80885815D01*
X182743042Y-81066497D01*
X182442579Y-81190953D01*
X182385081Y-81202390D01*
X182123611Y-81254400D01*
X181798389Y-81254400D01*
X181536919Y-81202390D01*
X181479421Y-81190953D01*
X181178958Y-81066497D01*
X180908549Y-80885815D01*
X180678585Y-80655851D01*
X180497903Y-80385442D01*
X180373447Y-80084979D01*
X180310000Y-79766009D01*
X180310000Y-79440791D01*
X180373447Y-79121821D01*
X180497903Y-78821358D01*
X180678585Y-78550949D01*
X180908549Y-78320985D01*
X181178958Y-78140303D01*
X181479421Y-78015847D01*
X181585744Y-77994698D01*
X181798389Y-77952400D01*
X182123611Y-77952400D01*
X182336256Y-77994698D01*
X182336256Y-77994698D01*
G37*
G36*
X117592756Y-77857698D02*
G01*
X117699079Y-77878847D01*
X117999542Y-78003303D01*
X118269951Y-78183985D01*
X118499915Y-78413949D01*
X118591457Y-78550951D01*
X118680598Y-78684360D01*
X118805053Y-78984822D01*
X118838353Y-79152229D01*
X118868500Y-79303791D01*
X118868500Y-79629009D01*
X118805053Y-79947979D01*
X118680597Y-80248442D01*
X118499915Y-80518851D01*
X118269951Y-80748815D01*
X117999542Y-80929497D01*
X117699079Y-81053953D01*
X117636016Y-81066497D01*
X117380111Y-81117400D01*
X117054889Y-81117400D01*
X116798984Y-81066497D01*
X116735921Y-81053953D01*
X116435458Y-80929497D01*
X116165049Y-80748815D01*
X115935085Y-80518851D01*
X115754403Y-80248442D01*
X115629947Y-79947979D01*
X115566500Y-79629009D01*
X115566500Y-79303791D01*
X115596648Y-79152229D01*
X115629947Y-78984822D01*
X115754402Y-78684360D01*
X115843543Y-78550951D01*
X115935085Y-78413949D01*
X116165049Y-78183985D01*
X116435458Y-78003303D01*
X116735921Y-77878847D01*
X116842244Y-77857698D01*
X117054889Y-77815400D01*
X117380111Y-77815400D01*
X117592756Y-77857698D01*
X117592756Y-77857698D01*
G37*
M02*
