M48
; DRILL file {KiCad (5.1.4)-1} date 21/02/2021 00:24:45
; FORMAT={3:3/ absolute / metric / keep zeros}
; #@! TF.CreationDate,2021-02-21T00:24:45+00:00
; #@! TF.GenerationSoftware,Kicad,Pcbnew,(5.1.4)-1
; #@! TF.FileFunction,Plated,1,2,PTH
FMAT,2
METRIC
T1C0.400
T2C1.199
T3C1.200
T4C1.350
%
G90
G05
T1
X117916Y-085246
X117916Y-087786
X117916Y-090326
X117916Y-104296
X117916Y-106836
X117916Y-109376
X124901Y-115043
X126167Y-096926
X126806Y-095406
X126806Y-099216
X127441Y-115043
X129981Y-092183
X129981Y-094723
X129981Y-097263
X129981Y-099803
X129981Y-112503
X129981Y-115043
X132521Y-092183
X132521Y-094723
X132521Y-097263
X132521Y-099803
X132521Y-115043
X135061Y-092183
X135061Y-094723
X135061Y-097263
X135061Y-099803
X135061Y-115043
X137601Y-092183
X137601Y-094723
X137601Y-097263
X137601Y-099803
X137601Y-102343
X137601Y-115043
X140141Y-089643
X140141Y-092183
X140141Y-094723
X140141Y-097263
X140141Y-099803
X140141Y-102343
X140141Y-104883
X140141Y-112503
X140141Y-115043
X142046Y-087103
X142681Y-104883
X142681Y-112503
X142681Y-115043
X144586Y-107423
X144967Y-084055
X145221Y-115043
X146745Y-110217
X147507Y-079864
X149031Y-113011
X150809Y-078721
X152079Y-095993
X152079Y-096882
X152079Y-097771
X152106Y-095104
X152333Y-115043
X152841Y-097771
X152866Y-095965
X152866Y-096882
X155635Y-078721
X157667Y-113773
X160461Y-078721
X163001Y-113773
X165287Y-078721
X166049Y-096247
X166176Y-101708
X167282Y-085626
X167282Y-088039
X167282Y-090579
X168843Y-082531
X169568Y-108105
X170643Y-111797
X173961Y-089853
X173961Y-090853
X174453Y-111797
T2
X142801Y-110471
X152961Y-110471
X144713Y-080499
X144713Y-090659
X163961Y-082603
X174121Y-082603
T3
X165171Y-111103
X167711Y-111103
X120201Y-094386
X120201Y-096926
X120201Y-099466
T4
X179961Y-086976
X179961Y-091976
X179961Y-101976
X179961Y-106976
T0
M30
