G04 #@! TF.GenerationSoftware,KiCad,Pcbnew,(5.1.4)-1*
G04 #@! TF.CreationDate,2021-02-21T00:25:35+00:00*
G04 #@! TF.ProjectId,5v_to_bipolar15v_PSU,35765f74-6f5f-4626-9970-6f6c61723135,rev?*
G04 #@! TF.SameCoordinates,Original*
G04 #@! TF.FileFunction,Copper,L2,Bot*
G04 #@! TF.FilePolarity,Positive*
%FSLAX46Y46*%
G04 Gerber Fmt 4.6, Leading zero omitted, Abs format (unit mm)*
G04 Created by KiCad (PCBNEW (5.1.4)-1) date 2021-02-21 00:25:35*
%MOMM*%
%LPD*%
G04 APERTURE LIST*
%ADD10C,0.100000*%
%ADD11C,2.700020*%
%ADD12R,2.000000X2.600000*%
%ADD13O,2.000000X2.600000*%
%ADD14R,2.600000X2.000000*%
%ADD15O,2.600000X2.000000*%
%ADD16C,2.350000*%
%ADD17C,0.800000*%
%ADD18C,0.254000*%
G04 APERTURE END LIST*
D10*
G36*
X142491000Y-107184900D02*
G01*
X149158500Y-116328900D01*
X121345000Y-116440400D01*
X121345000Y-109963400D01*
X126552000Y-109963400D01*
X131632000Y-107169400D01*
X138363000Y-107169400D01*
X142491000Y-107184900D01*
G37*
X142491000Y-107184900D02*
X149158500Y-116328900D01*
X121345000Y-116440400D01*
X121345000Y-109963400D01*
X126552000Y-109963400D01*
X131632000Y-107169400D01*
X138363000Y-107169400D01*
X142491000Y-107184900D01*
D11*
X152961000Y-110471400D03*
X142801000Y-110471400D03*
X174121000Y-82603400D03*
X163961000Y-82603400D03*
X144713000Y-90659400D03*
X144713000Y-80499400D03*
D12*
X167711000Y-111103400D03*
D13*
X165171000Y-111103400D03*
D14*
X120201500Y-99466400D03*
D15*
X120201500Y-96926400D03*
X120201500Y-94386400D03*
D16*
X179961000Y-101976400D03*
X179961000Y-106976400D03*
X179961000Y-91976400D03*
X179961000Y-86976400D03*
D17*
X129981000Y-115043400D03*
X129981000Y-112503400D03*
X132521000Y-115043400D03*
X127441000Y-115043400D03*
X124901000Y-115043400D03*
X135061000Y-115043400D03*
X137601000Y-115043400D03*
X140141000Y-115043400D03*
X140141000Y-112503400D03*
X142681000Y-115043400D03*
X145221000Y-115043400D03*
X142681000Y-112503400D03*
X152841000Y-97771400D03*
X132521000Y-92183400D03*
X135061000Y-92183400D03*
X137601000Y-92183400D03*
X137601000Y-102343400D03*
X126805500Y-95406400D03*
X126805500Y-99216400D03*
X152079000Y-95993400D03*
X152865900Y-96882400D03*
X152865900Y-95965200D03*
X152079000Y-96882400D03*
X126166500Y-96926400D03*
X174453000Y-111796900D03*
X170643000Y-111796900D03*
X117915500Y-85246400D03*
X117915500Y-87786400D03*
X117915500Y-90326400D03*
X117915500Y-109376400D03*
X117915500Y-106836400D03*
X117915500Y-104296400D03*
X173961000Y-90853400D03*
X173961000Y-89853400D03*
X137601000Y-99803400D03*
X137601000Y-97263400D03*
X137601000Y-94723400D03*
X135061000Y-94723400D03*
X135061000Y-97263400D03*
X135061000Y-99803400D03*
X132521000Y-99803400D03*
X132521000Y-97263400D03*
X132521000Y-94723400D03*
X129981000Y-92183400D03*
X129981000Y-94723400D03*
X129981000Y-97263400D03*
X129981000Y-99803400D03*
X140141000Y-99803400D03*
X140141000Y-97263400D03*
X140141000Y-94723400D03*
X140141000Y-92183400D03*
X140141000Y-89643400D03*
X140141000Y-102343400D03*
X140141000Y-104883400D03*
X142681000Y-104883400D03*
X157667000Y-113773400D03*
X163001000Y-113773400D03*
X152333000Y-115043400D03*
X149031000Y-113011400D03*
X144586000Y-107423400D03*
X146745000Y-110217400D03*
X142046000Y-87103400D03*
X144967000Y-84055400D03*
X147507000Y-79864400D03*
X150809000Y-78721400D03*
X155635000Y-78721400D03*
X160461000Y-78721400D03*
X165287000Y-78721400D03*
X168843000Y-82531400D03*
X167282000Y-85626400D03*
X167282000Y-88039400D03*
X167282000Y-90579400D03*
X166049000Y-96247400D03*
X166176000Y-101708400D03*
X169568000Y-108105400D03*
X152105500Y-95104400D03*
X152079000Y-97771400D03*
D18*
G36*
X180191991Y-78228016D02*
G01*
X179980369Y-78544731D01*
X179811890Y-78951475D01*
X179726000Y-79383272D01*
X179726000Y-79823528D01*
X179811890Y-80255325D01*
X179980369Y-80662069D01*
X180224962Y-81028129D01*
X180536271Y-81339438D01*
X180902331Y-81584031D01*
X181309075Y-81752510D01*
X181740872Y-81838400D01*
X182181128Y-81838400D01*
X182612925Y-81752510D01*
X183019669Y-81584031D01*
X183084000Y-81541046D01*
X183084000Y-112415754D01*
X183019669Y-112372769D01*
X182612925Y-112204290D01*
X182181128Y-112118400D01*
X181740872Y-112118400D01*
X181309075Y-112204290D01*
X180902331Y-112372769D01*
X180536271Y-112617362D01*
X180224962Y-112928671D01*
X179980369Y-113294731D01*
X179811890Y-113701475D01*
X179726000Y-114133272D01*
X179726000Y-114573528D01*
X179811890Y-115005325D01*
X179980369Y-115412069D01*
X180224962Y-115778129D01*
X180456425Y-116009592D01*
X155831744Y-116306400D01*
X149994729Y-116306400D01*
X149720729Y-115938630D01*
X149717566Y-115933084D01*
X149711985Y-115925317D01*
X145592615Y-110275894D01*
X150975990Y-110275894D01*
X150975990Y-110666906D01*
X151052272Y-111050406D01*
X151201907Y-111411655D01*
X151419142Y-111736770D01*
X151695630Y-112013258D01*
X152020745Y-112230493D01*
X152381994Y-112380128D01*
X152765494Y-112456410D01*
X153156506Y-112456410D01*
X153540006Y-112380128D01*
X153901255Y-112230493D01*
X154226370Y-112013258D01*
X154502858Y-111736770D01*
X154720093Y-111411655D01*
X154869728Y-111050406D01*
X154946010Y-110666906D01*
X154946010Y-110275894D01*
X154869728Y-109892394D01*
X154832866Y-109803400D01*
X166072928Y-109803400D01*
X166072928Y-112403400D01*
X166085188Y-112527882D01*
X166121498Y-112647580D01*
X166180463Y-112757894D01*
X166259815Y-112854585D01*
X166356506Y-112933937D01*
X166466820Y-112992902D01*
X166586518Y-113029212D01*
X166711000Y-113041472D01*
X168711000Y-113041472D01*
X168835482Y-113029212D01*
X168955180Y-112992902D01*
X169065494Y-112933937D01*
X169162185Y-112854585D01*
X169241537Y-112757894D01*
X169300502Y-112647580D01*
X169336812Y-112527882D01*
X169349072Y-112403400D01*
X169349072Y-109803400D01*
X169336812Y-109678918D01*
X169300502Y-109559220D01*
X169241537Y-109448906D01*
X169162185Y-109352215D01*
X169065494Y-109272863D01*
X168955180Y-109213898D01*
X168835482Y-109177588D01*
X168711000Y-109165328D01*
X166711000Y-109165328D01*
X166586518Y-109177588D01*
X166466820Y-109213898D01*
X166356506Y-109272863D01*
X166259815Y-109352215D01*
X166180463Y-109448906D01*
X166121498Y-109559220D01*
X166085188Y-109678918D01*
X166072928Y-109803400D01*
X154832866Y-109803400D01*
X154720093Y-109531145D01*
X154502858Y-109206030D01*
X154226370Y-108929542D01*
X153901255Y-108712307D01*
X153540006Y-108562672D01*
X153156506Y-108486390D01*
X152765494Y-108486390D01*
X152381994Y-108562672D01*
X152020745Y-108712307D01*
X151695630Y-108929542D01*
X151419142Y-109206030D01*
X151201907Y-109531145D01*
X151052272Y-109892394D01*
X150975990Y-110275894D01*
X145592615Y-110275894D01*
X143056746Y-106798131D01*
X178151000Y-106798131D01*
X178151000Y-107154669D01*
X178220557Y-107504358D01*
X178356999Y-107833757D01*
X178555081Y-108130208D01*
X178807192Y-108382319D01*
X179103643Y-108580401D01*
X179433042Y-108716843D01*
X179782731Y-108786400D01*
X180139269Y-108786400D01*
X180488958Y-108716843D01*
X180818357Y-108580401D01*
X181114808Y-108382319D01*
X181366919Y-108130208D01*
X181565001Y-107833757D01*
X181701443Y-107504358D01*
X181771000Y-107154669D01*
X181771000Y-106798131D01*
X181701443Y-106448442D01*
X181565001Y-106119043D01*
X181366919Y-105822592D01*
X181114808Y-105570481D01*
X180818357Y-105372399D01*
X180488958Y-105235957D01*
X180139269Y-105166400D01*
X179782731Y-105166400D01*
X179433042Y-105235957D01*
X179103643Y-105372399D01*
X178807192Y-105570481D01*
X178555081Y-105822592D01*
X178356999Y-106119043D01*
X178220557Y-106448442D01*
X178151000Y-106798131D01*
X143056746Y-106798131D01*
X143044485Y-106781317D01*
X143012344Y-106745241D01*
X142982210Y-106707472D01*
X142967965Y-106695428D01*
X142955554Y-106681497D01*
X142917013Y-106652347D01*
X142880121Y-106621154D01*
X142863810Y-106612107D01*
X142848929Y-106600852D01*
X142805460Y-106579743D01*
X142763212Y-106556310D01*
X142745453Y-106550603D01*
X142728670Y-106542453D01*
X142681939Y-106530192D01*
X142635935Y-106515408D01*
X142617401Y-106513259D01*
X142599359Y-106508525D01*
X142551129Y-106505574D01*
X142503136Y-106500008D01*
X142493572Y-106499905D01*
X138365572Y-106484405D01*
X138365443Y-106484417D01*
X138363000Y-106484400D01*
X131632000Y-106484400D01*
X131598592Y-106487676D01*
X131565027Y-106487682D01*
X131532226Y-106494183D01*
X131498949Y-106497446D01*
X131466819Y-106507146D01*
X131433890Y-106513673D01*
X131402975Y-106526422D01*
X131370967Y-106536086D01*
X131341328Y-106551845D01*
X131310298Y-106564642D01*
X131301886Y-106569192D01*
X126376053Y-109278400D01*
X121345000Y-109278400D01*
X121280855Y-109284690D01*
X121216644Y-109290533D01*
X121214338Y-109291212D01*
X121211949Y-109291446D01*
X121150277Y-109310066D01*
X121088394Y-109328279D01*
X121086264Y-109329392D01*
X121083967Y-109330086D01*
X121027114Y-109360316D01*
X120969919Y-109390216D01*
X120968045Y-109391723D01*
X120965927Y-109392849D01*
X120916014Y-109433557D01*
X120865731Y-109473986D01*
X120864187Y-109475827D01*
X120862326Y-109477344D01*
X120821234Y-109527016D01*
X120779797Y-109576398D01*
X120778640Y-109578502D01*
X120777109Y-109580353D01*
X120746459Y-109637039D01*
X120715392Y-109693550D01*
X120714665Y-109695842D01*
X120713524Y-109697952D01*
X120694476Y-109759484D01*
X120674969Y-109820980D01*
X120674701Y-109823368D01*
X120673991Y-109825662D01*
X120667254Y-109889766D01*
X120660067Y-109953836D01*
X120660035Y-109958450D01*
X120660017Y-109958618D01*
X120660032Y-109958786D01*
X120660000Y-109963400D01*
X120660000Y-116306400D01*
X118486639Y-116306400D01*
X118642229Y-116202438D01*
X118953538Y-115891129D01*
X119198131Y-115525069D01*
X119366610Y-115118325D01*
X119452500Y-114686528D01*
X119452500Y-114246272D01*
X119366610Y-113814475D01*
X119198131Y-113407731D01*
X118953538Y-113041671D01*
X118642229Y-112730362D01*
X118276169Y-112485769D01*
X117869425Y-112317290D01*
X117437628Y-112231400D01*
X116997372Y-112231400D01*
X116565575Y-112317290D01*
X116158831Y-112485769D01*
X115844387Y-112695874D01*
X115836874Y-101798131D01*
X178151000Y-101798131D01*
X178151000Y-102154669D01*
X178220557Y-102504358D01*
X178356999Y-102833757D01*
X178555081Y-103130208D01*
X178807192Y-103382319D01*
X179103643Y-103580401D01*
X179433042Y-103716843D01*
X179782731Y-103786400D01*
X180139269Y-103786400D01*
X180488958Y-103716843D01*
X180818357Y-103580401D01*
X181114808Y-103382319D01*
X181366919Y-103130208D01*
X181565001Y-102833757D01*
X181701443Y-102504358D01*
X181771000Y-102154669D01*
X181771000Y-101798131D01*
X181701443Y-101448442D01*
X181565001Y-101119043D01*
X181366919Y-100822592D01*
X181114808Y-100570481D01*
X180818357Y-100372399D01*
X180488958Y-100235957D01*
X180139269Y-100166400D01*
X179782731Y-100166400D01*
X179433042Y-100235957D01*
X179103643Y-100372399D01*
X178807192Y-100570481D01*
X178555081Y-100822592D01*
X178356999Y-101119043D01*
X178220557Y-101448442D01*
X178151000Y-101798131D01*
X115836874Y-101798131D01*
X115834577Y-98466400D01*
X118263428Y-98466400D01*
X118263428Y-100466400D01*
X118275688Y-100590882D01*
X118311998Y-100710580D01*
X118370963Y-100820894D01*
X118450315Y-100917585D01*
X118547006Y-100996937D01*
X118657320Y-101055902D01*
X118777018Y-101092212D01*
X118901500Y-101104472D01*
X121501500Y-101104472D01*
X121625982Y-101092212D01*
X121745680Y-101055902D01*
X121855994Y-100996937D01*
X121952685Y-100917585D01*
X122032037Y-100820894D01*
X122091002Y-100710580D01*
X122127312Y-100590882D01*
X122139572Y-100466400D01*
X122139572Y-98466400D01*
X122127312Y-98341918D01*
X122091002Y-98222220D01*
X122032037Y-98111906D01*
X121952685Y-98015215D01*
X121855994Y-97935863D01*
X121745680Y-97876898D01*
X121625982Y-97840588D01*
X121501500Y-97828328D01*
X118901500Y-97828328D01*
X118777018Y-97840588D01*
X118657320Y-97876898D01*
X118547006Y-97935863D01*
X118450315Y-98015215D01*
X118370963Y-98111906D01*
X118311998Y-98222220D01*
X118275688Y-98341918D01*
X118263428Y-98466400D01*
X115834577Y-98466400D01*
X115831764Y-94386400D01*
X118258589Y-94386400D01*
X118290157Y-94706916D01*
X118383648Y-95015115D01*
X118535469Y-95299152D01*
X118739786Y-95548114D01*
X118988748Y-95752431D01*
X119272785Y-95904252D01*
X119580984Y-95997743D01*
X119821178Y-96021400D01*
X120581822Y-96021400D01*
X120822016Y-95997743D01*
X121130215Y-95904252D01*
X121414252Y-95752431D01*
X121663214Y-95548114D01*
X121867531Y-95299152D01*
X122019352Y-95015115D01*
X122112843Y-94706916D01*
X122144411Y-94386400D01*
X122112843Y-94065884D01*
X122019352Y-93757685D01*
X121867531Y-93473648D01*
X121663214Y-93224686D01*
X121414252Y-93020369D01*
X121130215Y-92868548D01*
X120822016Y-92775057D01*
X120581822Y-92751400D01*
X119821178Y-92751400D01*
X119580984Y-92775057D01*
X119272785Y-92868548D01*
X118988748Y-93020369D01*
X118739786Y-93224686D01*
X118535469Y-93473648D01*
X118383648Y-93757685D01*
X118290157Y-94065884D01*
X118258589Y-94386400D01*
X115831764Y-94386400D01*
X115829060Y-90463894D01*
X142727990Y-90463894D01*
X142727990Y-90854906D01*
X142804272Y-91238406D01*
X142953907Y-91599655D01*
X143171142Y-91924770D01*
X143447630Y-92201258D01*
X143772745Y-92418493D01*
X144133994Y-92568128D01*
X144517494Y-92644410D01*
X144908506Y-92644410D01*
X145292006Y-92568128D01*
X145653255Y-92418493D01*
X145978370Y-92201258D01*
X146254858Y-91924770D01*
X146339475Y-91798131D01*
X178151000Y-91798131D01*
X178151000Y-92154669D01*
X178220557Y-92504358D01*
X178356999Y-92833757D01*
X178555081Y-93130208D01*
X178807192Y-93382319D01*
X179103643Y-93580401D01*
X179433042Y-93716843D01*
X179782731Y-93786400D01*
X180139269Y-93786400D01*
X180488958Y-93716843D01*
X180818357Y-93580401D01*
X181114808Y-93382319D01*
X181366919Y-93130208D01*
X181565001Y-92833757D01*
X181701443Y-92504358D01*
X181771000Y-92154669D01*
X181771000Y-91798131D01*
X181701443Y-91448442D01*
X181565001Y-91119043D01*
X181366919Y-90822592D01*
X181114808Y-90570481D01*
X180818357Y-90372399D01*
X180488958Y-90235957D01*
X180139269Y-90166400D01*
X179782731Y-90166400D01*
X179433042Y-90235957D01*
X179103643Y-90372399D01*
X178807192Y-90570481D01*
X178555081Y-90822592D01*
X178356999Y-91119043D01*
X178220557Y-91448442D01*
X178151000Y-91798131D01*
X146339475Y-91798131D01*
X146472093Y-91599655D01*
X146621728Y-91238406D01*
X146698010Y-90854906D01*
X146698010Y-90463894D01*
X146621728Y-90080394D01*
X146472093Y-89719145D01*
X146254858Y-89394030D01*
X145978370Y-89117542D01*
X145653255Y-88900307D01*
X145292006Y-88750672D01*
X144908506Y-88674390D01*
X144517494Y-88674390D01*
X144133994Y-88750672D01*
X143772745Y-88900307D01*
X143447630Y-89117542D01*
X143171142Y-89394030D01*
X142953907Y-89719145D01*
X142804272Y-90080394D01*
X142727990Y-90463894D01*
X115829060Y-90463894D01*
X115826533Y-86798131D01*
X178151000Y-86798131D01*
X178151000Y-87154669D01*
X178220557Y-87504358D01*
X178356999Y-87833757D01*
X178555081Y-88130208D01*
X178807192Y-88382319D01*
X179103643Y-88580401D01*
X179433042Y-88716843D01*
X179782731Y-88786400D01*
X180139269Y-88786400D01*
X180488958Y-88716843D01*
X180818357Y-88580401D01*
X181114808Y-88382319D01*
X181366919Y-88130208D01*
X181565001Y-87833757D01*
X181701443Y-87504358D01*
X181771000Y-87154669D01*
X181771000Y-86798131D01*
X181701443Y-86448442D01*
X181565001Y-86119043D01*
X181366919Y-85822592D01*
X181114808Y-85570481D01*
X180818357Y-85372399D01*
X180488958Y-85235957D01*
X180139269Y-85166400D01*
X179782731Y-85166400D01*
X179433042Y-85235957D01*
X179103643Y-85372399D01*
X178807192Y-85570481D01*
X178555081Y-85822592D01*
X178356999Y-86119043D01*
X178220557Y-86448442D01*
X178151000Y-86798131D01*
X115826533Y-86798131D01*
X115822688Y-81222428D01*
X116158831Y-81447031D01*
X116565575Y-81615510D01*
X116997372Y-81701400D01*
X117437628Y-81701400D01*
X117869425Y-81615510D01*
X118276169Y-81447031D01*
X118642229Y-81202438D01*
X118953538Y-80891129D01*
X119198131Y-80525069D01*
X119289744Y-80303894D01*
X142727990Y-80303894D01*
X142727990Y-80694906D01*
X142804272Y-81078406D01*
X142953907Y-81439655D01*
X143171142Y-81764770D01*
X143447630Y-82041258D01*
X143772745Y-82258493D01*
X144133994Y-82408128D01*
X144517494Y-82484410D01*
X144908506Y-82484410D01*
X145292006Y-82408128D01*
X145292570Y-82407894D01*
X161975990Y-82407894D01*
X161975990Y-82798906D01*
X162052272Y-83182406D01*
X162201907Y-83543655D01*
X162419142Y-83868770D01*
X162695630Y-84145258D01*
X163020745Y-84362493D01*
X163381994Y-84512128D01*
X163765494Y-84588410D01*
X164156506Y-84588410D01*
X164540006Y-84512128D01*
X164901255Y-84362493D01*
X165226370Y-84145258D01*
X165502858Y-83868770D01*
X165720093Y-83543655D01*
X165869728Y-83182406D01*
X165946010Y-82798906D01*
X165946010Y-82407894D01*
X172135990Y-82407894D01*
X172135990Y-82798906D01*
X172212272Y-83182406D01*
X172361907Y-83543655D01*
X172579142Y-83868770D01*
X172855630Y-84145258D01*
X173180745Y-84362493D01*
X173541994Y-84512128D01*
X173925494Y-84588410D01*
X174316506Y-84588410D01*
X174700006Y-84512128D01*
X175061255Y-84362493D01*
X175386370Y-84145258D01*
X175662858Y-83868770D01*
X175880093Y-83543655D01*
X176029728Y-83182406D01*
X176106010Y-82798906D01*
X176106010Y-82407894D01*
X176029728Y-82024394D01*
X175880093Y-81663145D01*
X175662858Y-81338030D01*
X175386370Y-81061542D01*
X175061255Y-80844307D01*
X174700006Y-80694672D01*
X174316506Y-80618390D01*
X173925494Y-80618390D01*
X173541994Y-80694672D01*
X173180745Y-80844307D01*
X172855630Y-81061542D01*
X172579142Y-81338030D01*
X172361907Y-81663145D01*
X172212272Y-82024394D01*
X172135990Y-82407894D01*
X165946010Y-82407894D01*
X165869728Y-82024394D01*
X165720093Y-81663145D01*
X165502858Y-81338030D01*
X165226370Y-81061542D01*
X164901255Y-80844307D01*
X164540006Y-80694672D01*
X164156506Y-80618390D01*
X163765494Y-80618390D01*
X163381994Y-80694672D01*
X163020745Y-80844307D01*
X162695630Y-81061542D01*
X162419142Y-81338030D01*
X162201907Y-81663145D01*
X162052272Y-82024394D01*
X161975990Y-82407894D01*
X145292570Y-82407894D01*
X145653255Y-82258493D01*
X145978370Y-82041258D01*
X146254858Y-81764770D01*
X146472093Y-81439655D01*
X146621728Y-81078406D01*
X146698010Y-80694906D01*
X146698010Y-80303894D01*
X146621728Y-79920394D01*
X146472093Y-79559145D01*
X146254858Y-79234030D01*
X145978370Y-78957542D01*
X145653255Y-78740307D01*
X145292006Y-78590672D01*
X144908506Y-78514390D01*
X144517494Y-78514390D01*
X144133994Y-78590672D01*
X143772745Y-78740307D01*
X143447630Y-78957542D01*
X143171142Y-79234030D01*
X142953907Y-79559145D01*
X142804272Y-79920394D01*
X142727990Y-80303894D01*
X119289744Y-80303894D01*
X119366610Y-80118325D01*
X119452500Y-79686528D01*
X119452500Y-79246272D01*
X119366610Y-78814475D01*
X119198131Y-78407731D01*
X119045783Y-78179725D01*
X180191991Y-78228016D01*
X180191991Y-78228016D01*
G37*
X180191991Y-78228016D02*
X179980369Y-78544731D01*
X179811890Y-78951475D01*
X179726000Y-79383272D01*
X179726000Y-79823528D01*
X179811890Y-80255325D01*
X179980369Y-80662069D01*
X180224962Y-81028129D01*
X180536271Y-81339438D01*
X180902331Y-81584031D01*
X181309075Y-81752510D01*
X181740872Y-81838400D01*
X182181128Y-81838400D01*
X182612925Y-81752510D01*
X183019669Y-81584031D01*
X183084000Y-81541046D01*
X183084000Y-112415754D01*
X183019669Y-112372769D01*
X182612925Y-112204290D01*
X182181128Y-112118400D01*
X181740872Y-112118400D01*
X181309075Y-112204290D01*
X180902331Y-112372769D01*
X180536271Y-112617362D01*
X180224962Y-112928671D01*
X179980369Y-113294731D01*
X179811890Y-113701475D01*
X179726000Y-114133272D01*
X179726000Y-114573528D01*
X179811890Y-115005325D01*
X179980369Y-115412069D01*
X180224962Y-115778129D01*
X180456425Y-116009592D01*
X155831744Y-116306400D01*
X149994729Y-116306400D01*
X149720729Y-115938630D01*
X149717566Y-115933084D01*
X149711985Y-115925317D01*
X145592615Y-110275894D01*
X150975990Y-110275894D01*
X150975990Y-110666906D01*
X151052272Y-111050406D01*
X151201907Y-111411655D01*
X151419142Y-111736770D01*
X151695630Y-112013258D01*
X152020745Y-112230493D01*
X152381994Y-112380128D01*
X152765494Y-112456410D01*
X153156506Y-112456410D01*
X153540006Y-112380128D01*
X153901255Y-112230493D01*
X154226370Y-112013258D01*
X154502858Y-111736770D01*
X154720093Y-111411655D01*
X154869728Y-111050406D01*
X154946010Y-110666906D01*
X154946010Y-110275894D01*
X154869728Y-109892394D01*
X154832866Y-109803400D01*
X166072928Y-109803400D01*
X166072928Y-112403400D01*
X166085188Y-112527882D01*
X166121498Y-112647580D01*
X166180463Y-112757894D01*
X166259815Y-112854585D01*
X166356506Y-112933937D01*
X166466820Y-112992902D01*
X166586518Y-113029212D01*
X166711000Y-113041472D01*
X168711000Y-113041472D01*
X168835482Y-113029212D01*
X168955180Y-112992902D01*
X169065494Y-112933937D01*
X169162185Y-112854585D01*
X169241537Y-112757894D01*
X169300502Y-112647580D01*
X169336812Y-112527882D01*
X169349072Y-112403400D01*
X169349072Y-109803400D01*
X169336812Y-109678918D01*
X169300502Y-109559220D01*
X169241537Y-109448906D01*
X169162185Y-109352215D01*
X169065494Y-109272863D01*
X168955180Y-109213898D01*
X168835482Y-109177588D01*
X168711000Y-109165328D01*
X166711000Y-109165328D01*
X166586518Y-109177588D01*
X166466820Y-109213898D01*
X166356506Y-109272863D01*
X166259815Y-109352215D01*
X166180463Y-109448906D01*
X166121498Y-109559220D01*
X166085188Y-109678918D01*
X166072928Y-109803400D01*
X154832866Y-109803400D01*
X154720093Y-109531145D01*
X154502858Y-109206030D01*
X154226370Y-108929542D01*
X153901255Y-108712307D01*
X153540006Y-108562672D01*
X153156506Y-108486390D01*
X152765494Y-108486390D01*
X152381994Y-108562672D01*
X152020745Y-108712307D01*
X151695630Y-108929542D01*
X151419142Y-109206030D01*
X151201907Y-109531145D01*
X151052272Y-109892394D01*
X150975990Y-110275894D01*
X145592615Y-110275894D01*
X143056746Y-106798131D01*
X178151000Y-106798131D01*
X178151000Y-107154669D01*
X178220557Y-107504358D01*
X178356999Y-107833757D01*
X178555081Y-108130208D01*
X178807192Y-108382319D01*
X179103643Y-108580401D01*
X179433042Y-108716843D01*
X179782731Y-108786400D01*
X180139269Y-108786400D01*
X180488958Y-108716843D01*
X180818357Y-108580401D01*
X181114808Y-108382319D01*
X181366919Y-108130208D01*
X181565001Y-107833757D01*
X181701443Y-107504358D01*
X181771000Y-107154669D01*
X181771000Y-106798131D01*
X181701443Y-106448442D01*
X181565001Y-106119043D01*
X181366919Y-105822592D01*
X181114808Y-105570481D01*
X180818357Y-105372399D01*
X180488958Y-105235957D01*
X180139269Y-105166400D01*
X179782731Y-105166400D01*
X179433042Y-105235957D01*
X179103643Y-105372399D01*
X178807192Y-105570481D01*
X178555081Y-105822592D01*
X178356999Y-106119043D01*
X178220557Y-106448442D01*
X178151000Y-106798131D01*
X143056746Y-106798131D01*
X143044485Y-106781317D01*
X143012344Y-106745241D01*
X142982210Y-106707472D01*
X142967965Y-106695428D01*
X142955554Y-106681497D01*
X142917013Y-106652347D01*
X142880121Y-106621154D01*
X142863810Y-106612107D01*
X142848929Y-106600852D01*
X142805460Y-106579743D01*
X142763212Y-106556310D01*
X142745453Y-106550603D01*
X142728670Y-106542453D01*
X142681939Y-106530192D01*
X142635935Y-106515408D01*
X142617401Y-106513259D01*
X142599359Y-106508525D01*
X142551129Y-106505574D01*
X142503136Y-106500008D01*
X142493572Y-106499905D01*
X138365572Y-106484405D01*
X138365443Y-106484417D01*
X138363000Y-106484400D01*
X131632000Y-106484400D01*
X131598592Y-106487676D01*
X131565027Y-106487682D01*
X131532226Y-106494183D01*
X131498949Y-106497446D01*
X131466819Y-106507146D01*
X131433890Y-106513673D01*
X131402975Y-106526422D01*
X131370967Y-106536086D01*
X131341328Y-106551845D01*
X131310298Y-106564642D01*
X131301886Y-106569192D01*
X126376053Y-109278400D01*
X121345000Y-109278400D01*
X121280855Y-109284690D01*
X121216644Y-109290533D01*
X121214338Y-109291212D01*
X121211949Y-109291446D01*
X121150277Y-109310066D01*
X121088394Y-109328279D01*
X121086264Y-109329392D01*
X121083967Y-109330086D01*
X121027114Y-109360316D01*
X120969919Y-109390216D01*
X120968045Y-109391723D01*
X120965927Y-109392849D01*
X120916014Y-109433557D01*
X120865731Y-109473986D01*
X120864187Y-109475827D01*
X120862326Y-109477344D01*
X120821234Y-109527016D01*
X120779797Y-109576398D01*
X120778640Y-109578502D01*
X120777109Y-109580353D01*
X120746459Y-109637039D01*
X120715392Y-109693550D01*
X120714665Y-109695842D01*
X120713524Y-109697952D01*
X120694476Y-109759484D01*
X120674969Y-109820980D01*
X120674701Y-109823368D01*
X120673991Y-109825662D01*
X120667254Y-109889766D01*
X120660067Y-109953836D01*
X120660035Y-109958450D01*
X120660017Y-109958618D01*
X120660032Y-109958786D01*
X120660000Y-109963400D01*
X120660000Y-116306400D01*
X118486639Y-116306400D01*
X118642229Y-116202438D01*
X118953538Y-115891129D01*
X119198131Y-115525069D01*
X119366610Y-115118325D01*
X119452500Y-114686528D01*
X119452500Y-114246272D01*
X119366610Y-113814475D01*
X119198131Y-113407731D01*
X118953538Y-113041671D01*
X118642229Y-112730362D01*
X118276169Y-112485769D01*
X117869425Y-112317290D01*
X117437628Y-112231400D01*
X116997372Y-112231400D01*
X116565575Y-112317290D01*
X116158831Y-112485769D01*
X115844387Y-112695874D01*
X115836874Y-101798131D01*
X178151000Y-101798131D01*
X178151000Y-102154669D01*
X178220557Y-102504358D01*
X178356999Y-102833757D01*
X178555081Y-103130208D01*
X178807192Y-103382319D01*
X179103643Y-103580401D01*
X179433042Y-103716843D01*
X179782731Y-103786400D01*
X180139269Y-103786400D01*
X180488958Y-103716843D01*
X180818357Y-103580401D01*
X181114808Y-103382319D01*
X181366919Y-103130208D01*
X181565001Y-102833757D01*
X181701443Y-102504358D01*
X181771000Y-102154669D01*
X181771000Y-101798131D01*
X181701443Y-101448442D01*
X181565001Y-101119043D01*
X181366919Y-100822592D01*
X181114808Y-100570481D01*
X180818357Y-100372399D01*
X180488958Y-100235957D01*
X180139269Y-100166400D01*
X179782731Y-100166400D01*
X179433042Y-100235957D01*
X179103643Y-100372399D01*
X178807192Y-100570481D01*
X178555081Y-100822592D01*
X178356999Y-101119043D01*
X178220557Y-101448442D01*
X178151000Y-101798131D01*
X115836874Y-101798131D01*
X115834577Y-98466400D01*
X118263428Y-98466400D01*
X118263428Y-100466400D01*
X118275688Y-100590882D01*
X118311998Y-100710580D01*
X118370963Y-100820894D01*
X118450315Y-100917585D01*
X118547006Y-100996937D01*
X118657320Y-101055902D01*
X118777018Y-101092212D01*
X118901500Y-101104472D01*
X121501500Y-101104472D01*
X121625982Y-101092212D01*
X121745680Y-101055902D01*
X121855994Y-100996937D01*
X121952685Y-100917585D01*
X122032037Y-100820894D01*
X122091002Y-100710580D01*
X122127312Y-100590882D01*
X122139572Y-100466400D01*
X122139572Y-98466400D01*
X122127312Y-98341918D01*
X122091002Y-98222220D01*
X122032037Y-98111906D01*
X121952685Y-98015215D01*
X121855994Y-97935863D01*
X121745680Y-97876898D01*
X121625982Y-97840588D01*
X121501500Y-97828328D01*
X118901500Y-97828328D01*
X118777018Y-97840588D01*
X118657320Y-97876898D01*
X118547006Y-97935863D01*
X118450315Y-98015215D01*
X118370963Y-98111906D01*
X118311998Y-98222220D01*
X118275688Y-98341918D01*
X118263428Y-98466400D01*
X115834577Y-98466400D01*
X115831764Y-94386400D01*
X118258589Y-94386400D01*
X118290157Y-94706916D01*
X118383648Y-95015115D01*
X118535469Y-95299152D01*
X118739786Y-95548114D01*
X118988748Y-95752431D01*
X119272785Y-95904252D01*
X119580984Y-95997743D01*
X119821178Y-96021400D01*
X120581822Y-96021400D01*
X120822016Y-95997743D01*
X121130215Y-95904252D01*
X121414252Y-95752431D01*
X121663214Y-95548114D01*
X121867531Y-95299152D01*
X122019352Y-95015115D01*
X122112843Y-94706916D01*
X122144411Y-94386400D01*
X122112843Y-94065884D01*
X122019352Y-93757685D01*
X121867531Y-93473648D01*
X121663214Y-93224686D01*
X121414252Y-93020369D01*
X121130215Y-92868548D01*
X120822016Y-92775057D01*
X120581822Y-92751400D01*
X119821178Y-92751400D01*
X119580984Y-92775057D01*
X119272785Y-92868548D01*
X118988748Y-93020369D01*
X118739786Y-93224686D01*
X118535469Y-93473648D01*
X118383648Y-93757685D01*
X118290157Y-94065884D01*
X118258589Y-94386400D01*
X115831764Y-94386400D01*
X115829060Y-90463894D01*
X142727990Y-90463894D01*
X142727990Y-90854906D01*
X142804272Y-91238406D01*
X142953907Y-91599655D01*
X143171142Y-91924770D01*
X143447630Y-92201258D01*
X143772745Y-92418493D01*
X144133994Y-92568128D01*
X144517494Y-92644410D01*
X144908506Y-92644410D01*
X145292006Y-92568128D01*
X145653255Y-92418493D01*
X145978370Y-92201258D01*
X146254858Y-91924770D01*
X146339475Y-91798131D01*
X178151000Y-91798131D01*
X178151000Y-92154669D01*
X178220557Y-92504358D01*
X178356999Y-92833757D01*
X178555081Y-93130208D01*
X178807192Y-93382319D01*
X179103643Y-93580401D01*
X179433042Y-93716843D01*
X179782731Y-93786400D01*
X180139269Y-93786400D01*
X180488958Y-93716843D01*
X180818357Y-93580401D01*
X181114808Y-93382319D01*
X181366919Y-93130208D01*
X181565001Y-92833757D01*
X181701443Y-92504358D01*
X181771000Y-92154669D01*
X181771000Y-91798131D01*
X181701443Y-91448442D01*
X181565001Y-91119043D01*
X181366919Y-90822592D01*
X181114808Y-90570481D01*
X180818357Y-90372399D01*
X180488958Y-90235957D01*
X180139269Y-90166400D01*
X179782731Y-90166400D01*
X179433042Y-90235957D01*
X179103643Y-90372399D01*
X178807192Y-90570481D01*
X178555081Y-90822592D01*
X178356999Y-91119043D01*
X178220557Y-91448442D01*
X178151000Y-91798131D01*
X146339475Y-91798131D01*
X146472093Y-91599655D01*
X146621728Y-91238406D01*
X146698010Y-90854906D01*
X146698010Y-90463894D01*
X146621728Y-90080394D01*
X146472093Y-89719145D01*
X146254858Y-89394030D01*
X145978370Y-89117542D01*
X145653255Y-88900307D01*
X145292006Y-88750672D01*
X144908506Y-88674390D01*
X144517494Y-88674390D01*
X144133994Y-88750672D01*
X143772745Y-88900307D01*
X143447630Y-89117542D01*
X143171142Y-89394030D01*
X142953907Y-89719145D01*
X142804272Y-90080394D01*
X142727990Y-90463894D01*
X115829060Y-90463894D01*
X115826533Y-86798131D01*
X178151000Y-86798131D01*
X178151000Y-87154669D01*
X178220557Y-87504358D01*
X178356999Y-87833757D01*
X178555081Y-88130208D01*
X178807192Y-88382319D01*
X179103643Y-88580401D01*
X179433042Y-88716843D01*
X179782731Y-88786400D01*
X180139269Y-88786400D01*
X180488958Y-88716843D01*
X180818357Y-88580401D01*
X181114808Y-88382319D01*
X181366919Y-88130208D01*
X181565001Y-87833757D01*
X181701443Y-87504358D01*
X181771000Y-87154669D01*
X181771000Y-86798131D01*
X181701443Y-86448442D01*
X181565001Y-86119043D01*
X181366919Y-85822592D01*
X181114808Y-85570481D01*
X180818357Y-85372399D01*
X180488958Y-85235957D01*
X180139269Y-85166400D01*
X179782731Y-85166400D01*
X179433042Y-85235957D01*
X179103643Y-85372399D01*
X178807192Y-85570481D01*
X178555081Y-85822592D01*
X178356999Y-86119043D01*
X178220557Y-86448442D01*
X178151000Y-86798131D01*
X115826533Y-86798131D01*
X115822688Y-81222428D01*
X116158831Y-81447031D01*
X116565575Y-81615510D01*
X116997372Y-81701400D01*
X117437628Y-81701400D01*
X117869425Y-81615510D01*
X118276169Y-81447031D01*
X118642229Y-81202438D01*
X118953538Y-80891129D01*
X119198131Y-80525069D01*
X119289744Y-80303894D01*
X142727990Y-80303894D01*
X142727990Y-80694906D01*
X142804272Y-81078406D01*
X142953907Y-81439655D01*
X143171142Y-81764770D01*
X143447630Y-82041258D01*
X143772745Y-82258493D01*
X144133994Y-82408128D01*
X144517494Y-82484410D01*
X144908506Y-82484410D01*
X145292006Y-82408128D01*
X145292570Y-82407894D01*
X161975990Y-82407894D01*
X161975990Y-82798906D01*
X162052272Y-83182406D01*
X162201907Y-83543655D01*
X162419142Y-83868770D01*
X162695630Y-84145258D01*
X163020745Y-84362493D01*
X163381994Y-84512128D01*
X163765494Y-84588410D01*
X164156506Y-84588410D01*
X164540006Y-84512128D01*
X164901255Y-84362493D01*
X165226370Y-84145258D01*
X165502858Y-83868770D01*
X165720093Y-83543655D01*
X165869728Y-83182406D01*
X165946010Y-82798906D01*
X165946010Y-82407894D01*
X172135990Y-82407894D01*
X172135990Y-82798906D01*
X172212272Y-83182406D01*
X172361907Y-83543655D01*
X172579142Y-83868770D01*
X172855630Y-84145258D01*
X173180745Y-84362493D01*
X173541994Y-84512128D01*
X173925494Y-84588410D01*
X174316506Y-84588410D01*
X174700006Y-84512128D01*
X175061255Y-84362493D01*
X175386370Y-84145258D01*
X175662858Y-83868770D01*
X175880093Y-83543655D01*
X176029728Y-83182406D01*
X176106010Y-82798906D01*
X176106010Y-82407894D01*
X176029728Y-82024394D01*
X175880093Y-81663145D01*
X175662858Y-81338030D01*
X175386370Y-81061542D01*
X175061255Y-80844307D01*
X174700006Y-80694672D01*
X174316506Y-80618390D01*
X173925494Y-80618390D01*
X173541994Y-80694672D01*
X173180745Y-80844307D01*
X172855630Y-81061542D01*
X172579142Y-81338030D01*
X172361907Y-81663145D01*
X172212272Y-82024394D01*
X172135990Y-82407894D01*
X165946010Y-82407894D01*
X165869728Y-82024394D01*
X165720093Y-81663145D01*
X165502858Y-81338030D01*
X165226370Y-81061542D01*
X164901255Y-80844307D01*
X164540006Y-80694672D01*
X164156506Y-80618390D01*
X163765494Y-80618390D01*
X163381994Y-80694672D01*
X163020745Y-80844307D01*
X162695630Y-81061542D01*
X162419142Y-81338030D01*
X162201907Y-81663145D01*
X162052272Y-82024394D01*
X161975990Y-82407894D01*
X145292570Y-82407894D01*
X145653255Y-82258493D01*
X145978370Y-82041258D01*
X146254858Y-81764770D01*
X146472093Y-81439655D01*
X146621728Y-81078406D01*
X146698010Y-80694906D01*
X146698010Y-80303894D01*
X146621728Y-79920394D01*
X146472093Y-79559145D01*
X146254858Y-79234030D01*
X145978370Y-78957542D01*
X145653255Y-78740307D01*
X145292006Y-78590672D01*
X144908506Y-78514390D01*
X144517494Y-78514390D01*
X144133994Y-78590672D01*
X143772745Y-78740307D01*
X143447630Y-78957542D01*
X143171142Y-79234030D01*
X142953907Y-79559145D01*
X142804272Y-79920394D01*
X142727990Y-80303894D01*
X119289744Y-80303894D01*
X119366610Y-80118325D01*
X119452500Y-79686528D01*
X119452500Y-79246272D01*
X119366610Y-78814475D01*
X119198131Y-78407731D01*
X119045783Y-78179725D01*
X180191991Y-78228016D01*
M02*
