G04 #@! TF.GenerationSoftware,KiCad,Pcbnew,(5.1.4)-1*
G04 #@! TF.CreationDate,2021-02-21T00:25:35+00:00*
G04 #@! TF.ProjectId,5v_to_bipolar15v_PSU,35765f74-6f5f-4626-9970-6f6c61723135,rev?*
G04 #@! TF.SameCoordinates,Original*
G04 #@! TF.FileFunction,Paste,Top*
G04 #@! TF.FilePolarity,Positive*
%FSLAX46Y46*%
G04 Gerber Fmt 4.6, Leading zero omitted, Abs format (unit mm)*
G04 Created by KiCad (PCBNEW (5.1.4)-1) date 2021-02-21 00:25:35*
%MOMM*%
%LPD*%
G04 APERTURE LIST*
%ADD10R,0.600000X0.400000*%
%ADD11R,0.900000X1.200000*%
%ADD12R,0.500000X0.900000*%
%ADD13R,0.900000X0.500000*%
%ADD14R,0.750000X0.800000*%
%ADD15R,1.200000X0.900000*%
%ADD16R,0.800000X0.750000*%
%ADD17R,1.000000X1.000000*%
%ADD18C,0.100000*%
%ADD19C,0.600000*%
%ADD20R,1.600000X1.000000*%
%ADD21R,1.000000X1.600000*%
%ADD22R,3.800000X2.000000*%
%ADD23R,1.500000X2.000000*%
%ADD24R,2.000000X3.500000*%
%ADD25R,7.000000X7.000000*%
%ADD26R,0.650000X0.300000*%
%ADD27R,0.465000X0.744000*%
%ADD28R,0.800000X0.900000*%
%ADD29R,5.700000X1.700000*%
%ADD30R,1.700000X5.700000*%
%ADD31R,1.800000X2.500000*%
%ADD32R,2.500000X1.800000*%
%ADD33R,0.600000X0.500000*%
G04 APERTURE END LIST*
D10*
X168933000Y-106269400D03*
X168933000Y-105369400D03*
D11*
X172511000Y-89603400D03*
X169211000Y-89603400D03*
D12*
X160956500Y-90707400D03*
X159456500Y-90707400D03*
D13*
X162961000Y-94603400D03*
X162961000Y-96103400D03*
D14*
X149538500Y-96307400D03*
X149538500Y-97807400D03*
X169097000Y-85417400D03*
X169097000Y-86917400D03*
D15*
X147336500Y-95660400D03*
X145136500Y-95660400D03*
X150722500Y-93755400D03*
X148522500Y-93755400D03*
D14*
X162461000Y-100103400D03*
X162461000Y-101603400D03*
D16*
X157781500Y-90707400D03*
X156281500Y-90707400D03*
D14*
X157158500Y-100117400D03*
X157158500Y-101617400D03*
X158936500Y-100117400D03*
X158936500Y-101617400D03*
X160714500Y-100129400D03*
X160714500Y-101629400D03*
D17*
X172548000Y-110196900D03*
D18*
G36*
X173712703Y-111497622D02*
G01*
X173727264Y-111499782D01*
X173741543Y-111503359D01*
X173755403Y-111508318D01*
X173768710Y-111514612D01*
X173781336Y-111522180D01*
X173793159Y-111530948D01*
X173804066Y-111540834D01*
X173813952Y-111551741D01*
X173822720Y-111563564D01*
X173830288Y-111576190D01*
X173836582Y-111589497D01*
X173841541Y-111603357D01*
X173845118Y-111617636D01*
X173847278Y-111632197D01*
X173848000Y-111646900D01*
X173848000Y-111946900D01*
X173847278Y-111961603D01*
X173845118Y-111976164D01*
X173841541Y-111990443D01*
X173836582Y-112004303D01*
X173830288Y-112017610D01*
X173822720Y-112030236D01*
X173813952Y-112042059D01*
X173804066Y-112052966D01*
X173793159Y-112062852D01*
X173781336Y-112071620D01*
X173768710Y-112079188D01*
X173755403Y-112085482D01*
X173741543Y-112090441D01*
X173727264Y-112094018D01*
X173712703Y-112096178D01*
X173698000Y-112096900D01*
X171398000Y-112096900D01*
X171383297Y-112096178D01*
X171368736Y-112094018D01*
X171354457Y-112090441D01*
X171340597Y-112085482D01*
X171327290Y-112079188D01*
X171314664Y-112071620D01*
X171302841Y-112062852D01*
X171291934Y-112052966D01*
X171282048Y-112042059D01*
X171273280Y-112030236D01*
X171265712Y-112017610D01*
X171259418Y-112004303D01*
X171254459Y-111990443D01*
X171250882Y-111976164D01*
X171248722Y-111961603D01*
X171248000Y-111946900D01*
X171248000Y-111646900D01*
X171248722Y-111632197D01*
X171250882Y-111617636D01*
X171254459Y-111603357D01*
X171259418Y-111589497D01*
X171265712Y-111576190D01*
X171273280Y-111563564D01*
X171282048Y-111551741D01*
X171291934Y-111540834D01*
X171302841Y-111530948D01*
X171314664Y-111522180D01*
X171327290Y-111514612D01*
X171340597Y-111508318D01*
X171354457Y-111503359D01*
X171368736Y-111499782D01*
X171383297Y-111497622D01*
X171398000Y-111496900D01*
X173698000Y-111496900D01*
X173712703Y-111497622D01*
X173712703Y-111497622D01*
G37*
D19*
X172548000Y-111796900D03*
D17*
X172548000Y-113396900D03*
D20*
X153856500Y-103685400D03*
X153856500Y-106685400D03*
D21*
X149792500Y-85246400D03*
X152792500Y-85246400D03*
D22*
X171211000Y-99403400D03*
D23*
X171211000Y-93103400D03*
X168911000Y-93103400D03*
X173511000Y-93103400D03*
D11*
X169461000Y-102588400D03*
X172761000Y-102588400D03*
D24*
X138211000Y-103391400D03*
X133631000Y-103391400D03*
D25*
X135911000Y-110791400D03*
D24*
X138261000Y-82391400D03*
X133681000Y-82391400D03*
D25*
X135961000Y-89791400D03*
D26*
X150943000Y-95586400D03*
X150943000Y-96086400D03*
X150943000Y-96586400D03*
X150943000Y-97086400D03*
X150943000Y-97586400D03*
X154043000Y-97586400D03*
X154043000Y-97086400D03*
X154043000Y-96586400D03*
X154043000Y-96086400D03*
X154043000Y-95586400D03*
D27*
X152880500Y-97206400D03*
X152880500Y-95966400D03*
X152105500Y-97206400D03*
X152105500Y-95966400D03*
D10*
X171129000Y-86753400D03*
X171129000Y-85853400D03*
D15*
X145136500Y-97692400D03*
X147336500Y-97692400D03*
X145136500Y-99724400D03*
X147336500Y-99724400D03*
D28*
X172675500Y-104874400D03*
X170775500Y-104874400D03*
X171725500Y-106874400D03*
D29*
X158555500Y-108542400D03*
X158555500Y-104042400D03*
X158555500Y-93283400D03*
X158555500Y-97783400D03*
D30*
X160805500Y-85881400D03*
X156305500Y-85881400D03*
D31*
X125975500Y-99651400D03*
X125975500Y-103651400D03*
X125975500Y-107017400D03*
X125975500Y-111017400D03*
X125975500Y-90983400D03*
X125975500Y-94983400D03*
X125975500Y-83395400D03*
X125975500Y-87395400D03*
D32*
X150364500Y-100740400D03*
X154364500Y-100740400D03*
X149189500Y-90834400D03*
X153189500Y-90834400D03*
D21*
X119411500Y-108852400D03*
X122411500Y-108852400D03*
X119411500Y-104026400D03*
X122411500Y-104026400D03*
X122470500Y-84937400D03*
X119470500Y-84937400D03*
X122494500Y-89763400D03*
X119494500Y-89763400D03*
D20*
X151443500Y-103685400D03*
X151443500Y-106685400D03*
D21*
X119387500Y-106439400D03*
X122387500Y-106439400D03*
D20*
X148903500Y-103685400D03*
X148903500Y-106685400D03*
D21*
X149816500Y-87659400D03*
X152816500Y-87659400D03*
X122470500Y-87350400D03*
X119470500Y-87350400D03*
X163105500Y-85629000D03*
X166105500Y-85629000D03*
X163105500Y-88118200D03*
X166105500Y-88118200D03*
D33*
X146786500Y-101502400D03*
X145686500Y-101502400D03*
X145347500Y-93755400D03*
X146447500Y-93755400D03*
D21*
X149816500Y-82833400D03*
X152816500Y-82833400D03*
X163105500Y-90607400D03*
X166105500Y-90607400D03*
M02*
